<svg xmlns="http://www.w3.org/2000/svg" xmlns:xlink="http://www.w3.org/1999/xlink" width="1066.633" height="876.049" viewBox="0 0 1066.633 876.049">
  <defs>
    <linearGradient id="linear-gradient" x1="0.516" y1="0.975" x2="0.516" y2="-0.026" gradientUnits="objectBoundingBox">
      <stop offset="0" stop-color="gray" stop-opacity="0.251"/>
      <stop offset="0.54" stop-color="gray" stop-opacity="0.122"/>
      <stop offset="1" stop-color="gray" stop-opacity="0.102"/>
    </linearGradient>
    <linearGradient id="linear-gradient-2" x1="0.514" y1="0.995" x2="0.514" y2="-0.003" xlink:href="#linear-gradient"/>
  </defs>
  <g id="azgaar" transform="translate(-0.003 -0.003)">
    <path id="Path_591" data-name="Path 591" d="M126.72,461.64c3,33.76,22.14,64.32,33.82,96.47a228.68,228.68,0,0,1,4.45,142c-2.78,9.58-6.21,19.19-6.21,29,0,33.82,38.53,56.27,73.54,71.2a1340.613,1340.613,0,0,0,276.82,83.64c31.07,5.87,69.88,8.4,89.54-13.67,9.44-10.6,11.72-24.44,18.65-36.33C635,803.62,678,791.84,716.6,785.09A1212.523,1212.523,0,0,1,857.27,768.9c47.48-2.67,101.39-5,132.86-36.17,20-19.82,25.82-47.17,26.62-73,2.61-84.74-37.88-176.44,14.09-249.83,21.79-30.78,57.37-53.26,79-84.13,31.31-44.73,28.61-101.54,7.41-149.21s-58.75-88.2-95.76-127.92c-12.24-13.13-25.3-26.79-43.68-32.88-19.13-6.34-40.82-3.43-61.33-.43-93.3,13.62-190.14,28.46-268.39,75.24-38.86,23.23-71.32,53.36-106,81.07C467.2,231.51,380.44,286.81,281.55,310.45,201.21,329.66,119.5,381.47,126.72,461.64Z" transform="translate(-66.64 -11.98)" fill="#fff" opacity="0.1"/>
    <path id="Path_640" data-name="Path 640" d="M141.26,517.87s41.84,41.84,18.22,103.92S200,787.11,200,787.11s-.69-.1-2-.32c-85.93-15.17-128.62-113.44-80.84-186.45C134.93,573.19,149.51,541.35,141.26,517.87Z" transform="translate(-66.64 -11.98)" fill="#50a757"/>
    <path id="Path_641" data-name="Path 641" d="M141.26,518.56s41.84,41.84,18.22,103.92S200,787.8,200,787.8s-.69-.1-2-.32C112.08,772.31,69.39,674,117.17,601,134.93,573.89,149.51,542,141.26,518.56Z" transform="translate(-66.64 -11.98)" opacity="0.1"/>
    <path id="Path_592" data-name="Path 592" d="M804.1,785.48c1.61-22.22,1.12-39.26-1-41-.9-.75-1.73-3.45-2.39-6.3,2.27-1.7,3.49-3.69,2.94-6-2.66-11.1-44.74-92.82-51.51-94.31s-5.37-122.59-5.37-122.59l9.88-92.38h-.14a67.34,67.34,0,0,1,4.07-14.6c.38-.93.78-1.83,1.18-2.72,8.18.29,16-3.34,22.76-12.89,7.36-10.4,14.2-19.65,20.4-27.76,14.64-11.4,32.66-29,37.89-49.41,9.25-36.08-33-73-33-73l-13.15-8.85c-.17-.5-.32-1-.46-1.5s-.26-1-.37-1.46a41.719,41.719,0,0,0,8.91-2.06h0a9.15,9.15,0,0,0,9,.77l.18-.1a8.519,8.519,0,0,0,1.43-.5,25.376,25.376,0,0,0,4.06-2.75c5.14-3.78,11.28-5.87,16.89-8.89,9.55-5.13,17.89-13.58,20.32-24.17a57.5,57.5,0,0,0,1.09-10.42,20.249,20.249,0,0,0-.62-7.52c-.66-1.92-1.89-3.59-2.66-5.47-1.67-4.08-1-8.68-1.09-13.09-.12-8.31-3-16.71-8.82-22.66s-14.53-9.14-22.63-7.41a43.5,43.5,0,0,0-6.36,2c-.93.34-1.85.7-2.77,1-3.63,1.33-7.25,2.34-11,1.47-4.49-1.05-8.4-4.82-13-4.28a8.92,8.92,0,0,0-2.76.84,15,15,0,0,0-4.57,2.4,52.457,52.457,0,0,0-5.89,4.88c-2.34,2.25-4.58,4.95-4.91,8.18a10.15,10.15,0,0,0,2.56,7.37,42.29,42.29,0,0,0-18.65,59.73q-.12.69-.25,1.4a103.328,103.328,0,0,1-2.5,10.48,9.054,9.054,0,0,1,.29-1.9c-.67-.15-1.36-.28-2.07-.4h-.32q-.94-.16-1.9-.28h-.16c-9.61-1.21-21.34-.14-28,3.67a57.17,57.17,0,0,0-24.29,27.67,68.52,68.52,0,0,0-15.79,25,34.21,34.21,0,0,0-15.76-3.26c-8.1-16-23.42-35.94-43.5-14.63-21.13,22.43,4.82,29,22.61,30.93a19.71,19.71,0,0,0,2.72,5.76,53.873,53.873,0,0,0,4.23,5.58,3.48,3.48,0,0,1-1.76.09c-4.09-1.14-3.79,40.64,14.5,52.83a102.557,102.557,0,0,1-11.74,21.53,120.75,120.75,0,0,0-15.73,31.29c-1.89,5.81-3.24,11.34-2.86,14.5h0a5.6,5.6,0,0,0,.22,1.07h0a3.5,3.5,0,0,0,.17.43h0a2.615,2.615,0,0,0,.22.37h0a2.07,2.07,0,0,0,.26.29h0a1.83,1.83,0,0,0,.29.22h0a1.837,1.837,0,0,0,.33.15h0a2.153,2.153,0,0,0,.36.07h.06a2.818,2.818,0,0,0,.4,0h.08a3.877,3.877,0,0,0,.44-.06h.1l.45-.12h.15l.46-.18.2-.08.5-.24.22-.11.57-.33.21-.12.71-.45.14-.09.91-.65c-.88,1.72-1.9,3.59-3.07,5.52-5.78,9.44-15.28,20.38-29.28,23.46-26,5.71-92.91,91.23-92.91,91.23s-20.63-1.43-12.27,64.33,9.94,101.45,9.94,101.45l.37.23c-7.84,8.92-23.83,24.94-37.73,25.13-19.28.26-30.64,12.94-21.48,20.87s109-4.56,109-4.56.66-26.09-4.09-38.08a23.1,23.1,0,0,0,2.24-2.27L555.5,575.88s62.33-53.43,92.72-58.61c-.2-.11-.4-.21-.59-.31a21.391,21.391,0,0,1,5.81-.11c26.56,3.61,46.72,124.69,46.72,124.69s4.89,19.06,19.49,33.75,47,71.44,47,71.44l1.35-.15.18.31h0c0,8.6-1.31,21.51-8,31.58-11,16.58,19.87,23,19.87,23S802.5,807.7,804.1,785.48Z" transform="translate(-66.64 -11.98)" fill="url(#linear-gradient)"/>
    <path id="Path_593" data-name="Path 593" d="M521.81,701.2s-23.23,30.53-42.45,30.8-30.55,12.86-21.41,20.74,108.74-4.5,108.74-4.5.94-37.52-7.68-43S521.81,701.2,521.81,701.2Z" transform="translate(-66.64 -11.98)" fill="#444176"/>
    <path id="Path_594" data-name="Path 594" d="M771.26,737.85s3.56,24.18-7.42,40.67,19.82,22.85,19.82,22.85,22.37,6.23,24-15.86,1.1-39-1-40.8-3.85-14.23-3.85-14.23Z" transform="translate(-66.64 -11.98)" fill="#444176"/>
    <path id="Path_595" data-name="Path 595" d="M770.28,747s-32.36-56.44-46.92-71-19.45-33.56-19.45-33.56-20.14-120.39-46.63-124-99.16,58.5-99.16,58.5l5.18,131.08c-15.77,18.28-46.71-1.16-46.71-1.16S515,671.3,506.66,605.91s12.21-64,12.21-64,66.67-85,92.61-90.68c14-3.05,23.42-13.93,29.19-23.31a76.673,76.673,0,0,0,7.16-15l110.83,11.85-9.82,91.85s-1.36,120.4,5.4,121.89,48.74,82.76,51.4,93.79S770.28,747,770.28,747Z" transform="translate(-66.64 -11.98)" fill="#565387"/>
    <g id="Group_60" data-name="Group 60" opacity="0.1">
      <path id="Path_596" data-name="Path 596" d="M652.09,518.78a10.92,10.92,0,0,0-3.91-1.39c-26.49-3.6-99.16,58.5-99.16,58.5L554.21,707c-4.73,5.48-10.83,7.57-17,7.81,9.37,2.18,20.22,2,27.67-6.67L559.65,577S621.79,523.93,652.09,518.78Z" transform="translate(-66.64 -11.98)"/>
      <path id="Path_597" data-name="Path 597" d="M807.15,732.48c-2.66-11-44.64-92.3-51.4-93.79s-5.4-121.89-5.4-121.89l9.82-91.85-10.63-1.14-9.82,91.85s-1.36,120.4,5.4,121.89,48.74,82.76,51.4,93.79c1.8,7.47-15,11.54-26.11,13.39l1.39,2.4S809.81,743.51,807.15,732.48Z" transform="translate(-66.64 -11.98)"/>
    </g>
    <path id="Path_598" data-name="Path 598" d="M824.37,269.81s-104.81-3.53-85.65-17.6c11.82-8.69,16.93-25.68,19.12-37.43a99.621,99.621,0,0,0,1.58-12.57s55.87-5.54,42.13,15.25c-3.6,5.46-3.75,11.65-2,17.81C804.48,252.63,824.37,269.81,824.37,269.81Z" transform="translate(-66.64 -11.98)" fill="#ffbec7"/>
    <path id="Path_599" data-name="Path 599" d="M710.36,244.57S685,258.75,680,291.23s-9.11-1-9.11-1-14.53,13.8-19,12.56-3.68,48.74,20.21,55.14,42.76-98.31,42.76-98.31Z" transform="translate(-66.64 -11.98)" fill="#dfe5ee"/>
    <path id="Path_600" data-name="Path 600" d="M710.36,244.57S685,258.75,680,291.23s-9.11-1-9.11-1-14.53,13.8-19,12.56-3.68,48.74,20.21,55.14,42.76-98.31,42.76-98.31Z" transform="translate(-66.64 -11.98)" opacity="0.05"/>
    <path id="Path_601" data-name="Path 601" d="M674,290.58s-19.48-62-49.78-29.89,36.55,31.55,36.55,31.55Z" transform="translate(-66.64 -11.98)" fill="#ffbec7"/>
    <path id="Path_602" data-name="Path 602" d="M801.56,217.47c-3.6,5.46-3.75,11.65-2,17.81a42,42,0,0,1-41.72-20.5,99.6,99.6,0,0,0,1.58-12.57S815.3,196.67,801.56,217.47Z" transform="translate(-66.64 -11.98)" opacity="0.1"/>
    <circle id="Ellipse_162" data-name="Ellipse 162" cx="41.99" cy="41.99" r="41.99" transform="translate(680.034 215.66) rotate(-81.78)" fill="#ffbec7"/>
    <path id="Path_603" data-name="Path 603" d="M758.66,424.79l-1.44,13.43c-12.23-3.27-96.13-25-113.89-11.94a20.466,20.466,0,0,1-2.66,1.69,76.67,76.67,0,0,0,7.16-15Z" transform="translate(-66.64 -11.98)" opacity="0.1"/>
    <path id="Path_604" data-name="Path 604" d="M846.07,318.2c-5.59,21.77-25.82,40.27-40.86,51.46a169.636,169.636,0,0,1-17.31,11.42s-15.57,9.07-23.81,29.34a68.771,68.771,0,0,0-5,24.4s-96.22-26.41-115.38-12.34c-10.07,7.4-8.48-3.06-4.7-14.64a119.828,119.828,0,0,1,15.67-31.1c5.29-7.61,11.93-18.76,13.93-29.15,2.65-13.8,20.64-66.29,29-90.29a57.16,57.16,0,0,1,25.62-31.11c7.76-4.39,22.28-5.12,32.4-2.89,0,0-3.26,10.85,11.72,12.79,1.62.21,3.23.5,4.82.87,6,1.41,20.79,4.22,27.35-.52l13.61,9.13S855.28,282.33,846.07,318.2Z" transform="translate(-66.64 -11.98)" fill="#dfe5ee"/>
    <path id="Path_605" data-name="Path 605" d="M801.79,173.28c.95-1.78.26-4.08-1.1-5.58a14.92,14.92,0,0,0-5.09-3.21l-9.13-4.14a31.779,31.779,0,0,1-8.49-5c-2.44-2.22-4.2-5.43-3.87-8.7s2.56-5.9,4.9-8.13a52.224,52.224,0,0,1,5.87-4.85,12.769,12.769,0,0,1,5.71-2.62c4.57-.54,8.47,3.21,12.95,4.26,6.75,1.58,13.24-3.09,20-4.53,8.08-1.72,16.81,1.46,22.57,7.37s8.68,14.27,8.8,22.53c.07,4.39-.57,9,1.09,13,.76,1.87,2,3.53,2.65,5.44a20.079,20.079,0,0,1,.62,7.48,56.994,56.994,0,0,1-1.05,10.4c-2.42,10.53-10.74,18.92-20.26,24-5.6,3-11.72,5.08-16.84,8.83a25.281,25.281,0,0,1-4,2.73,9.15,9.15,0,0,1-8.94-.77,6.52,6.52,0,0,1-3-5.4c.1-2.14,1.54-3.95,2.65-5.78,2.9-4.77,3.58-11.53-.28-15.58-1.69-1.77-4-2.81-5.67-4.62-2.68-3-3-7.32-3.09-11.32-.26-7.47-.45-15.25,2.67-22" transform="translate(-66.64 -11.98)" opacity="0.1"/>
    <path id="Path_606" data-name="Path 606" d="M802.3,167.1a14.92,14.92,0,0,0-5.09-3.21l-9.13-4.14a31.78,31.78,0,0,1-8.49-5c-2.44-2.22-4.2-5.43-3.87-8.7s2.56-5.9,4.9-8.13a52.222,52.222,0,0,1,5.87-4.85,12.77,12.77,0,0,1,5.71-2.62c4.57-.54,8.47,3.21,12.95,4.26,6.75,1.58,13.24-3.09,20-4.53,8.08-1.72,16.81,1.46,22.57,7.37s8.68,14.27,8.8,22.53c.07,4.39-.57,9,1.09,13,.76,1.87,2,3.53,2.65,5.44a20.08,20.08,0,0,1,.62,7.48,56.994,56.994,0,0,1-1.08,10.36c-2.42,10.53-10.74,18.92-20.26,24-5.6,3-11.72,5.08-16.84,8.83a25.275,25.275,0,0,1-4,2.73,9.15,9.15,0,0,1-8.94-.77,6.52,6.52,0,0,1-3-5.4c.1-2.14,1.54-3.95,2.65-5.78,2.9-4.77,3.58-11.53-.28-15.58-1.69-1.77-4-2.81-5.67-4.62-2.68-3-3-7.32-3.09-11.32-.26-7.47-1.53-14.51,1.59-21.3" transform="translate(-66.64 -11.98)" fill="#674739"/>
    <path id="Path_607" data-name="Path 607" d="M831,337.86c-6.15,7.11-15,17.71-25.76,31.8a169.619,169.619,0,0,1-17.31,11.42s-15.57,9.07-23.81,29.34C731.35,412.14,691.74,347,691.74,347l25.94-27.17,44.22,31.6,14.4-30.85a52,52,0,0,1,42.07-29.78l.69-.06c9.21-.84,14.53,4.66,17.59,11.62a33.72,33.72,0,0,1-5.65,35.5Z" transform="translate(-66.64 -11.98)" opacity="0.1"/>
    <g id="Group_61" data-name="Group 61" opacity="0.05">
      <path id="Path_608" data-name="Path 608" d="M748.8,222.57s-3.26,10.85,11.72,12.79c1.62.21,3.23.5,4.82.87a80.55,80.55,0,0,0,13.58,2.05c-2.69-.42-5.07-.92-6.75-1.32a45.371,45.371,0,0,0-4.82-.87c-15-1.94-11.72-12.79-11.72-12.79a54.791,54.791,0,0,0-8.95-1.14C747.41,222.29,748.12,222.42,748.8,222.57Z" transform="translate(-66.64 -11.98)"/>
      <path id="Path_609" data-name="Path 609" d="M813.14,245.58l-13.61-9.13a11.743,11.743,0,0,1-3.34,1.61l10.12,6.79s42.14,36.75,32.93,72.62c-5.59,21.77-25.82,40.27-40.86,51.46a169.629,169.629,0,0,1-17.31,11.42s-15.57,9.07-23.81,29.34A68.6,68.6,0,0,0,752.34,433c4.27,1.09,6.78,1.78,6.78,1.78a68.773,68.773,0,0,1,5-24.4c8.24-20.27,23.81-29.34,23.81-29.34a169.636,169.636,0,0,0,17.31-11.42c15-11.18,35.27-29.69,40.86-51.46C855.28,282.33,813.14,245.58,813.14,245.58Z" transform="translate(-66.64 -11.98)"/>
      <path id="Path_610" data-name="Path 610" d="M636.91,421.75l-.72.5c.38,3.16,2.5,3.94,7.55.23,6-4.38,19.39-4.84,35-3.39C660.28,416.86,643.72,416.75,636.91,421.75Z" transform="translate(-66.64 -11.98)"/>
    </g>
    <path id="Path_611" data-name="Path 611" d="M663.83,361.35s7.73,20,18.46,27.25,24.78,19.54,24.78,19.54" transform="translate(-66.64 -11.98)" opacity="0.05"/>
    <path id="Path_612" data-name="Path 612" d="M810,721.69l-16.12-69.62C787,640.64,779.93,634.5,774,631.23c-7.64-4.7-13.72-4.67-15.64-4.5l-2.16-2.28c-8.22-11.61-12.58-42-12.58-42-.43-14.25-9.46-23.9-21.08-30.42-19.58-11.73-47.66-14-53.63-14.35l-4.76-9.47-1.28-.31-.3-.6c-1-.27-2.13-.5-3.22-.72l8.42-172.79.08-1.67,33.25,1.62a10.07,10.07,0,0,0,1-20.1l-38.93-1.9v-.84l3.64-74.66v-.84a15.25,15.25,0,0,0,5.84-11.34,14.619,14.619,0,1,0-29.2-1.42,15.25,15.25,0,0,0,4.713,11.85v.84L644.5,330v.84L605.53,329a10.07,10.07,0,0,0-1,20.1l31.63,1.54-.08,1.67-8.53,175a231.4,231.4,0,0,0-36.14,7.51l-13.76,48.85-40.19,7.28-20.94,46L497,671.18c-2.07.76-4.08,1.57-6,2.4h0c-72.75,30.7-75.7,106.94-75.7,106.94,20.27,34.56,122.63,19.41,122.63,19.41,58.42,52.37,174.54,21.94,174.54,21.94,28,6.9,50.16,9.89,67.64,10.56h0c48.74,1.86,61-14.37,61-14.37C858.65,773.58,810,721.69,810,721.69Z" transform="translate(-66.64 -11.98)" fill="url(#linear-gradient-2)"/>
    <rect id="Rectangle_361" data-name="Rectangle 361" width="87.98" height="18.74" transform="matrix(0.106, -0.994, 0.994, 0.106, 572.738, 329.567)" fill="#3073ce"/>
    <rect id="Rectangle_362" data-name="Rectangle 362" width="197.14" height="31.77" transform="matrix(0.106, -0.994, 0.994, 0.106, 543.973, 529.672)" fill="#f0f5fa"/>
    <rect id="Rectangle_363" data-name="Rectangle 363" width="15.48" height="197.14" transform="matrix(0.994, 0.106, -0.106, 0.994, 581.172, 335.379)" opacity="0.05"/>
    <rect id="Rectangle_364" data-name="Rectangle 364" width="8.15" height="31.77" transform="matrix(0.106, -0.994, 0.994, 0.106, 564.063, 341.76)" opacity="0.1"/>
    <rect id="Rectangle_365" data-name="Rectangle 365" width="8.96" height="18.74" transform="matrix(0.106, -0.994, 0.994, 0.106, 572.737, 329.572)" opacity="0.1"/>
    <rect id="Rectangle_366" data-name="Rectangle 366" width="116.49" height="19.55" rx="9.775" transform="matrix(0.994, 0.106, -0.106, 0.994, 525.044, 316.263)" fill="#3073ce"/>
    <path id="Path_613" data-name="Path 613" d="M420.06,783.52s-.81-78.2,76.57-110l17.92-34.21,18.74-45.62,39.92-9,11.4-48.06s44-15.48,72.5-9.78l5.7,9.78s73.32-.81,76.57,39.1c0,0,7.33,36.66,17.92,43.18,0,0,17.92-4.07,35.84,22l19.55,66.8s51.32,48.06,35.84,92.05c0,0-21.18,30.14-128.71,9.78,0,0-114.86,35-176-13C543.89,796.55,442.06,816.1,420.06,783.52Z" transform="translate(-66.64 -11.98)" fill="#a8a8a8"/>
    <path id="Path_614" data-name="Path 614" d="M471.38,771.3s16.29-22.81,15.48-39.1,3.84-56.05,3.84-56.05" transform="translate(-66.64 -11.98)" fill="none" stroke="#000" stroke-miterlimit="10" stroke-width="1" opacity="0.1"/>
    <path id="Path_615" data-name="Path 615" d="M530.85,710.2s16.29-30.14,14.66-46.43c0,0,17.11-31,30.14-28.51" transform="translate(-66.64 -11.98)" fill="none" stroke="#000" stroke-miterlimit="10" stroke-width="1" opacity="0.1"/>
    <path id="Path_616" data-name="Path 616" d="M620.46,624.67s44.8-16.29,47.25-29.33" transform="translate(-66.64 -11.98)" fill="none" stroke="#000" stroke-miterlimit="10" stroke-width="1" opacity="0.1"/>
    <path id="Path_617" data-name="Path 617" d="M636.75,662.14S684,641,684,635.26h23.62s34.21,44.8,30.14,64.36" transform="translate(-66.64 -11.98)" fill="none" stroke="#000" stroke-miterlimit="10" stroke-width="1" opacity="0.1"/>
    <path id="Path_618" data-name="Path 618" d="M692.15,694.72s-45.62-3.26-61.91,9.78-45.62,19.55-45.62,19.55S567.51,760.71,561,767.23s-17.11,29.33-17.11,29.33" transform="translate(-66.64 -11.98)" fill="none" stroke="#000" stroke-miterlimit="10" stroke-width="1" opacity="0.1"/>
    <path id="Path_619" data-name="Path 619" d="M692.15,737.9s4.85,17.1,11.4,26.88,16.29,44.8,16.29,44.8" transform="translate(-66.64 -11.98)" fill="none" stroke="#000" stroke-miterlimit="10" stroke-width="1" opacity="0.1"/>
    <path id="Path_620" data-name="Path 620" d="M768.72,787.59s10.34,28.77,19.43,29" transform="translate(-66.64 -11.98)" fill="none" stroke="#000" stroke-miterlimit="10" stroke-width="1" opacity="0.1"/>
    <path id="Path_621" data-name="Path 621" d="M701,664.1s26.86,7.26,38.09,24.85,45.57,33.55,45.57,33.55" transform="translate(-66.64 -11.98)" fill="none" stroke="#000" stroke-miterlimit="10" stroke-width="1" opacity="0.1"/>
    <path id="Path_622" data-name="Path 622" d="M712.51,577.42s0,37.47,10.59,37.47S757.32,619,757.32,619" transform="translate(-66.64 -11.98)" fill="none" stroke="#000" stroke-miterlimit="10" stroke-width="1" opacity="0.1"/>
    <path id="Path_623" data-name="Path 623" d="M660.64,532.95s-2.71,64.73-16.55,81.48" transform="translate(-66.64 -11.98)" fill="none" stroke="#000" stroke-miterlimit="10" stroke-width="1" opacity="0.1"/>
    <g id="Group_62" data-name="Group 62" opacity="0.05">
      <path id="Path_624" data-name="Path 624" d="M811.08,706.94l-19.55-66.8c-17.92-26.07-35.84-22-35.84-22C745.1,611.63,737.77,575,737.77,575c-3.26-39.92-76.57-39.1-76.57-39.1l-5.7-9.78c-7.22-1.44-15.43-1.53-23.66-.85,2,.2,3.89.48,5.74.85l5.7,9.78s73.32-.81,76.57,39.1c0,0,7.33,36.66,17.92,43.18,0,0,17.92-4.07,35.84,22l19.55,66.8S844.48,755,829,799c0,0-10.45,14.87-53.93,16.66,58.61,2.15,71.85-16.66,71.85-16.66C862.4,755,811.08,706.94,811.08,706.94Z" transform="translate(-66.64 -11.98)"/>
      <path id="Path_625" data-name="Path 625" d="M524.33,795.74a380.761,380.761,0,0,1-52.19,5.65c20.4.78,41.63-1.42,55.31-3.31Q525.88,796.94,524.33,795.74Z" transform="translate(-66.64 -11.98)"/>
      <path id="Path_626" data-name="Path 626" d="M700.29,808.77a334.739,334.739,0,0,1-76.93,12.16c37.55,1.36,73.12-6.46,87.79-10.22C707.63,810.12,704,809.48,700.29,808.77Z" transform="translate(-66.64 -11.98)"/>
    </g>
    <rect id="Rectangle_367" data-name="Rectangle 367" width="9.78" height="79.83" transform="matrix(0.994, 0.106, -0.106, 0.994, 590.689, 242.589)" opacity="0.05"/>
    <path id="Path_627" data-name="Path 627" d="M667.39,256.09l-.68,6.36a14.67,14.67,0,0,1-18.63-2l.68-6.36Z" transform="translate(-66.64 -11.98)" opacity="0.1"/>
    <circle id="Ellipse_163" data-name="Ellipse 163" cx="14.66" cy="14.66" r="14.66" transform="matrix(0.106, -0.994, 0.994, 0.106, 575.875, 250.441)" fill="#3073ce"/>
    <path id="Path_628" data-name="Path 628" d="M673.26,251a14.66,14.66,0,0,1-16.14,13l3.12-29.16A14.66,14.66,0,0,1,673.26,251Z" transform="translate(-66.64 -11.98)" fill="#3073ce" opacity="0.05"/>
    <path id="Path_629" data-name="Path 629" d="M723.5,322.75l-10.22,16.57-9.78-8.49-13.4-11.64s-24.78,2-40.64-22c-6.8-10.27-1.51-16.15,6.74-19.5a34.24,34.24,0,0,1,39.41,10.5Z" transform="translate(-66.64 -11.98)" fill="#ffbec7"/>
    <path id="Path_630" data-name="Path 630" d="M656.86,310.77l-10.21,16.57-9.78-8.5,14.37-15.04Z" opacity="0.1"/>
    <path id="Path_631" data-name="Path 631" d="M779.66,317.87l-14.4,30.84L721,317.11l-25.9,27.17S754.52,442,788,394.9c20.31-28.61,36.67-48.53,46.38-59.76a33.7,33.7,0,0,0,5.67-35.5c-3.06-7-8.38-12.45-17.59-11.62l-.69.07a52,52,0,0,0-42.11,29.78Z" transform="translate(-66.64 -11.98)" fill="#dfe5ee"/>
    <path id="Path_632" data-name="Path 632" d="M985.83,672.35s-13.26-45,2.49-78.14a71.09,71.09,0,0,0,5.75-44.6,119.569,119.569,0,0,0-6.31-20.93" transform="translate(-66.64 -11.98)" fill="none" stroke="#535461" stroke-miterlimit="10" stroke-width="2"/>
    <path id="Path_633" data-name="Path 633" d="M997.54,507.74c0,5.52-10,21.51-10,21.51s-10-16-10-21.51a10,10,0,0,1,20,0Z" transform="translate(-66.64 -11.98)" fill="#50a757"/>
    <path id="Path_634" data-name="Path 634" d="M1014.06,538.29c-3,4.63-20.08,12.63-20.08,12.63s.31-18.86,3.31-23.49a10,10,0,0,1,16.77,10.86Z" transform="translate(-66.64 -11.98)" fill="#50a757"/>
    <path id="Path_635" data-name="Path 635" d="M1013.33,590.51c-4.93,2.48-23.71.77-23.71.77s9.79-16.12,14.71-18.6a10,10,0,1,1,9,17.84Z" transform="translate(-66.64 -11.98)" fill="#50a757"/>
    <path id="Path_636" data-name="Path 636" d="M1003.89,629.9c-4.44,3.28-23.24,4.76-23.24,4.76s6.92-17.54,11.36-20.82a10,10,0,1,1,11.88,16.06Z" transform="translate(-66.64 -11.98)" fill="#50a757"/>
    <path id="Path_637" data-name="Path 637" d="M973,552c4,3.84,22.39,7.83,22.39,7.83s-4.51-18.31-8.47-22.15A10,10,0,1,0,973,552Z" transform="translate(-66.64 -11.98)" fill="#50a757"/>
    <path id="Path_638" data-name="Path 638" d="M962.55,598.19c4.93,2.48,23.71.77,23.71.77s-9.79-16.12-14.71-18.6a10,10,0,1,0-9,17.84Z" transform="translate(-66.64 -11.98)" fill="#50a757"/>
    <path id="Path_639" data-name="Path 639" d="M958.54,644.49c4.44,3.28,23.24,4.76,23.24,4.76s-6.92-17.54-11.36-20.82a10,10,0,0,0-11.88,16.06Z" transform="translate(-66.64 -11.98)" fill="#50a757"/>
    <path id="Path_642" data-name="Path 642" d="M141.26,517.87s23.62,51.28,0,93.12-4,159.25,58.71,176.12" transform="translate(-66.64 -11.98)" fill="none" stroke="#535461" stroke-miterlimit="10" stroke-width="1"/>
    <path id="Path_643" data-name="Path 643" d="M66.75,687.08s47.74-7.6,52.09,35.18S210.64,771,210.64,771L209,772.07c-72.2,47.4-141.23,30.19-130.82-32.75C82,715.93,81.73,692.43,66.75,687.08Z" transform="translate(-66.64 -11.98)" fill="#50a757"/>
    <path id="Path_644" data-name="Path 644" d="M66.75,687.08s37.06,8.13,34,41.83S155.79,803,210.64,771" transform="translate(-66.64 -11.98)" fill="none" stroke="#535461" stroke-miterlimit="10" stroke-width="1"/>
    <path id="Path_645" data-name="Path 645" d="M945.12,662.8s22.41-.69,29.16-5.5,34.47-10.55,36.14-2.84,33.67,38.35,8.38,38.56-58.78-3.94-65.52-8S945.12,662.8,945.12,662.8Z" transform="translate(-66.64 -11.98)" fill="#a8a8a8"/>
    <path id="Path_646" data-name="Path 646" d="M1019.25,690.34c-25.3.2-58.78-3.94-65.52-8-5.13-3.13-7.18-14.34-7.86-19.52h-.75s1.42,18.07,8.16,22.18,40.22,8.25,65.52,8c7.3-.06,9.82-2.66,9.69-6.5C1027.47,688.84,1024.68,690.29,1019.25,690.34Z" transform="translate(-66.64 -11.98)" opacity="0.2"/>
    <path id="Path_647" data-name="Path 647" d="M247.66,774.54S210.05,767,200,757s-55.15-27.57-60.16-15-67.66,55.1-25.04,62.62,100.27,10,112.8,5S247.66,774.54,247.66,774.54Z" transform="translate(-66.64 -11.98)" fill="#a8a8a8"/>
    <path id="Path_648" data-name="Path 648" d="M114.8,800c42.62,7.52,100.27,10,112.8,5,9.55-3.82,16.18-22.16,18.8-30.7l1.25.26s-7.52,30.08-20.05,35.09-70.19,2.51-112.8-5c-12.3-2.17-15.82-7.27-14.49-13.72C101.35,795.11,105.64,798.35,114.8,800Z" transform="translate(-66.64 -11.98)" opacity="0.2"/>
  </g>
</svg>
