<svg width="690" height="526" viewBox="0 0 690 526" fill="none" xmlns="http://www.w3.org/2000/svg">
<rect x="71" width="619" height="525" fill="white"/>
<path d="M444.817 56.5817C445.213 50.3936 452.194 46.9889 457.314 50.4869L538.395 105.884C543.462 109.346 542.904 116.989 537.388 119.68L450.039 162.281C444.523 164.971 438.157 160.705 438.548 154.58L444.817 56.5817Z" fill="#60AEFB"/>
<path d="M449.652 66.5041C450.041 60.308 457.033 56.8979 462.156 60.4057L527.443 105.114C532.504 108.579 531.943 116.216 526.43 118.905L456.175 153.169C450.662 155.858 444.299 151.598 444.684 145.476L449.652 66.5041Z" fill="white"/>
<path d="M547.585 228.921C547.281 235.115 540.352 238.623 535.181 235.202L453.284 181.018C448.165 177.632 448.609 169.981 454.084 167.209L540.79 123.312C546.265 120.539 552.694 124.711 552.394 130.841L547.585 228.921Z" fill="#60AEFB"/>
<path d="M542.603 219.072C542.306 225.273 535.365 228.787 530.191 225.356L464.245 181.625C459.133 178.235 459.581 170.591 465.053 167.821L534.79 132.514C540.262 129.743 546.688 133.908 546.394 140.035L542.603 219.072Z" fill="white"/>
<path d="M276.459 251.109C280.714 246.598 288.261 248.434 289.969 254.395L317.021 348.793C318.711 354.693 313.403 360.221 307.44 358.771L213.008 335.806C207.044 334.356 204.867 327.008 209.079 322.543L276.459 251.109Z" fill="#60AEFB"/>
<path d="M273.847 261.833C278.102 257.312 285.661 259.151 287.365 265.121L309.082 341.21C310.766 347.108 305.459 352.629 299.499 351.179L223.548 332.709C217.588 331.259 215.409 323.918 219.613 319.452L273.847 261.833Z" fill="white"/>
<path d="M225.33 101.453C229.585 96.9422 237.132 98.7776 238.84 104.738L254.098 157.981C255.788 163.881 250.48 169.409 244.517 167.959L191.255 155.006C185.292 153.556 183.115 146.208 187.326 141.743L225.33 101.453Z" fill="#60AEFB"/>
<path d="M223.601 108.545C227.856 104.025 235.415 105.863 237.119 111.833L248.863 152.979C250.546 158.877 245.239 164.397 239.28 162.948L198.208 152.96C192.249 151.511 190.069 144.17 194.273 139.703L223.601 108.545Z" fill="white"/>
<path d="M307.737 96.5627C313.469 94.1952 319.598 98.9659 318.709 105.103L310.775 159.918C309.895 165.991 302.786 168.854 297.943 165.084L254.688 131.416C249.845 127.646 250.875 120.052 256.547 117.709L307.737 96.5627Z" fill="#60AEFB"/>
<path d="M303.25 102.321C308.986 99.9445 315.125 104.723 314.229 110.866L308.054 153.207C307.169 159.277 300.064 162.133 295.224 158.366L261.868 132.404C257.028 128.636 258.054 121.048 263.72 118.7L303.25 102.321Z" fill="white"/>
<path d="M245.557 449.37C241.37 453.944 233.796 452.221 231.999 446.286L203.545 352.301C201.766 346.427 206.992 340.821 212.976 342.182L307.74 363.738C313.724 365.099 316.01 372.414 311.866 376.94L245.557 449.37Z" fill="#60AEFB"/>
<path d="M248.009 438.608C243.822 443.192 236.236 441.466 234.444 435.523L211.595 359.765C209.824 353.893 215.048 348.294 221.029 349.654L297.247 366.991C303.228 368.352 305.516 375.659 301.379 380.188L248.009 438.608Z" fill="white"/>
<path d="M518.33 381.453C522.585 376.942 530.132 378.778 531.84 384.738L547.098 437.981C548.788 443.881 543.48 449.409 537.517 447.959L484.255 435.006C478.292 433.556 476.115 426.208 480.326 421.743L518.33 381.453Z" fill="#60AEFB"/>
<path d="M516.601 388.545C520.856 384.025 528.415 385.863 530.119 391.833L541.863 432.979C543.546 438.877 538.239 444.397 532.28 442.948L491.208 432.96C485.249 431.511 483.069 424.17 487.273 419.703L516.601 388.545Z" fill="white"/>
</svg>
