<svg version="1.1" viewBox="0.0 0.0 143.50918635170603 141.6272965879265" fill="none" stroke="none" stroke-linecap="square" stroke-miterlimit="10" xmlns:xlink="http://www.w3.org/1999/xlink" xmlns="http://www.w3.org/2000/svg"><clipPath id="p.0"><path d="m0 0l143.50919 0l0 141.6273l-143.50919 0l0 -141.6273z" clip-rule="nonzero"/></clipPath><g clip-path="url(#p.0)"><path fill="#000000" fill-opacity="0.0" d="m0 0l143.50919 0l0 141.6273l-143.50919 0z" fill-rule="evenodd"/><path fill="#000000" fill-opacity="0.0" d="m7.874016E-7 0l143.49606 0l0 142.20473l-143.49606 0z" fill-rule="evenodd"/><path fill="#4a86e8" d="m52.62287 80.374374l-11.03125 11.5l0 20.765625l-18.890625 0l0 -82.125l18.890625 0l0 38.359375l36.375 -38.359375l21.125 0l-34.03125 36.609375l36.015625 45.515625l-22.171875 0l-26.28125 -32.265625zm62.541595 33.203125q-4.8125 0 -8.109375 -3.28125q-3.28125 -3.28125 -3.28125 -8.21875q0 -5.046875 3.28125 -8.15625q3.296875 -3.109375 8.109375 -3.109375q4.8125 0 8.09375 3.109375q3.28125 3.109375 3.28125 8.15625q0 4.9375 -3.28125 8.21875q-3.28125 3.28125 -8.09375 3.28125z" fill-rule="nonzero"/></g></svg>