<svg id="undraw_modern_design_v3wv" xmlns="http://www.w3.org/2000/svg" width="552.637" height="593.62" viewBox="0 0 552.637 593.62">
  <ellipse id="Ellipse_146" data-name="Ellipse 146" cx="276.318" cy="14.408" rx="276.318" ry="14.408" transform="translate(0 564.804)" fill="#e6e6e6"/>
  <path id="Path_481" data-name="Path 481" d="M894.427,539.794v3.487s6.156,22.318-1.368,22.318-10.26-21.621-10.26-21.621v-4.185Z" transform="translate(-384.485 -171.109)" fill="#ffb8b8"/>
  <path id="Path_482" data-name="Path 482" d="M723.346,435.479l1.368-5.58s7.524-17.436,13.68-13.949-2.736,16.739-2.736,16.739l-1.368,3.487Z" transform="translate(-350.202 -146.303)" fill="#ffb8b8"/>
  <path id="Path_483" data-name="Path 483" d="M531.111,672.86l1.368,11.856,13,2.092V671.465Z" transform="translate(-114.191 -133.997)" fill="#ffb8b8"/>
  <path id="Path_484" data-name="Path 484" d="M622.6,668.5l1.367,17.436,15.048-2.092-2.737-16.739Z" transform="translate(-133.862 -133.128)" fill="#ffb8b8"/>
  <path id="Path_485" data-name="Path 485" d="M522.52,500.864l-2.736.7,7.523,73.929v66.258l19.152-3.487,9.576-116.474,29.411,57.191,14.364,57.889,22.572-4.185-18.468-72.535L591.6,491.1Z" transform="translate(-111.756 -98.004)" fill="#2f2e41"/>
  <path id="Path_486" data-name="Path 486" d="M780.786,761.4s-6.156-4.185-8.208-1.395-10.944,16.739-10.944,16.739-21.888,23.016,0,22.318c0,0,14.364,0,17.1-8.369a5.249,5.249,0,0,1,5.472-4.185c4.788,0,10.26-4.882,10.26-7.672s-4.788-16.876-6.84-14.715S780.786,761.4,780.786,761.4Z" transform="translate(-356.342 -214.862)" fill="#2f2e41"/>
  <path id="Path_487" data-name="Path 487" d="M878.495,761.4s6.156-4.185,8.208-1.395,10.944,16.739,10.944,16.739,21.888,23.016,0,22.318c0,0-14.364,0-17.1-8.369a5.249,5.249,0,0,0-5.472-4.185c-4.788,0-10.26-4.882-10.26-7.672s4.788-16.876,6.84-14.715S878.495,761.4,878.495,761.4Z" transform="translate(-380.618 -214.862)" fill="#2f2e41"/>
  <ellipse id="Ellipse_147" data-name="Ellipse 147" cx="18.055" cy="18.41" rx="18.055" ry="18.41" transform="translate(394.419 248.796)" fill="#ffb8b8"/>
  <path id="Path_488" data-name="Path 488" d="M523.705,348.992l9.575,11.856,17.1-14.646-12.311-9.764Z" transform="translate(-112.599 -67.139)" fill="#ffb8b8"/>
  <path id="Path_489" data-name="Path 489" d="M772.994,441.834l.559-5.161,19.2-11.25,26.085-2.524a6.2,6.2,0,0,1,6.717,5.665L835.237,533.2l3.42,9.067s-60.191,34.872-73.871,9.067l10.26-54.4-21.2-41.149Z" transform="translate(-356.758 -147.776)" fill="#3073ce"/>
  <path id="Path_490" data-name="Path 490" d="M837.49,424.6a5.537,5.537,0,0,0,1.218-.354,6.114,6.114,0,0,1,7.076,2.2l30.693,42.794,11.628,49.519H871.69l-10.944-33.478-17.784-23.713Z" transform="translate(-374.743 -147.975)" fill="#3073ce"/>
  <path id="Path_491" data-name="Path 491" d="M501.666,378.011l-5.472,1.4-16.416,14.646,5.472-33.478-13.68-2.79-10.6,56.145,7.523,7.671,42.75-17.785Z" transform="translate(-99.11 -71.399)" fill="#3073ce"/>
  <path id="Path_492" data-name="Path 492" d="M774.193,407.12s-7.416-11.105-11.661-7.449-16.145,10.829-18.653,5.152,7.13-16.078,14.4-18.564,20.044-5.791,24.05,5.173a48.832,48.832,0,0,1,2.35,21.711Z" transform="translate(-354.529 -139.974)" fill="#674739"/>
  <path id="Path_532" data-name="Path 532" d="M1.967-.012c1.086-.007,1.957,1.6,1.945,3.581s-.9,3.6-1.989,3.606S-.035,5.579-.022,3.594.881-.006,1.967-.012Z" transform="translate(416.157 263.195) rotate(-19.977)" fill="#ffb8b8"/>
  <path id="Path_493" data-name="Path 493" d="M597.977,217.625h-3.139V129.941c0-28.028-22.283-50.75-49.77-50.749H362.881c-27.487,0-49.77,22.721-49.77,50.75V610.985c0,28.028,22.283,50.75,49.77,50.75H545.068c27.487,0,49.77-22.721,49.77-50.75V280.041h3.139Z" transform="translate(-261.999 -79.191)" fill="#3f3d56"/>
  <path id="Path_494" data-name="Path 494" d="M550.837,95.686H527.056a18.309,18.309,0,0,1-1.694,16.844,17.569,17.569,0,0,1-14.655,7.962H406.334a17.568,17.568,0,0,1-14.654-7.961,18.309,18.309,0,0,1-1.7-16.845H367.773c-20.527,0-37.168,16.968-37.168,37.9V613.924c0,20.931,16.641,37.9,37.168,37.9H550.837c20.527,0,37.168-16.968,37.168-37.9V133.586C588.005,112.654,571.365,95.686,550.837,95.686Z" transform="translate(-265.761 -82.483)" fill="#fff"/>
  <rect id="Rectangle_342" data-name="Rectangle 342" width="64.888" height="6.144" transform="translate(154.108 142.242)" fill="#50a757"/>
  <rect id="Rectangle_343" data-name="Rectangle 343" width="113.094" height="6.144" transform="translate(154.108 163.497)" fill="#e6e6e6"/>
  <rect id="Rectangle_344" data-name="Rectangle 344" width="112.983" height="6.144" transform="translate(154.108 184.752)" fill="#e6e6e6"/>
  <rect id="Rectangle_345" data-name="Rectangle 345" width="48.206" height="49.154" transform="translate(92.455 142.333)" fill="#50a757"/>
  <rect id="Rectangle_346" data-name="Rectangle 346" width="64.888" height="6.144" transform="translate(154.108 271.272)" fill="#50a757"/>
  <rect id="Rectangle_347" data-name="Rectangle 347" width="113.094" height="6.144" transform="translate(154.108 292.527)" fill="#e6e6e6"/>
  <rect id="Rectangle_348" data-name="Rectangle 348" width="112.983" height="6.144" transform="translate(154.108 313.782)" fill="#e6e6e6"/>
  <rect id="Rectangle_349" data-name="Rectangle 349" width="48.206" height="49.154" transform="translate(92.455 271.363)" fill="#50a757"/>
  <rect id="Rectangle_350" data-name="Rectangle 350" width="64.888" height="6.144" transform="translate(154.108 400.303)" fill="#50a757"/>
  <rect id="Rectangle_351" data-name="Rectangle 351" width="113.094" height="6.144" transform="translate(154.108 421.558)" fill="#e6e6e6"/>
  <rect id="Rectangle_352" data-name="Rectangle 352" width="112.983" height="6.144" transform="translate(154.108 442.813)" fill="#e6e6e6"/>
  <rect id="Rectangle_353" data-name="Rectangle 353" width="48.206" height="49.154" transform="translate(92.455 400.394)" fill="#50a757"/>
</svg>
