<svg id="quarantinder" xmlns="http://www.w3.org/2000/svg" width="865.135" height="739.087" viewBox="0 0 865.135 739.087">
  <path id="Path_809" data-name="Path 809" d="M781.316,253.4h-4V143.858a63.4,63.4,0,0,0-63.4-63.4H481.829a63.4,63.4,0,0,0-63.4,63.4V744.833a63.4,63.4,0,0,0,63.4,63.4H713.915a63.4,63.4,0,0,0,63.4-63.4V331.38h4Z" transform="translate(-167.432 -80.456)" fill="#3f3d56"/>
  <path id="Path_810" data-name="Path 810" d="M716.473,96.951H686.178a22.495,22.495,0,0,1-20.827,30.991H532.392a22.495,22.495,0,0,1-20.827-30.991h-28.3A47.348,47.348,0,0,0,435.921,144.3V744.392a47.348,47.348,0,0,0,47.348,47.348h233.2a47.348,47.348,0,0,0,47.348-47.348h0V144.3a47.348,47.348,0,0,0-47.348-47.348Z" transform="translate(-167.432 -80.456)" fill="#fff"/>
  <path id="Path_811" data-name="Path 811" d="M1004.15,389.492c-4.9,14.513-12.418,27.736-27.736,27.736s-26.873-12.442-27.736-27.736c-1.1-19.543,12.065-27.817,27.736-27.736C994.927,361.851,1009.967,372.268,1004.15,389.492Z" transform="translate(-167.432 -80.456)" fill="#2f2e41"/>
  <rect id="Rectangle_410" data-name="Rectangle 410" width="54.743" height="69.341" transform="translate(781.245 308.412)" fill="#2f2e41"/>
  <path id="Path_812" data-name="Path 812" d="M1005.028,440.527h4.656a41.451,41.451,0,0,1,6.208,34.146c-5.174,19.66-1.035,23.281-1.035,23.281s6.735,21.29-.508,53.366,6.716,40.793,6.716,40.793l-12.934-25.868-7.243-68.291Z" transform="translate(-167.432 -80.456)" fill="#e6e6e6"/>
  <path id="Path_813" data-name="Path 813" d="M988.731,415.436s-4.139,16.555-2.069,16.555,9.312,8.8,9.312,8.8l4.656,17.073-3.622,12.417-12.417-2.587-15.521-17.073-4.656-4.656-4.139-15s5.174-6.208,1.552-11.382S988.731,415.436,988.731,415.436Z" transform="translate(-167.432 -80.456)" fill="#fbbebe"/>
  <path id="Path_814" data-name="Path 814" d="M863.53,461.48l-11.382-18.625s-12.286-27.184-21.081-17.354,13.321,29.771,13.321,29.771l11.382,15Z" transform="translate(-167.432 -80.456)" fill="#fbbebe"/>
  <path id="Path_815" data-name="Path 815" d="M1014.6,623.414l-8.278,60.531s1.035,4.656-9.312,21.729S958.724,760,958.724,760l-8.278-15.521s9.83-49.149,26.9-59.5l-2.069-74.5Z" transform="translate(-167.432 -80.456)" fill="#fbbebe"/>
  <path id="Path_816" data-name="Path 816" d="M950.446,738.268,961.828,760s-9.312,13.074-5.691,15.661,8.278,25.868-1.552,23.281-17.59-12.934-17.59-14.486,5.691-9.97,2.587-15.144-5.174-6.726-5.174-6.726l-6.194,8.236-2.587-1.552,11.368-17.031s1.552-4.139,7.76-6.726Z" transform="translate(-167.432 -80.456)" fill="#2f2e41"/>
  <path id="Path_817" data-name="Path 817" d="M975.4,614.826s4.018,57.22-4.777,72.223v74.5l-11.9,1.552s-24.03-39.442-15.235-78.244-9.081-74.377-9.081-74.377Z" transform="translate(-167.432 -80.456)" fill="#fbbebe"/>
  <circle id="Ellipse_175" data-name="Ellipse 175" cx="21.729" cy="21.729" r="21.729" transform="translate(783.273 304.196)" fill="#fbbebe"/>
  <path id="Path_818" data-name="Path 818" d="M994.422,463.55l-21.729-27.42-12.417-8.278-5.174,6.726-14.486,4.139s-9.312,2.069-19.142,13.451-27.42,18.108-27.42,18.108S862.5,459.928,862.5,457.859s-15,13.969-11.382,20.177S872,503.212,897.346,499.59s34.992-7.068,34.992-7.068,4.656,23.8,18.108,28.455,57.427,7.76,57.427,7.76l9.313-31.042s10.347-13.451-3.622-33.111c0,0-.268-11-1.77-18.312-.584-2.846-1.355-5.135-2.369-6-3.622-3.1-22.764-8.278-22.764-8.278s3.1,10.347,4.656,10.865S996.491,460.963,994.422,463.55Z" transform="translate(-167.432 -80.456)" fill="#e6e6e6"/>
  <path id="Path_819" data-name="Path 819" d="M927.969,678.273c26.054-1.811,41.223,2.457,47.99,5.712,1.258.569,5.951,1.763,5.951,1.96,0,1.552,34.046,5.453,46.98,2.349s-11.963-129.808-17.654-135.5-2.623-26.52-2.623-26.52-52.217-7.108-56.873-8.143c-2.08-.46-3.13.316-3.653,1.319a8.946,8.946,0,0,1-3.539,3.575c-10.984,6.327-19.8,50.075-26.437,74.262C910.868,623.673,927.969,678.273,927.969,678.273Z" transform="translate(-167.432 -80.456)" fill="#2f2e41"/>
  <path id="Path_820" data-name="Path 820" d="M972.693,756.893s6.086,22.229,9.83,39.837c0,0,2.587,6.111,11.9,10.767s-1.58,12.389-10.375,11.871-17.073.517-18.108-2.069-4.111-13.843-4.111-13.843l-1.7,15.571-5.174.517,1.7-20.228s-4.139-7.76,1.552-20.694l-1.436-19.853S971.141,762.066,972.693,756.893Z" transform="translate(-167.432 -80.456)" fill="#2f2e41"/>
  <path id="Path_821" data-name="Path 821" d="M972.827,623.693a17.15,17.15,0,0,1,3.528,2.142c.274-4.889,1.857-34.456-.041-33.98Z" transform="translate(-167.432 -80.456)" opacity="0.1" style="isolation: isolate"/>
  <path id="Path_822" data-name="Path 822" d="M963.439,376.46s-.241-1.34-9.652,2.19-15.053,29.574-10.347,44.868c1.9,6.163.354,10.607-2.164,13.716-9.449,11.668-5.729,29.192,8.034,35.192q.583.254,1.189.5l5.882,3.529s-7.5-9.866-3.746-22.488a64.709,64.709,0,0,0,1.168-33.127c-.431-1.848-.92-3.753-1.475-5.7-4.706-16.47-2.417-14.568,14.053-31.038,0,0,9.411,7.059,17.647,10.588s15.294,7.059,9.411,18.823-20,22.352-10.588,37.646,10.588,9.411,9.411,15.294h0l-1.176,5.882,7.059-7.059-4.706,9.411s15.294,0,20-11.764l2.353,2.353s9.411-16.47-8.235-31.764c0,0-5.882-3.529,2.353-15.294s1.91-37.058-8.677-41.764S963.439,376.46,963.439,376.46Z" transform="translate(-167.432 -80.456)" fill="#2f2e41"/>
  <rect id="Rectangle_411" data-name="Rectangle 411" width="22.392" height="17.416" transform="translate(63.287 347.637) rotate(-87.779)" fill="#6c63ff"/>
  <path id="Path_823" data-name="Path 823" d="M310.09,484.08s24.1-11.515,23.714-1.57S309.512,499,309.512,499Z" transform="translate(-167.432 -80.456)" fill="#a0616a"/>
  <path id="Path_824" data-name="Path 824" d="M296.868,568.222s11.37,27.829,15.571,47.911,10.6,47.718,2.369,67.317-31.627,77.2-31.868,83.419,2,12.527-2.968,12.334-32.03-8.712-33.128-12.489,9.232-13.336,9.232-13.336l25.508-79.93-26.614-52.074-19.2,77.685-3.76,96.958s-18.453-5.7-21.132-.819c0,0-8.268-11.525-9.318-16.545s3.9-100.687,3.9-100.687S188.53,569,202.2,569.53,269.435,537.28,296.868,568.222Z" transform="translate(-167.432 -80.456)" fill="#2f2e41"/>
  <path id="Path_825" data-name="Path 825" d="M280.165,774.23s12.613,27.877,13.808,29.169,9.414,14.059,3.2,13.818-20.891-7.035-31.693-17.413-25.044-28.359-23.752-29.554,10.137-4.587,10.137-4.587Z" transform="translate(-167.432 -80.456)" fill="#2f2e41"/>
  <path id="Path_826" data-name="Path 826" d="M229.768,789.7s.761,12.479,3.054,17.547,2,12.527-4.211,12.286-22.278-.222-22.278-.222-.954-7.507.337-8.7,6.794-17.808,4.452-21.633S229.768,789.7,229.768,789.7Z" transform="translate(-167.432 -80.456)" fill="#2f2e41"/>
  <path id="Path_827" data-name="Path 827" d="M220.573,384.75s-13.25,20.65-18.415,25.429,9.366,15.3,9.366,15.3l26.008,3.5s-.327-23.666,1.012-26.1S220.573,384.75,220.573,384.75Z" transform="translate(-167.432 -80.456)" fill="#a0616a"/>
  <path id="Path_828" data-name="Path 828" d="M243.179,411.77s-5.358,9.752-10.33,9.559S202.158,410.179,201.06,406.4s-8.519,27.058-8.519,27.058l62.931,110.748,15.35-10.609-7.438-65.024-6.109-35.095Z" transform="translate(-167.432 -80.456)" fill="#fff"/>
  <path id="Path_829" data-name="Path 829" d="M198.738,510.885a34.825,34.825,0,0,1,3.861,16.334c-.01.249-.019.5-.041.745-.6,11.5-4.834,24.811-6.354,34.487-1.1,6.941-.789,12.008,3.273,13.2,9.848,2.872-1.436,4.924,36.665,17.606s44.75,1.735,44.846-.751-5.4-21.373-4.1-22.568,18.067,15.64,23.136,13.346.578-14.917.578-14.917-11.418-26.586-11.177-32.8-17.3-35.528-17.3-35.528L260.2,422.389s-4.587-10.137-10.754-11.621a15.277,15.277,0,0,0-11.284,2.052l10.32,22.809,10.888,40.26-1.822,14.868s-12.661-26.634-20.977-36.916-26.045-34.623-26.045-34.623-4.139-13.967-1.015-18.141-13.034-4.813-19.924,12.349c-3.652,9.1-9.581,22.659-13.295,35.288-3.31,11.188-4.873,21.647-1.594,27.625C179.706,485.473,192.312,497.477,198.738,510.885Z" transform="translate(-167.432 -80.456)" fill="#3f3d56"/>
  <path id="Path_830" data-name="Path 830" d="M174.694,476.34c5.011,9.133,17.618,21.137,24.044,34.545,1.679-6.047,3.726-12.3,3.726-12.3s7.854-42.023-15.378-52.883a15.549,15.549,0,0,0-10.8,3.017C172.979,459.9,171.415,470.362,174.694,476.34Z" transform="translate(-167.432 -80.456)" opacity="0.1" style="isolation: isolate"/>
  <path id="Path_831" data-name="Path 831" d="M266.921,473.692l19.7,5.743,27.347,1.06,2.813,23.762-44.943,3.237S260.609,475.937,266.921,473.692Z" transform="translate(-167.432 -80.456)" fill="#3f3d56"/>
  <path id="Path_832" data-name="Path 832" d="M234.8,553.589s26.349,4.372,20.335,12.3-29.356-.407-29.356-.407Z" transform="translate(-167.432 -80.456)" fill="#a0616a"/>
  <path id="Path_833" data-name="Path 833" d="M202.558,527.964c-.6,11.5-4.834,24.81-6.354,34.487,8.394,7.944,16.376,14.952,19.384,15.068,6.215.241,16.208-.616,19.889.771s5.84-22.182,5.84-22.182-2.2-7.555-12-11.669C222.7,541.655,210.026,534.1,202.558,527.964Z" transform="translate(-167.432 -80.456)" opacity="0.1" style="isolation: isolate"/>
  <path id="Path_834" data-name="Path 834" d="M187.376,438.239s-21.035-3.306-19.9,31.6-2.217,57.18,6.243,63.733,35.942,36.251,42.157,36.492,16.208-.616,19.889.771,5.84-22.182,5.84-22.182-2.2-7.555-12-11.669-32.887-18.7-32.695-23.676,5.84-22.182,5.84-22.182S210.608,449.1,187.376,438.239Z" transform="translate(-167.432 -80.456)" fill="#3f3d56"/>
  <circle id="Ellipse_176" data-name="Ellipse 176" cx="27.368" cy="27.368" r="27.368" transform="translate(44.322 280.135)" fill="#a0616a"/>
  <path id="Path_835" data-name="Path 835" d="M257.55,348.734a5.284,5.284,0,0,0,2.3,1.155,1.642,1.642,0,0,0,1.9-1.318,6.823,6.823,0,0,0,2.611,3.349c1.278.666,3.255.108,3.439-1.322a6.034,6.034,0,0,0,1.389,2.931,2.08,2.08,0,0,0,2.924.1c-.56,3.06-.214,6.206-.39,9.311s-1,6.4-3.35,8.439c-3.422,2.978-8.567,2.243-13.068,1.679a3.967,3.967,0,0,0-2.048.112c-1.685.718-1.609,3.064-1.632,4.9a13.6,13.6,0,0,1-11.911,12.918,6.819,6.819,0,0,1-5.068-1.237c-1.278-1.083-1.931-2.849-3.4-3.662-2.382-1.324-5.271.607-7.012,2.7s-3.458,4.674-6.156,5.058c-3.568.507-6.286-3.129-7.619-6.477a37.759,37.759,0,0,1,.75-29.339C218.669,341.786,244.119,339.217,257.55,348.734Z" transform="translate(-167.432 -80.456)" fill="#2f2e41"/>
  <path id="Path_836" data-name="Path 836" d="M337.212,468.93c8.963-10.095,23.985-9.341,35.584-4.815,14.354,5.6,24.74,18.059,36.33,27.676a78.976,78.976,0,0,0,19.861,12.47,70.361,70.361,0,0,0,22.579,5.246,68.157,68.157,0,0,0,42.69-11.5,70.762,70.762,0,0,0,26.038-32.672c.627-1.618,1.184-3.262,1.683-4.924.556-1.853-2.338-2.645-2.893-.8a67.035,67.035,0,0,1-23.626,33.851,65.37,65.37,0,0,1-41.646,13.151,67.892,67.892,0,0,1-22.513-4.634,73.564,73.564,0,0,1-19.889-12.18c-11.637-9.628-21.983-21.872-36.151-27.9-11.489-4.887-26.307-6.376-36.76,1.718a25.055,25.055,0,0,0-3.407,3.187c-1.278,1.439.836,3.569,2.121,2.121Z" transform="translate(-167.432 -80.456)" fill="#2f2e41"/>
  <path id="Path_837" data-name="Path 837" d="M822.829,415.246c-1.88-12.451-12.828-20.617-24.152-24.24-15.026-4.807-30.626-1.165-45.756,1.153-8.146,1.248-16.406,2.071-24.63,1.125a66.01,66.01,0,0,1-57.174-78.768c.373-1.846.831-3.672,1.359-5.479a1.5,1.5,0,0,0-2.893-.8,70.111,70.111,0,0,0,1.831,44.159,68.23,68.23,0,0,0,27.3,33.4,70.468,70.468,0,0,0,42.459,10.721c8.685-.572,17.231-2.317,25.826-3.591,7.635-1.132,15.564-2.02,23.248-.829,11.452,1.775,24.514,7.846,28.615,19.555a24.145,24.145,0,0,1,1.071,4.385c.287,1.9,3.179,1.094,2.893-.8Z" transform="translate(-167.432 -80.456)" fill="#2f2e41"/>
  <path id="Path_838" data-name="Path 838" d="M599.871,610.086A33,33,0,1,0,553.2,656.752l46.667,46.667,46.667-46.667a33,33,0,1,0-46.667-46.667Z" transform="translate(-167.432 -80.456)" fill="#3d7df5"/>
  <rect id="Rectangle_412" data-name="Rectangle 412" width="287.492" height="56.761" transform="translate(395.589 151.462)" fill="#e6e6e6"/>
  <path id="Path_839" data-name="Path 839" d="M569.15,282.551H844.385v-44.5H569.15Z" transform="translate(-167.432 -80.456)" fill="#fff"/>
  <circle id="Ellipse_177" data-name="Ellipse 177" cx="16.955" cy="16.955" r="16.955" transform="translate(408.857 162.52)" fill="#3d61f5"/>
  <rect id="Rectangle_413" data-name="Rectangle 413" width="167.335" height="3.686" transform="translate(466.356 172.84)" fill="#e6e6e6"/>
  <rect id="Rectangle_414" data-name="Rectangle 414" width="167.335" height="3.686" transform="translate(466.356 182.423)" fill="#e6e6e6"/>
  <rect id="Rectangle_415" data-name="Rectangle 415" width="287.492" height="56.761" transform="translate(213.589 299.462)" fill="#e6e6e6"/>
  <path id="Path_840" data-name="Path 840" d="M387.15,430.551H662.385v-44.5H387.15Z" transform="translate(-167.432 -80.456)" fill="#fff"/>
  <circle id="Ellipse_178" data-name="Ellipse 178" cx="16.955" cy="16.955" r="16.955" transform="translate(226.857 310.52)" fill="#3d61f5"/>
  <rect id="Rectangle_416" data-name="Rectangle 416" width="167.335" height="3.686" transform="translate(284.356 320.84)" fill="#e6e6e6"/>
  <rect id="Rectangle_417" data-name="Rectangle 417" width="167.335" height="3.686" transform="translate(284.356 330.423)" fill="#e6e6e6"/>
</svg>
