<svg xmlns="http://www.w3.org/2000/svg" width="765.841" height="511.802" viewBox="0 0 765.841 511.802">
  <g id="undraw_professor_8lrt" transform="translate(0 -136.947)">
    <rect id="Rectangle_354" data-name="Rectangle 354" width="667.939" height="296.721" transform="translate(97.902 136.947)" fill="#3f3d56"/>
    <rect id="Rectangle_355" data-name="Rectangle 355" width="645.9" height="269.37" transform="translate(108.922 147.721)" fill="#fff"/>
    <rect id="Rectangle_356" data-name="Rectangle 356" width="62.725" height="20.721" transform="translate(626.405 404.244)" fill="#3f3d56"/>
    <rect id="Rectangle_357" data-name="Rectangle 357" width="45.772" height="5.802" transform="translate(577.242 419.992)" fill="#50a757"/>
    <path id="Path_497" data-name="Path 497" d="M190.5,283.372H437.163L475.4,301.589l60.932,29.026,39.839-72.937H688.911" transform="translate(-29.025 -33.704)" fill="none" stroke="#3f3d56" stroke-miterlimit="10" stroke-width="2"/>
    <path id="Path_498" data-name="Path 498" d="M304.925,288.678l18.288,42.27h44.925" transform="translate(-46.459 -39.01)" fill="none" stroke="#3f3d56" stroke-miterlimit="10" stroke-width="2"/>
    <path id="Path_499" data-name="Path 499" d="M385.807,281.831l62.465-33.153h44.077" transform="translate(-58.782 -32.164)" fill="none" stroke="#3f3d56" stroke-miterlimit="10" stroke-width="2"/>
    <ellipse id="Ellipse_151" data-name="Ellipse 151" cx="7.629" cy="7.459" rx="7.629" ry="7.459" transform="translate(250.477 242.208)" fill="#50a757"/>
    <ellipse id="Ellipse_152" data-name="Ellipse 152" cx="7.629" cy="7.459" rx="7.629" ry="7.459" transform="translate(321.679 242.208)" fill="#50a757"/>
    <path id="Path_500" data-name="Path 500" d="M526.5,310.678l5.086,73.766h44.077" transform="translate(-80.218 -42.776)" fill="none" stroke="#3f3d56" stroke-miterlimit="10" stroke-width="2"/>
    <path id="Path_501" data-name="Path 501" d="M617.943,285.389,569.5,248.678h45.772" transform="translate(-86.77 -32.164)" fill="none" stroke="#3f3d56" stroke-miterlimit="10" stroke-width="2"/>
    <path id="Path_502" data-name="Path 502" d="M721.051,257.678l47,36.469h44.077" transform="translate(-109.861 -33.704)" fill="none" stroke="#3f3d56" stroke-miterlimit="10" stroke-width="2"/>
    <ellipse id="Ellipse_153" data-name="Ellipse 153" cx="7.629" cy="7.459" rx="7.629" ry="7.459" transform="translate(438.653 260.442)" fill="#50a757"/>
    <ellipse id="Ellipse_154" data-name="Ellipse 154" cx="7.629" cy="7.459" rx="7.629" ry="7.459" transform="translate(603.095 216.514)" fill="#50a757"/>
    <ellipse id="Ellipse_155" data-name="Ellipse 155" cx="7.629" cy="7.459" rx="7.629" ry="7.459" transform="translate(523.417 245.523)" fill="#50a757"/>
    <line id="Line_7" data-name="Line 7" x2="44.077" transform="translate(277.602 298.568)" fill="none" stroke="#3f3d56" stroke-miterlimit="10" stroke-width="2"/>
    <path id="Path_503" data-name="Path 503" d="M615.93,322.589Z" transform="translate(-182.363 -98.615)" fill="none" stroke="#3f3d56" stroke-miterlimit="10" stroke-width="2"/>
    <path id="Path_504" data-name="Path 504" d="M727.93,321.589Z" transform="translate(-199.428 -98.444)" fill="none" stroke="#3f3d56" stroke-miterlimit="10" stroke-width="2"/>
    <path id="Path_505" data-name="Path 505" d="M727.93,329.589Z" transform="translate(-199.428 -99.813)" fill="none" stroke="#3f3d56" stroke-miterlimit="10" stroke-width="2"/>
    <path id="Path_506" data-name="Path 506" d="M932.93,374.589Z" transform="translate(-230.662 -107.516)" fill="none" stroke="#3f3d56" stroke-miterlimit="10" stroke-width="2"/>
    <path id="Path_507" data-name="Path 507" d="M913.93,382.589Z" transform="translate(-227.767 -108.885)" fill="none" stroke="#3f3d56" stroke-miterlimit="10" stroke-width="2"/>
    <path id="Path_508" data-name="Path 508" d="M688.93,472.589Z" transform="translate(-193.485 -124.291)" fill="none" stroke="#3f3d56" stroke-miterlimit="10" stroke-width="2"/>
    <ellipse id="Ellipse_157" data-name="Ellipse 157" cx="128.841" cy="23.207" rx="128.841" ry="23.207" transform="translate(0 602.335)" fill="#f2f2f2"/>
    <path id="Path_509" data-name="Path 509" d="M252.257,493.658,229.272,505l1.488,2.9,22.985-11.339Z" transform="translate(-34.932 -74.097)" fill="#50a757"/>
    <path id="Path_510" data-name="Path 510" d="M353.348,532.914l-1.033,6.058s1.549,41.9-9.81,28.777-3.614-30.8-3.614-30.8l3.1-5.049Z" transform="translate(-139.76 -134.444)" fill="#fbbebe"/>
    <path id="Path_511" data-name="Path 511" d="M277.878,299.221s-2.065,21.2-3.1,22.214,15.489,20.194,15.489,20.194L304.726,328.5s-1.033-19.184,2.065-23.223S277.878,299.221,277.878,299.221Z" transform="translate(-130.378 -94.615)" fill="#fbbebe"/>
    <path id="Path_512" data-name="Path 512" d="M277.878,299.221s-2.065,21.2-3.1,22.214,15.489,20.194,15.489,20.194L304.726,328.5s-1.033-19.184,2.065-23.223S277.878,299.221,277.878,299.221Z" transform="translate(-130.378 -94.615)" opacity="0.1"/>
    <path id="Path_513" data-name="Path 513" d="M125.784,700.268v18.175l-7.229,1.01-10.326-3.029,3.1-19.185Z" transform="translate(-16.49 -108.944)" fill="#3f3d56"/>
    <path id="Path_514" data-name="Path 514" d="M216.664,775.292s-3.1-8.078-8.261-7.068-6.2,7.068-6.2,7.068-4.13,15.146-10.326,20.194-12.391,18.175,0,20.194,22.718-3.029,22.718-4.039,3.1-7.068,8.261-8.078,9.294-2.019,9.294-6.058-3.1-8.078-3.1-8.078-1.033-19.153-3.1-16.644a19.884,19.884,0,0,0-3.1,6.547Z" transform="translate(-116.664 -174.88)" fill="#2f2e41"/>
    <path id="Path_515" data-name="Path 515" d="M180.581,689.721l-4.131,15.145,10.326,2.02,5.163-5.048,1.032-13.126Z" transform="translate(-26.884 -107.484)" fill="#3f3d56"/>
    <path id="Path_516" data-name="Path 516" d="M282.864,768.593s4.13-3.029,6.2-3.029h3.1s0-7.068,5.163-7.068,4.13,5.049,4.13,5.049,11.359,17.165,14.457,20.194,19.62,12.117,6.2,16.155-22.718,4.039-28.913-3.029c0,0-6.2-3.029-10.326-3.029s-9.294-2.019-9.294-5.049,3.1-9.087,3.1-9.087,2.065-18.175,3.1-16.155S282.864,768.593,282.864,768.593Z" transform="translate(-130.201 -173.229)" fill="#2f2e41"/>
    <path id="Path_517" data-name="Path 517" d="M228.041,474.647v33.32s-11.359,64.621-11.359,85.825-17.555,122.175-9.294,124.194,27.881,5.049,28.913,2.019,8.261-98.951,9.294-99.961,22.718-80.777,22.718-80.777l4.13,1.01,2.065,90.874s-10.326,81.786-5.163,81.786,26.848-1.01,26.848-7.068,11.359-118.136,11.359-118.136,13.424-88.854,8.261-97.942-5.163-14.136-5.163-14.136Z" transform="translate(-119.78 -124.643)" fill="#2f2e41"/>
    <ellipse id="Ellipse_158" data-name="Ellipse 158" cx="20.652" cy="20.194" rx="20.652" ry="20.194" transform="translate(143.886 179.868)" fill="#fbbebe"/>
    <path id="Path_518" data-name="Path 518" d="M280.44,332.745s-12.908-10.6-13.94-14.641c0,0-6.712,6.563-6.712,7.573s-28.913,4.039-36.142,12.117-13.424,25.243-13.424,25.243l17.555,32.311s1.033,18.175,1.033,20.194-5.163,34.33-3.1,35.34,22.718,11.107,40.272,9.087,35.109-5.049,40.272-5.049,9.294,2.019,9.294,0-3.1-6.058-3.1-8.078-1.033-7.068-1.033-10.1-2.065-8.078-2.065-12.117,22.718-58.563,22.718-58.563-1.033-17.165-17.555-25.243-18.587-11.107-18.587-11.107-.322-6.058-1.194-6.058-3.97,9.087-12.23,10.1Z" transform="translate(-120.549 -97.847)" fill="#3073ce"/>
    <path id="Path_519" data-name="Path 519" d="M122.847,431.215l7.229,11.106,18.587-4.039-13.424-15.145Z" transform="translate(-18.717 -62.026)" fill="#fbbebe"/>
    <path id="Path_520" data-name="Path 520" d="M342.581,366.224l6.2,8.078s12.391,58.563,10.326,79.767-4.13,37.359-4.13,37.359,4.13,15.146,1.033,15.146-21.685,1.01-21.685-2.019,2.065-22.214,2.065-22.214l-5.163-44.427-11.359-15.146Z" transform="translate(-137.254 -106.084)" fill="#3073ce"/>
    <path id="Path_521" data-name="Path 521" d="M278.97,275.659c1.266-.525,2.729-.1,4.085-.323,1.592-.263,3.017-1.416,4.624-1.271a9.031,9.031,0,0,1,2.2.7,2.934,2.934,0,0,0,2.255.079,1.26,1.26,0,0,0,.7-.827,1.231,1.231,0,0,0-.212-1.055,6.447,6.447,0,0,0,3.668-1.544,2.734,2.734,0,0,1,.7-.514,2.329,2.329,0,0,1,1.8.274l2.363,1.065a2.987,2.987,0,0,1,1.35.944c.281.429.336,1,.734,1.333.508.419,1.267.214,1.93.255a2.437,2.437,0,0,1,2.229,2.354c-.009.678-.262,1.51.287,1.925.318.241.77.2,1.142.35.966.383.97,1.7.827,2.708s-.072,2.342.921,2.652c.7.219,1.413-.248,2.14-.352a5.354,5.354,0,0,1,3.085,1.026c.975.513,2.271.858,3.116.159a2.822,2.822,0,0,0,.52-2.826,15.353,15.353,0,0,0-1.515-4.05,2.533,2.533,0,0,1-.439-1.261,2.283,2.283,0,0,1,1.083-1.542c1.2-.924,2.57-1.854,2.956-3.294a13.761,13.761,0,0,0-.011-3.265c.03-1.33.571-2.654.317-3.961-.46-2.369-3.156-3.509-4.9-5.217-2.392-2.347-3.168-6.1-5.991-7.934-2.258-1.467-5.212-1.291-7.783-2.131-2.825-.922-5.1-3.039-7.885-4.067a11.208,11.208,0,0,0-9.34.8,9.429,9.429,0,0,1-2.746,1.372,10.1,10.1,0,0,1-2.5-.028,9.833,9.833,0,0,0-4.767.962,2.647,2.647,0,0,0-1.335,1.145c-.5,1.083.226,2.777-.868,3.295-.51.242-1.112.01-1.678.022a3.2,3.2,0,0,0-2.473,1.908,9.115,9.115,0,0,1-1.733,2.727c-1.346,1.153-3.792,1.343-4.144,3.059a16.309,16.309,0,0,0,.126,2.173c-.1,1.521-1.766,2.676-1.679,4.2.1,1.755,2.38,2.612,2.99,4.266.464,1.259-.147,2.62-.567,3.894s-.547,2.906.538,3.721c.426.32.973.451,1.407.759,1.123.8,1.109,2.411.984,3.763a1.741,1.741,0,0,0,.408,1.611,1.555,1.555,0,0,0,1.248.147,5.084,5.084,0,0,0,3.224-2.372c.362-.585.434-1.1,1.091-1.41.446-.211.987-.023,1.441-.3C277.063,280.464,276.32,276.757,278.97,275.659Z" transform="translate(-128.458 -85.4)" fill="#674739"/>
    <path id="Path_522" data-name="Path 522" d="M210.865,368.661l-3.1,3.029s-18.587,54.524-12.391,66.641,18.587,42.408,22.718,41.4,18.587-10.1,18.587-11.107-17.555-29.282-17.555-29.282-2.065-6.058-1.033-7.068,1.033,0,0-2.019-1.033,0,1.033-2.019,2.065-2.019,2.065-3.029,6.2-26.252,6.2-26.252Z" transform="translate(-118.094 -106.501)" fill="#3073ce"/>
    <path id="Path_523" data-name="Path 523" d="M128.329,445.432l22.718-7.067,3.1,7.067-24.782,5.048Z" transform="translate(-19.552 -64.632)" fill="#2f2e41"/>
    <path id="Path_524" data-name="Path 524" d="M128.329,445.432l22.718-7.067,3.1,7.067-24.782,5.048Z" transform="translate(-19.552 -64.632)" opacity="0.1"/>
    <path id="Path_525" data-name="Path 525" d="M164.876,262.939l17.555,14.136,2.066-3.029Z" transform="translate(-25.121 -34.605)" opacity="0.1"/>
    <path id="Path_526" data-name="Path 526" d="M204.069,267.812l-12.391,7.067,1.032,3.029Z" transform="translate(-29.204 -35.439)" opacity="0.1"/>
  </g>
</svg>
