<svg xmlns="http://www.w3.org/2000/svg" width="938" height="604.5" viewBox="0 0 938 604.5">
  <g id="Group_85" data-name="Group 85" transform="translate(-20175.18 -1141)">
    <path id="Path_841" data-name="Path 841" d="M811.584,714.656l-4.874-60.576-13.925,64.057s.184,16.161.645,33.863h17.84C811.872,731.764,811.584,714.656,811.584,714.656Z" transform="translate(20044.18 993)" fill="#f2f2f2"/>
    <path id="Path_842" data-name="Path 842" d="M560.99,736.2a123.332,123.332,0,0,1-2.9-17.221l-1.949-20.955c-.82-5.739-1.662-10.8-2.509-15.259-6.208-31.823-12.616-32.973-12.616-32.973-.275.211-.543.444-.818.685a20.646,20.646,0,0,0-2.1,2.214c-10.207,12.972-17.131,46.618-20.768,68.938-2.009,12.329-3.01,21.2-3.01,21.2s.91,3.779,2.15,9.17h46.575A82.808,82.808,0,0,0,560.99,736.2Z" transform="translate(20044.18 993)" fill="#f2f2f2"/>
    <g id="Group_84" data-name="Group 84">
      <path id="Path_843" data-name="Path 843" d="M927.22,154,272.78,148C194.8,148,131,211.8,131,289.78V610.22C131,688.2,194.8,752,272.78,752H480.2l-2.677-12.6s-6.885-44.427,0-79.065a260.041,260.041,0,0,0,4.567-32.929,198.378,198.378,0,0,1,6.1-36.972c.182-.7.386-1.391.576-2.088-1.679-.457-2.45-.822-2.061-1.052,1.076-.635,1.667-2.581,1.962-5.05A241.717,241.717,0,0,1,499.1,534.147c-6.957,4.367-11.576,4.831-14.6,3.139-10.625-2.9-6.214-26.8-6.214-26.8s6.6-51.69,8.8-70.406c1.261-10.758,17.419-16.854,31.723-20.164,1.507-3.233,2.593-6.49,1.9-9.908-.046-.23-.113-.453-.174-.677-1.819-4.04-5.516-7.363-6.9-11.546a12.181,12.181,0,0,1-1.283-3.6c-1.229-7.172,5.478-13.368,7.411-20.265a16.7,16.7,0,0,1-4.288-6.876c-2.947-6.043-1.51-13.3,7.952-18.9,1.889-1.118,3.891-2.105,5.924-3.052a9.213,9.213,0,0,1,2.405-1.1c6.77-3.062,13.575-6.026,17.627-11.988,1.043-1.536,1.959-3.317,3.647-4.124a7.035,7.035,0,0,1,2.511-.562c13.045-1,24.858,10.185,37.841,8.582,3.933-.486,7.948-2.139,11.723-.949,2.481.782,4.417,2.688,6.084,4.658a48.006,48.006,0,0,1,10.41,39.529c-1.646,8.553-5.649,17.368-2.765,25.6,2.12,6.046,7.794,10.954,7.835,17.35.033,5.263-3.7,9.463-7.312,13.558q.7.72,1.372,1.479c8.821,10.05,7.154,18.628,5.91,22.062v0L622.1,502.956l-3.825,29.367s-.946,12.052-9.854,14.7c-2.6,1.2-5.995,1.517-10.464.157-2.9-.883-5.343-1.764-7.417-2.622,1.96,6.26,5.334,19.04,4.786,31.444-.765,17.319,1.53,18.825,1.53,18.825a3.1,3.1,0,0,1-.487.481c9.087,20.076,9.17,40.674-.278,61.265-10.71,23.343.765,77.559.765,77.559s.817,8.457,1.184,17.872H762.333c-2.613-24.923-5.752-49.873-7.147-52.662-2.3-4.6.62-80.345,1.71-106.656-.484-.123-.957-.247-1.4-.375-.776-.223-1.475-.455-2.12-.693a15.456,15.456,0,0,0,.421,3.979c.967,2.256-1.352,3.915-5.293,5.046,2.292,11.186,5.123,32-4.455,36.034-9.853,4.149-10.05-21.052-9.509-34.187-1.243.046-2.489.07-3.72.07-11.837,0,3.481-137.166,2.785-146.217s5.57-45.954,5.57-45.954,2.089-7.659,8.355-9.052,36.206-18.8,36.206-18.8A22.361,22.361,0,0,1,790,376.6v-1.03a22.961,22.961,0,0,1,2.485-2.011c-.365-6.084-1.188-13.932-1.788-19.235a24.3,24.3,0,0,1-6.533-12.5,38.355,38.355,0,0,1-3.646-3.239,19,19,0,0,1-4.67-11.856,37.463,37.463,0,0,1,1.857-12.8,15.325,15.325,0,0,1,1.613-3.909,14.147,14.147,0,0,1,3.645-3.614c.423-.314.859-.607,1.294-.9a12.2,12.2,0,0,1,3.94-4.472c3.554-2.333,8.127-2.143,12.377-2.037.063,0,.128,0,.192,0q1.182-.19,2.373-.315a2.434,2.434,0,0,0,1.9-1.865l1.726,1.658q1.295-.019,2.588.044A18.5,18.5,0,0,1,810.7,296l.946,2.7c.866.092,1.729.208,2.588.357l2.03-1.613c.15-.119.689,1.643.961,2.247.466.12.93.247,1.391.389.719-.033,1.518-.168,1.963-.16a13.129,13.129,0,0,1,7,1.745,15.027,15.027,0,0,1,4.448,5.133,33.253,33.253,0,0,1,4.964,14.322,16.6,16.6,0,0,1,2.754,6.155c1.149,6.989-5.493,12.83-6.809,19.79-.7,3.713.1,7.825-1.792,11.1a11.59,11.59,0,0,1-3.19,3.344,24.078,24.078,0,0,1-2.357,1.552,60.511,60.511,0,0,0,1.441,12.515l.9,3.435c1.393,1,2.9,2.165,4.545,3.528,0,0,19.5,8.355,26.458,12.533,6.121,3.673,12.776,4.121,14.769,8.905l.549.146s6.963,77.286,7.659,90.515,9.052,94.693,7.659,98.174c-.516,1.288-3.8,2.767-7.764,3.943,2.314,10.574,6.049,33.572-4.073,37.833-10.261,4.321-10.05-23.193-9.438-35.756-1.369-.124-2.265-.482-2.4-1.146-.113-.566-.476-3.122-1-7.02-.867.135-1.767.274-2.724.42l-.59.089c8.828,27.768-10.723,101.412-14.484,115.827-1.965,7.533-4.084,26.157-5.995,45H927.22C1005.2,752,1069,688.2,1069,610.22V289.78C1069,211.8,1005.2,154,927.22,154Z" transform="translate(20044.18 993)" fill="#f2f2f2"/>
    </g>
    <ellipse id="Ellipse_179" data-name="Ellipse 179" cx="95" cy="86.45" rx="95" ry="86.45" transform="translate(20290.18 1225.55)" fill="#3f3d56"/>
    <path id="Path_844" data-name="Path 844" d="M497.5,599.5h0s32-22,32-32,22-75,34-46-17,70-17,70-32,58-51,68-35,4-35,4v-27l18.282-27.057A22.591,22.591,0,0,1,497.5,599.5Z" transform="translate(20044.18 995)" fill="#fbbebe"/>
    <path id="Path_845" data-name="Path 845" d="M406.544,446.336S454.5,461.5,459.5,468.5s7-5,21,41S498,600,498,600s-34.5,11.5-30.5,56.5-6,94-6,94H449.016l-27.516-85,33-129S407.587,457.173,406.544,446.336Z" transform="translate(20044.18 995)" fill="#575a89"/>
    <circle id="Ellipse_180" data-name="Ellipse 180" cx="60" cy="60" r="60" transform="translate(20374.68 1279.5)" fill="#fbbebe"/>
    <path id="Path_846" data-name="Path 846" d="M413.5,389.5s-17,56-2,64,32,44,32,44l-26,29h-60l-27-30-11-51,15-12s16-40,16-61S413.5,389.5,413.5,389.5Z" transform="translate(20044.18 995)" fill="#fbbebe"/>
    <path id="Path_847" data-name="Path 847" d="M418.5,451.5s-12-3-5,9,14,34-11,35-50-12-58-39-11-25-14-24-35,34-35,34l11,62,4,222h146s6-64-4-79,9-53,9-53,17-26,4-76S423.5,451.5,418.5,451.5Z" transform="translate(20044.18 995)" fill="#6c63ff"/>
    <path id="Path_848" data-name="Path 848" d="M337.5,432.5s-15-7-28,5-42,22-42,28,25,177,8,207-35,78-35,78h83.413s13.587-50,27.587-77,13-103,9-126S337.5,432.5,337.5,432.5Z" transform="translate(20044.18 995)" fill="#575a89"/>
    <path id="Path_849" data-name="Path 849" d="M118.5,549.5l4.87,53h54.047l-4.917-66Z" transform="translate(20175.18 1143)" fill="#fbbebe"/>
    <path id="Path_850" data-name="Path 850" d="M364.5,521.5l13,81h289l25-163Z" transform="translate(20175.18 1143)" fill="#3f3d56"/>
    <path id="Path_851" data-name="Path 851" d="M702.5,428.5l3,15-374,90v-13Z" transform="translate(20175.18 1143)" fill="#3f3d56"/>
    <path id="Path_852" data-name="Path 852" d="M544.5,455.5l-2,17,22-3-9-17Z" transform="translate(20175.18 1143)" fill="#3f3d56"/>
    <path id="Path_853" data-name="Path 853" d="M554.5,431.5s44-3,56,31,40,95,51,104,23,33,21,41" transform="translate(20044.18 995)" fill="none" stroke="#3f3d56" stroke-miterlimit="10" stroke-width="5"/>
    <path id="Path_854" data-name="Path 854" d="M561,431c0,4.694-4.992,8.5-13,8.5s-12-3.806-12-8.5,3.992-8.5,12-8.5S561,426.306,561,431Z" transform="translate(20044.18 995)" fill="#6c63ff"/>
    <path id="Path_855" data-name="Path 855" d="M487,587s7.5-31.5-6.5-77.5-16-34-21-41-52.956-22.164-52.956-22.164c.343,3.561,5.639,14.517,12.6,27.623A53.194,53.194,0,0,0,413.5,460.5c-7-12,5-9,5-9,5,0,34,41,47,91s-4,76-4,76Z" transform="translate(20044.18 995)" fill="#575a89"/>
    <path id="Path_856" data-name="Path 856" d="M407,446s5.92,22.458,10.96,25.729,34.93,34.325,34.93,34.325L449,481l-16-24-4.256-3.088Z" transform="translate(20044.18 995)" fill="#575a89"/>
    <path id="Path_857" data-name="Path 857" d="M274,515l1.394-51.5s-32.894,14-35.894,74,5,173,16,174,63-11,63-11,8-145,5-164S274,515,274,515Z" transform="translate(20044.18 995)" opacity="0.1"/>
    <path id="Path_858" data-name="Path 858" d="M276.5,463.5h-8.106s-32.894,14-35.894,74,5,173,16,174,63-11,63-11,8-145,5-164S276.5,463.5,276.5,463.5Z" transform="translate(20044.18 995)" fill="#575a89"/>
    <ellipse id="Ellipse_181" data-name="Ellipse 181" cx="62" cy="69.5" rx="62" ry="69.5" transform="translate(20301.18 1254)" fill="#3f3d56"/>
    <ellipse id="Ellipse_182" data-name="Ellipse 182" cx="12.5" cy="18.5" rx="12.5" ry="18.5" transform="translate(20395.18 1343)" fill="#fbbebe"/>
    <circle id="Ellipse_183" data-name="Ellipse 183" cx="51" cy="51" r="51" transform="translate(20250.18 1203)" fill="#3f3d56"/>
    <path id="Path_859" data-name="Path 859" d="M263.592,299.857A51,51,0,0,1,189.7,259.244a50.995,50.995,0,1,0,101.176,2.839A50.921,50.921,0,0,1,263.592,299.857Z" transform="translate(20044.18 995)" fill="#3f3d56"/>
    <path id="Path_860" data-name="Path 860" d="M229.021,267.43A51,51,0,0,1,254.7,187.118a50.994,50.994,0,1,0,16.625,99.841,50.921,50.921,0,0,1-42.307-19.529Z" transform="translate(20044.18 995)" fill="#3f3d56"/>
    <ellipse id="Ellipse_184" data-name="Ellipse 184" cx="36" cy="26" rx="36" ry="26" transform="translate(20402.18 1267)" fill="#3f3d56"/>
  </g>
</svg>
