<svg xmlns="http://www.w3.org/2000/svg" xmlns:xlink="http://www.w3.org/1999/xlink" width="511.677" height="420.206" viewBox="0 0 511.677 420.206">
  <defs>
    <linearGradient id="linear-gradient" x1="0.516" y1="0.975" x2="0.516" y2="-0.026" gradientUnits="objectBoundingBox">
      <stop offset="0" stop-color="gray" stop-opacity="0.251"/>
      <stop offset="0.54" stop-color="gray" stop-opacity="0.122"/>
      <stop offset="1" stop-color="gray" stop-opacity="0.102"/>
    </linearGradient>
    <linearGradient id="linear-gradient-2" x1="0.514" y1="0.995" x2="0.514" y2="-0.003" xlink:href="#linear-gradient"/>
  </defs>
  <g id="azgaar" transform="translate(0.107)">
    <path id="Path_591" data-name="Path 591" d="M126.488,227.665c1.439,16.193,10.62,30.852,16.222,46.273a109.689,109.689,0,0,1,2.134,68.112c-1.333,4.6-2.979,9.2-2.979,13.91,0,16.222,18.481,26.99,35.274,34.152A643.04,643.04,0,0,0,309.92,430.231c14.9,2.816,33.519,4.029,42.949-6.557,4.528-5.084,5.622-11.723,8.946-17.426,8.476-14.548,29.1-20.2,47.616-23.436a581.6,581.6,0,0,1,67.474-7.766c22.774-1.281,48.633-2.4,63.727-17.349,9.593-9.507,12.385-22.626,12.768-35.015,1.252-40.646-18.169-84.631,6.758-119.833,10.452-14.764,27.518-25.547,37.893-40.354,15.018-21.455,13.723-48.7,3.554-71.57s-28.18-42.306-45.932-61.358c-5.871-6.3-12.135-12.85-20.952-15.771-9.176-3.041-19.58-1.645-29.418-.206-44.752,6.533-91.2,13.651-128.736,36.09-18.64,11.142-34.209,25.595-50.844,38.886-35.922,28.717-77.537,55.242-124.971,66.582C162.218,164.36,123.025,189.211,126.488,227.665Z" transform="translate(-97.723 -11.983)" fill="#fff" opacity="0.1"/>
    <path id="Path_640" data-name="Path 640" d="M118.365,517.87s20.069,20.069,8.739,49.846,19.436,79.3,19.436,79.3-.331-.048-.959-.153c-41.217-7.276-61.694-54.413-38.776-89.433C115.329,544.4,122.322,529.132,118.365,517.87Z" transform="translate(-82.626 -275.216)" fill="#50a757"/>
    <path id="Path_641" data-name="Path 641" d="M118.37,518.56s20.069,20.069,8.739,49.846,19.436,79.3,19.436,79.3-.331-.048-.959-.154c-41.212-7.276-61.689-54.432-38.771-89.447C115.334,545.1,122.327,529.8,118.37,518.56Z" transform="translate(-82.631 -275.576)" opacity="0.1"/>
    <path id="Path_592" data-name="Path 592" d="M619.877,442.311c.772-10.658.537-18.831-.48-19.666a7.258,7.258,0,0,1-1.146-3.022c1.089-.815,1.674-1.77,1.41-2.878-1.276-5.324-21.46-44.522-24.707-45.237s-2.576-58.8-2.576-58.8l4.739-44.311h-.067a32.3,32.3,0,0,1,1.952-7c.182-.446.374-.878.566-1.3,3.924.139,7.674-1.6,10.917-6.183,3.53-4.988,6.811-9.425,9.785-13.315,7.022-5.468,15.666-13.91,18.174-23.7,4.437-17.306-15.829-35.015-15.829-35.015l-6.308-4.245c-.082-.24-.153-.48-.221-.719s-.125-.48-.178-.7a20.01,20.01,0,0,0,4.274-.988h0a4.389,4.389,0,0,0,4.317.369l.086-.048a4.088,4.088,0,0,0,.686-.24,12.164,12.164,0,0,0,1.947-1.319c2.465-1.813,5.411-2.816,8.1-4.264,4.581-2.461,8.581-6.514,9.747-11.593a27.58,27.58,0,0,0,.523-5,9.715,9.715,0,0,0-.3-3.607c-.317-.921-.907-1.722-1.276-2.624-.8-1.957-.48-4.163-.523-6.279a15.881,15.881,0,0,0-4.231-10.869A12.041,12.041,0,0,0,628.41,126.2a20.86,20.86,0,0,0-3.051.959c-.446.163-.887.336-1.329.48a9.161,9.161,0,0,1-5.276.705c-2.154-.5-4.029-2.312-6.235-2.053a4.278,4.278,0,0,0-1.324.4A7.2,7.2,0,0,0,609,127.841a25.153,25.153,0,0,0-2.825,2.341,6.73,6.73,0,0,0-2.355,3.924,4.868,4.868,0,0,0,1.228,3.535,20.285,20.285,0,0,0-8.946,28.65q-.058.331-.12.672a49.538,49.538,0,0,1-1.2,5.027,4.342,4.342,0,0,1,.139-.911c-.321-.072-.652-.134-.993-.192h-.154q-.451-.077-.911-.134h-.077c-4.609-.58-10.236-.067-13.43,1.76a27.422,27.422,0,0,0-11.651,13.272,32.868,32.868,0,0,0-7.574,11.991,16.409,16.409,0,0,0-7.559-1.564c-3.885-7.675-11.234-17.239-20.865-7.017-10.135,10.759,2.312,13.91,10.845,14.836a9.459,9.459,0,0,0,1.3,2.763,25.864,25.864,0,0,0,2.029,2.676,1.668,1.668,0,0,1-.844.043c-1.962-.547-1.818,19.493,6.955,25.34a49.189,49.189,0,0,1-5.631,10.327,57.915,57.915,0,0,0-7.545,15.009c-.907,2.787-1.554,5.439-1.372,6.955h0a2.686,2.686,0,0,0,.105.513h0a1.689,1.689,0,0,0,.081.206h0a1.277,1.277,0,0,0,.106.178h0a1,1,0,0,0,.125.139h0a.884.884,0,0,0,.139.106h0a.884.884,0,0,0,.158.072h0a1.033,1.033,0,0,0,.173.034h.029a1.351,1.351,0,0,0,.192,0h.038a1.858,1.858,0,0,0,.211-.029h.048l.216-.058h.072l.221-.086.1-.038.24-.115.106-.053.273-.158.1-.058.341-.216.067-.043.436-.312c-.422.825-.911,1.722-1.473,2.648-2.772,4.528-7.329,9.775-14.044,11.253-12.471,2.739-44.565,43.759-44.565,43.759s-9.9-.686-5.885,30.857,4.768,48.661,4.768,48.661l.177.11c-3.76,4.279-11.43,11.963-18.1,12.054-9.248.125-14.7,6.207-10.3,10.01s52.283-2.187,52.283-2.187.317-12.514-1.962-18.265A11.077,11.077,0,0,0,503,405.037l-2.365-63.262s29.9-25.628,44.474-28.113c-.1-.053-.192-.1-.283-.149a10.26,10.26,0,0,1,2.787-.053c12.74,1.732,22.41,59.809,22.41,59.809a39.681,39.681,0,0,0,9.349,16.189c7,7.046,22.544,34.267,22.544,34.267l.648-.072.086.149h0c0,4.125-.628,10.317-3.837,15.148-5.276,7.953,9.531,11.032,9.531,11.032S619.109,452.969,619.877,442.311Z" transform="translate(-266.2 -71.296)" fill="url(#linear-gradient)"/>
    <path id="Path_593" data-name="Path 593" d="M486.907,701.111s-11.142,14.644-20.362,14.774-14.654,6.169-10.27,9.948,52.158-2.159,52.158-2.159.451-18-3.684-20.625S486.907,701.111,486.907,701.111Z" transform="translate(-268.633 -370.522)" fill="#444176"/>
    <path id="Path_594" data-name="Path 594" d="M766.168,734.015s1.708,11.6-3.559,19.508,9.507,10.96,9.507,10.96,10.73,2.988,11.512-7.607.528-18.707-.48-19.57-1.847-6.826-1.847-6.826Z" transform="translate(-428.243 -385.846)" fill="#444176"/>
    <path id="Path_595" data-name="Path 595" d="M632.072,573.165s-15.522-27.072-22.506-34.056a39.336,39.336,0,0,1-9.329-16.1s-9.66-57.746-22.367-59.478-47.563,28.06-47.563,28.06l2.485,62.874c-7.564,8.768-22.4-.557-22.4-.557s-.763-17.057-4.763-48.422,5.857-30.7,5.857-30.7,31.979-40.771,44.421-43.5c6.715-1.463,11.234-6.682,14-11.181a36.784,36.784,0,0,0,3.434-7.195L626.5,418.6l-4.71,44.057s-.652,57.751,2.59,58.466,23.379,39.7,24.655,44.987S632.072,573.165,632.072,573.165Z" transform="translate(-294.617 -220.607)" fill="#41467c"/>
    <g id="Group_60" data-name="Group 60" transform="translate(225.661 197.537)" opacity="0.1">
      <path id="Path_596" data-name="Path 596" d="M592.313,517.978a5.24,5.24,0,0,0-1.875-.667c-12.706-1.727-47.563,28.06-47.563,28.06l2.49,62.888a10.906,10.906,0,0,1-8.154,3.746c4.494,1.046,9.7.959,13.272-3.2l-2.509-62.9S577.78,520.449,592.313,517.978Z" transform="translate(-537.21 -472.425)"/>
      <path id="Path_597" data-name="Path 597" d="M772.005,571.867c-1.276-5.276-21.412-44.273-24.654-44.987s-2.59-58.466-2.59-58.466l4.71-44.057-5.1-.547-4.71,44.057s-.652,57.751,2.59,58.466,23.379,39.7,24.654,44.987c.863,3.583-7.195,5.535-12.524,6.423l.667,1.151S773.281,577.157,772.005,571.867Z" transform="translate(-642.526 -423.81)"/>
    </g>
    <path id="Path_598" data-name="Path 598" d="M778.585,234.287s-50.273-1.693-41.083-8.442c5.67-4.168,8.121-12.318,9.171-17.954a47.758,47.758,0,0,0,.758-6.029s26.8-2.657,20.208,7.315a10,10,0,0,0-.959,8.543C769.045,226.046,778.585,234.287,778.585,234.287Z" transform="translate(-415.186 -110.617)" fill="#fbbebe"/>
    <path id="Path_599" data-name="Path 599" d="M678.829,244.57a32.341,32.341,0,0,0-14.562,22.381c-2.4,15.579-4.37-.48-4.37-.48s-6.969,6.619-9.113,6.024-1.765,23.379,9.694,26.448,20.51-47.155,20.51-47.155Z" transform="translate(-370.115 -133.007)" fill="#dfe5ee"/>
    <path id="Path_600" data-name="Path 600" d="M678.829,244.57a32.341,32.341,0,0,0-14.562,22.381c-2.4,15.579-4.37-.48-4.37-.48s-6.969,6.619-9.113,6.024-1.765,23.379,9.694,26.448,20.51-47.155,20.51-47.155Z" transform="translate(-370.115 -133.007)" opacity="0.05"/>
    <path id="Path_601" data-name="Path 601" d="M644,270.226s-9.344-29.739-23.877-14.337,17.532,15.133,17.532,15.133Z" transform="translate(-352.724 -136.594)" fill="#fbbebe"/>
    <path id="Path_602" data-name="Path 602" d="M778.811,209.181a10,10,0,0,0-.959,8.543,20.146,20.146,0,0,1-20.012-9.833,47.8,47.8,0,0,0,.758-6.029S785.4,199.2,778.811,209.181Z" transform="translate(-426.352 -110.618)" opacity="0.1"/>
    <circle id="Ellipse_162" data-name="Ellipse 162" cx="20.141" cy="20.141" r="20.141" transform="translate(326.132 103.442) rotate(-81.78)" fill="#fbbebe"/>
    <path id="Path_603" data-name="Path 603" d="M697.265,418.64l-.691,6.442c-5.866-1.568-46.11-11.991-54.628-5.727a9.819,9.819,0,0,1-1.276.811,36.784,36.784,0,0,0,3.434-7.195Z" transform="translate(-365.384 -220.633)" opacity="0.1"/>
    <path id="Path_604" data-name="Path 604" d="M736.814,268.182c-2.681,10.442-12.385,19.316-19.6,24.683a81.375,81.375,0,0,1-8.3,5.478,30.436,30.436,0,0,0-11.421,14.073,32.988,32.988,0,0,0-2.4,11.7S648.94,311.452,639.75,318.2c-4.83,3.549-4.067-1.468-2.254-7.022a57.477,57.477,0,0,1,7.516-14.917c2.537-3.65,5.722-9,6.682-13.982,1.271-6.619,9.9-31.8,13.91-43.309a27.417,27.417,0,0,1,12.289-14.922c3.722-2.106,10.687-2.456,15.541-1.386,0,0-1.564,5.2,5.622,6.135.777.1,1.549.24,2.312.417,2.878.676,9.972,2.024,13.119-.249l6.528,4.379S741.231,250.977,736.814,268.182Z" transform="translate(-363.005 -121.303)" fill="#dfe5ee"/>
    <path id="Path_605" data-name="Path 605" d="M787.366,150.923a2.437,2.437,0,0,0-.528-2.676,7.159,7.159,0,0,0-2.442-1.54l-4.379-1.986a15.243,15.243,0,0,1-4.072-2.4,5.167,5.167,0,0,1-1.856-4.173,6.581,6.581,0,0,1,2.35-3.9,25.056,25.056,0,0,1,2.816-2.326,6.125,6.125,0,0,1,2.739-1.257c2.192-.259,4.063,1.54,6.212,2.043,3.238.758,6.351-1.482,9.593-2.173a12.021,12.021,0,0,1,10.826,3.535,15.862,15.862,0,0,1,4.221,10.807c.034,2.106-.273,4.317.523,6.236.365.9.959,1.693,1.271,2.609a9.632,9.632,0,0,1,.3,3.588,27.338,27.338,0,0,1-.5,4.988c-1.161,5.051-5.152,9.075-9.718,11.512-2.686,1.439-5.622,2.437-8.078,4.235a12.124,12.124,0,0,1-1.919,1.309,4.389,4.389,0,0,1-4.288-.369,3.128,3.128,0,0,1-1.439-2.59,6.265,6.265,0,0,1,1.271-2.772c1.391-2.288,1.717-5.53-.134-7.473-.811-.849-1.919-1.348-2.72-2.216-1.286-1.439-1.439-3.511-1.482-5.43-.125-3.583-.216-7.315,1.281-10.553" transform="translate(-434.797 -73.556)" opacity="0.1"/>
    <path id="Path_606" data-name="Path 606" d="M788.449,147.647a7.156,7.156,0,0,0-2.442-1.54l-4.379-1.986a15.242,15.242,0,0,1-4.072-2.4,5.167,5.167,0,0,1-1.856-4.173,6.581,6.581,0,0,1,2.35-3.9,25.052,25.052,0,0,1,2.816-2.326,6.126,6.126,0,0,1,2.739-1.257c2.192-.259,4.063,1.54,6.212,2.043,3.238.758,6.351-1.482,9.593-2.173a12.021,12.021,0,0,1,10.826,3.535,15.862,15.862,0,0,1,4.221,10.807c.034,2.106-.273,4.317.523,6.236.365.9.959,1.693,1.271,2.609a9.631,9.631,0,0,1,.3,3.588,27.35,27.35,0,0,1-.518,4.969c-1.161,5.051-5.152,9.075-9.718,11.512-2.686,1.439-5.621,2.437-8.077,4.235a12.125,12.125,0,0,1-1.919,1.309,4.389,4.389,0,0,1-4.288-.369,3.127,3.127,0,0,1-1.439-2.59,6.262,6.262,0,0,1,1.271-2.772c1.391-2.288,1.717-5.53-.134-7.473-.811-.849-1.919-1.348-2.72-2.216-1.285-1.439-1.439-3.511-1.482-5.43-.125-3.583-.734-6.96.763-10.217" transform="translate(-435.635 -73.244)" fill="#512e4e"/>
    <path id="Path_607" data-name="Path 607" d="M758.537,313.3c-2.95,3.41-7.2,8.495-12.356,15.253a81.356,81.356,0,0,1-8.3,5.478A30.436,30.436,0,0,0,726.458,348.1c-15.719.825-34.718-30.42-34.718-30.42l12.442-13.032,21.211,15.157,6.907-14.8a24.942,24.942,0,0,1,20.179-14.284l.331-.029c4.418-.4,6.97,2.235,8.437,5.574a16.174,16.174,0,0,1-2.71,17.028Z" transform="translate(-391.958 -156.987)" opacity="0.1"/>
    <g id="Group_61" data-name="Group 61" transform="translate(273.137 100.813)" opacity="0.05">
      <path id="Path_608" data-name="Path 608" d="M747.7,222.357s-1.564,5.2,5.622,6.135c.777.1,1.549.24,2.312.417a38.638,38.638,0,0,0,6.514.983c-1.29-.2-2.432-.441-3.238-.633a21.758,21.758,0,0,0-2.312-.417c-7.195-.931-5.622-6.135-5.622-6.135a26.277,26.277,0,0,0-4.293-.547C747.03,222.222,747.371,222.285,747.7,222.357Z" transform="translate(-693.682 -222.16)"/>
      <path id="Path_609" data-name="Path 609" d="M781.5,240.829l-6.528-4.379a5.632,5.632,0,0,1-1.6.772l4.854,3.257s20.213,17.628,15.8,34.833c-2.681,10.442-12.385,19.316-19.6,24.683a81.367,81.367,0,0,1-8.3,5.478A30.436,30.436,0,0,0,754.7,319.546a32.906,32.906,0,0,0-2.36,11.181c2.048.523,3.252.854,3.252.854a32.985,32.985,0,0,1,2.4-11.7A30.437,30.437,0,0,1,769.411,305.8a81.35,81.35,0,0,0,8.3-5.478c7.195-5.363,16.918-14.241,19.6-24.683C801.716,258.457,781.5,240.829,781.5,240.829Z" transform="translate(-696.628 -229.596)"/>
      <path id="Path_610" data-name="Path 610" d="M636.535,419.6l-.345.24c.182,1.516,1.2,1.89,3.621.11,2.878-2.1,9.3-2.322,16.788-1.626C647.745,417.257,639.8,417.2,636.535,419.6Z" transform="translate(-636.19 -323.867)"/>
    </g>
    <path id="Path_611" data-name="Path 611" d="M663.83,361.35s3.708,9.593,8.854,13.071,11.886,9.373,11.886,9.373" transform="translate(-377.435 -193.773)" opacity="0.05"/>
    <path id="Path_612" data-name="Path 612" d="M604.622,465.183l-7.732-33.394c-3.3-5.482-6.691-8.428-9.536-10a12.646,12.646,0,0,0-7.5-2.158l-1.036-1.094c-3.943-5.569-6.034-20.146-6.034-20.146-.206-6.835-4.538-11.464-10.111-14.591-9.392-5.626-22.86-6.715-25.724-6.883l-2.283-4.542-.614-.149-.144-.288c-.48-.13-1.022-.24-1.544-.345l4.039-82.88.038-.8,15.949.777a4.83,4.83,0,0,0,.48-9.641l-18.673-.911v-.4l1.746-35.811v-.4a7.315,7.315,0,0,0,2.8-5.439,7.012,7.012,0,1,0-14.007-.681,7.315,7.315,0,0,0,2.26,5.684v.4l-1.756,35.816v.4l-18.692-.883a4.83,4.83,0,0,0-.48,9.641l15.172.739-.038.8-4.091,83.94a110.989,110.989,0,0,0-17.335,3.6l-6.6,23.431L473.9,402.472l-10.044,22.064-9.363,16.419c-.993.365-1.957.753-2.878,1.151h0c-34.9,14.726-36.31,51.295-36.31,51.295,9.723,16.577,58.821,9.31,58.821,9.31,28.022,25.12,83.72,10.524,83.72,10.524,13.43,3.31,24.06,4.744,32.444,5.065h0c23.379.892,29.259-6.893,29.259-6.893C627.957,490.073,604.622,465.183,604.622,465.183Z" transform="translate(-248.115 -124.765)" fill="url(#linear-gradient-2)"/>
    <rect id="Rectangle_361" data-name="Rectangle 361" width="42.2" height="8.989" transform="matrix(0.106, -0.994, 0.994, 0.106, 274.666, 158.079)" fill="#3073ce"/>
    <rect id="Rectangle_362" data-name="Rectangle 362" width="94.56" height="15.239" transform="matrix(0.106, -0.994, 0.994, 0.106, 260.869, 254.061)" fill="#f0f5fa"/>
    <rect id="Rectangle_363" data-name="Rectangle 363" width="7.425" height="94.56" transform="matrix(0.994, 0.106, -0.106, 0.994, 278.712, 160.866)" opacity="0.05"/>
    <rect id="Rectangle_364" data-name="Rectangle 364" width="3.909" height="15.239" transform="matrix(0.106, -0.994, 0.994, 0.106, 270.506, 163.927)" opacity="0.1"/>
    <rect id="Rectangle_365" data-name="Rectangle 365" width="4.298" height="8.989" transform="matrix(0.106, -0.994, 0.994, 0.106, 274.666, 158.081)" opacity="0.1"/>
    <rect id="Rectangle_366" data-name="Rectangle 366" width="55.876" height="9.377" rx="4.689" transform="matrix(0.994, 0.106, -0.106, 0.994, 251.79, 151.697)" fill="#3073ce"/>
    <path id="Path_613" data-name="Path 613" d="M420.06,649.308s-.389-37.509,36.728-52.763l8.6-16.409,8.989-21.882,19.148-4.317,5.468-23.053s21.105-7.425,34.775-4.691l2.734,4.691s35.169-.388,36.728,18.755c0,0,3.516,17.584,8.6,20.712,0,0,8.6-1.952,17.191,10.552l9.377,32.041S633,636,625.58,657.1c0,0-10.159,14.457-61.737,4.691,0,0-55.094,16.788-84.42-6.236C479.456,655.558,430.612,664.936,420.06,649.308Z" transform="translate(-250.591 -279.233)" fill="#a8a8a8"/>
    <path id="Path_614" data-name="Path 614" d="M471.38,721.79s7.814-10.941,7.425-18.755,1.842-26.885,1.842-26.885" transform="translate(-277.295 -357.576)" fill="none" stroke="#000" stroke-miterlimit="10" stroke-width="1" opacity="0.1"/>
    <path id="Path_615" data-name="Path 615" d="M530.85,671.132s7.814-14.457,7.032-22.271c0,0,8.207-14.87,14.457-13.675" transform="translate(-308.24 -336.225)" fill="none" stroke="#000" stroke-miterlimit="10" stroke-width="1" opacity="0.1"/>
    <path id="Path_616" data-name="Path 616" d="M620.46,609.408s21.489-7.814,22.664-14.069" transform="translate(-354.868 -315.527)" fill="none" stroke="#000" stroke-miterlimit="10" stroke-width="1" opacity="0.1"/>
    <path id="Path_617" data-name="Path 617" d="M636.75,648.153s22.664-10.14,22.664-12.893h11.329s16.409,21.489,14.457,30.871" transform="translate(-363.344 -336.299)" fill="none" stroke="#000" stroke-miterlimit="10" stroke-width="1" opacity="0.1"/>
    <path id="Path_618" data-name="Path 618" d="M615,694.531s-21.882-1.564-29.7,4.691-21.882,9.378-21.882,9.378-8.207,17.584-11.33,20.712-8.207,14.068-8.207,14.068" transform="translate(-315.025 -367.05)" fill="none" stroke="#000" stroke-miterlimit="10" stroke-width="1" opacity="0.1"/>
    <path id="Path_619" data-name="Path 619" d="M692.15,737.9s2.326,8.2,5.468,12.893,7.814,21.489,7.814,21.489" transform="translate(-392.171 -389.707)" fill="none" stroke="#000" stroke-miterlimit="10" stroke-width="1" opacity="0.1"/>
    <path id="Path_620" data-name="Path 620" d="M768.72,787.59s4.96,13.8,9.32,13.91" transform="translate(-432.013 -415.563)" fill="none" stroke="#000" stroke-miterlimit="10" stroke-width="1" opacity="0.1"/>
    <path id="Path_621" data-name="Path 621" d="M701,664.1s12.884,3.482,18.27,11.92,21.858,16.093,21.858,16.093" transform="translate(-396.776 -351.306)" fill="none" stroke="#000" stroke-miterlimit="10" stroke-width="1" opacity="0.1"/>
    <path id="Path_622" data-name="Path 622" d="M712.51,577.42s0,17.973,5.08,17.973S734,597.364,734,597.364" transform="translate(-402.765 -306.203)" fill="none" stroke="#000" stroke-miterlimit="10" stroke-width="1" opacity="0.1"/>
    <path id="Path_623" data-name="Path 623" d="M652.028,532.95s-1.3,31.048-7.938,39.083" transform="translate(-367.163 -283.063)" fill="none" stroke="#000" stroke-miterlimit="10" stroke-width="1" opacity="0.1"/>
    <g id="Group_62" data-name="Group 62" transform="translate(194.449 246.006)" opacity="0.05">
      <path id="Path_624" data-name="Path 624" d="M717.814,612.2l-9.378-32.041c-8.6-12.5-17.191-10.553-17.191-10.553-5.08-3.123-8.6-20.692-8.6-20.692-1.564-19.148-36.728-18.755-36.728-18.755l-2.734-4.691a41.743,41.743,0,0,0-11.349-.408c.959.1,1.866.23,2.753.408l2.734,4.691s35.169-.389,36.728,18.755c0,0,3.516,17.584,8.6,20.712,0,0,8.6-1.952,17.191,10.552l9.377,32.041s24.616,23.033,17.191,44.138c0,0-5.012,7.133-25.868,7.991,28.113,1.031,34.463-7.991,34.463-7.991C742.43,635.249,717.814,612.2,717.814,612.2Z" transform="translate(-555.238 -524.86)"/>
      <path id="Path_625" data-name="Path 625" d="M497.174,795.74a182.638,182.638,0,0,1-25.034,2.71,159.077,159.077,0,0,0,26.53-1.588Q497.917,796.316,497.174,795.74Z" transform="translate(-472.14 -665.81)"/>
      <path id="Path_626" data-name="Path 626" d="M660.26,808.77a160.563,160.563,0,0,1-36.9,5.833c18.011.652,35.073-3.1,42.109-4.9C663.781,809.417,662.04,809.111,660.26,808.77Z" transform="translate(-550.826 -672.59)"/>
    </g>
    <rect id="Rectangle_367" data-name="Rectangle 367" width="4.691" height="38.291" transform="matrix(0.994, 0.106, -0.106, 0.994, 283.277, 116.359)" opacity="0.05"/>
    <path id="Path_627" data-name="Path 627" d="M657.342,255.049l-.326,3.051a7.037,7.037,0,0,1-8.936-.959l.326-3.051Z" transform="translate(-369.239 -137.961)" opacity="0.1"/>
    <circle id="Ellipse_163" data-name="Ellipse 163" cx="7.032" cy="7.032" r="7.032" transform="matrix(0.106, -0.994, 0.994, 0.106, 276.171, 120.125)" fill="#3073ce"/>
    <path id="Path_628" data-name="Path 628" d="M664.862,242.591a7.032,7.032,0,0,1-7.742,6.236l1.5-13.987a7.032,7.032,0,0,1,6.245,7.751Z" transform="translate(-373.943 -127.945)" fill="#3073ce" opacity="0.05"/>
    <path id="Path_629" data-name="Path 629" d="M683.354,298.047l-4.9,7.948-4.691-4.072-6.427-5.583a22.6,22.6,0,0,1-19.493-10.553c-3.262-4.926-.724-7.746,3.233-9.353a16.424,16.424,0,0,1,18.9,5.036Z" transform="translate(-368.338 -148.985)" fill="#fbbebe"/>
    <path id="Path_630" data-name="Path 630" d="M646.458,307.143l-4.9,7.948-4.691-4.077,6.893-7.214Z" transform="translate(-331.442 -158.081)" opacity="0.1"/>
    <path id="Path_631" data-name="Path 631" d="M735.66,302.294l-6.907,14.793-21.23-15.157L695.1,314.962s28.5,46.872,44.56,24.28c9.742-13.723,17.589-23.278,22.247-28.664a16.165,16.165,0,0,0,2.72-17.028c-1.468-3.358-4.02-5.972-8.437-5.574l-.331.034A24.942,24.942,0,0,0,735.66,302.294Z" transform="translate(-393.706 -155.573)" fill="#dfe5ee"/>
    <path id="Path_632" data-name="Path 632" d="M983.114,597.593s-6.36-21.585,1.194-37.481a34.1,34.1,0,0,0,2.758-21.393,57.363,57.363,0,0,0-3.027-10.039" transform="translate(-542.269 -280.841)" fill="none" stroke="#535461" stroke-miterlimit="10" stroke-width="2"/>
    <path id="Path_633" data-name="Path 633" d="M987.133,502.537c0,2.648-4.8,10.317-4.8,10.317s-4.8-7.675-4.8-10.317a4.8,4.8,0,1,1,9.593,0Z" transform="translate(-540.671 -264.742)" fill="#50a757"/>
    <path id="Path_634" data-name="Path 634" d="M1003.612,530.459c-1.439,2.221-9.632,6.058-9.632,6.058s.149-9.046,1.588-11.267a4.8,4.8,0,0,1,8.044,5.209Z" transform="translate(-549.225 -278.011)" fill="#50a757"/>
    <path id="Path_635" data-name="Path 635" d="M1000.993,580.57c-2.365,1.19-11.373.369-11.373.369s4.7-7.732,7.056-8.922a4.8,4.8,0,1,1,4.317,8.557Z" transform="translate(-546.957 -303.074)" fill="#50a757"/>
    <path id="Path_636" data-name="Path 636" d="M991.8,620.368c-2.13,1.573-11.147,2.283-11.147,2.283s3.319-8.413,5.449-9.987a4.8,4.8,0,1,1,5.7,7.7Z" transform="translate(-542.289 -323.978)" fill="#50a757"/>
    <path id="Path_637" data-name="Path 637" d="M971.216,542.875c1.919,1.842,10.74,3.756,10.74,3.756s-2.163-8.783-4.063-10.625a4.8,4.8,0,1,0-6.677,6.869Z" transform="translate(-536.525 -283.85)" fill="#50a757"/>
    <path id="Path_638" data-name="Path 638" d="M959.489,588.25c2.365,1.19,11.373.369,11.373.369s-4.7-7.732-7.056-8.922a4.8,4.8,0,1,0-4.317,8.557Z" transform="translate(-529.81 -307.07)" fill="#50a757"/>
    <path id="Path_639" data-name="Path 639" d="M956.63,635.258c2.13,1.573,11.147,2.283,11.147,2.283s-3.319-8.413-5.449-9.987a4.8,4.8,0,0,0-5.7,7.7Z" transform="translate(-528.874 -331.87)" fill="#50a757"/>
    <path id="Path_642" data-name="Path 642" d="M136.223,517.87s11.33,24.6,0,44.666-1.919,76.386,28.161,84.478" transform="translate(-100.484 -275.216)" fill="none" stroke="#535461" stroke-miterlimit="10" stroke-width="1"/>
    <path id="Path_643" data-name="Path 643" d="M66.75,686.808s22.9-3.645,24.985,16.875,44.033,23.379,44.033,23.379l-.787.513c-34.631,22.736-67.742,14.481-62.749-15.709C74.065,700.646,73.935,689.374,66.75,686.808Z" transform="translate(-66.75 -362.992)" fill="#50a757"/>
    <path id="Path_644" data-name="Path 644" d="M66.75,687.08s17.776,3.9,16.308,20.064,26.4,35.538,52.71,20.189" transform="translate(-66.75 -363.263)" fill="none" stroke="#535461" stroke-miterlimit="10" stroke-width="1"/>
    <path id="Path_645" data-name="Path 645" d="M945.12,656.5s10.749-.331,13.987-2.638,16.534-5.06,17.335-1.362,16.15,18.395,4.02,18.5-28.194-1.89-31.427-3.837S945.12,656.5,945.12,656.5Z" transform="translate(-523.801 -344.328)" fill="#a8a8a8"/>
    <path id="Path_646" data-name="Path 646" d="M980.677,676.02c-12.135.1-28.194-1.89-31.427-3.837-2.461-1.5-3.444-6.878-3.77-9.363h-.36s.681,8.667,3.914,10.639,19.292,3.957,31.427,3.837c3.5-.029,4.71-1.276,4.648-3.118C984.62,675.3,983.282,676,980.677,676.02Z" transform="translate(-523.801 -350.64)" opacity="0.2"/>
    <path id="Path_647" data-name="Path 647" d="M170.841,755.336s-18.04-3.617-22.861-8.413-26.453-13.224-28.856-7.195-32.454,26.429-12.011,30.036,48.1,4.8,54.106,2.4S170.841,755.336,170.841,755.336Z" transform="translate(-84.066 -389.568)" fill="#a8a8a8"/>
    <path id="Path_648" data-name="Path 648" d="M107.123,786.627c20.443,3.607,48.1,4.8,54.106,2.4,4.581-1.832,7.761-10.629,9.018-14.726l.6.125s-3.607,14.428-9.617,16.831-33.667,1.2-54.106-2.4c-5.9-1.041-7.588-3.487-6.95-6.581C100.671,784.282,102.729,785.836,107.123,786.627Z" transform="translate(-84.075 -408.647)" opacity="0.2"/>
  </g>
</svg>
