<svg id="undraw_Co_workers_re_1i6i" xmlns="http://www.w3.org/2000/svg" width="715.296" height="604.17" viewBox="0 0 715.296 604.17">
  <path id="Path_456" data-name="Path 456" d="M476.338,659.815l-1.23-12.28-.92.05-161.69,7.79.42,12.43.71,21.29a308.809,308.809,0,0,0,82.39,44.85l1.05-8.14a2.9,2.9,0,0,1,5.68-.36l3.19,11.89a305.32,305.32,0,0,0,79.59,14.41Z" transform="translate(-242.352 -147.915)" fill="#2f2e41"/>
  <path id="Path_454" data-name="Path 454" d="M494.678,543.685l-34.01-6.08-2.47-.44a14.213,14.213,0,0,1-11.11-18.09l16.7-55.49.5-1.65a32.272,32.272,0,1,0-62.25-16.97l-21.3,86.93-.79,3.22a43.439,43.439,0,0,0,38.17,53.6c.07.01.13.01.2.02l12.75,1.13,16.54,1.47,20.8,1.85,19.41,1.73a10.174,10.174,0,0,0,10.94-8.38c.03-.14.05-.28.07-.42l4.12-30.76.04-.28a10.17,10.17,0,0,0-8.31-11.39Z" transform="translate(-242.352 -147.915)" fill="#ccc"/>
  <path id="Path_457" data-name="Path 457" d="M485.628,648.365l-9.43-29.28-.16-.5-.48-1.5-2.69-8.34c-.87-2.71-1.7-5.43-2.47-8.16q-1.065-3.69-1.99-7.4-1.32-5.16-2.4-10.36a256.713,256.713,0,0,1-4.87-35.33q-.33-4.935-.47-9.89a255.64,255.64,0,0,1,5.43-60.31,81.786,81.786,0,0,0-40.34-88.57,80.416,80.416,0,0,0-32.64-9.79c-.79-.06-1.58-.11-2.38-.16a80.962,80.962,0,0,0-64.94,26.26,82.574,82.574,0,0,0-11.32,15.68,81.446,81.446,0,0,0-9.32,51.69l11.24,75.47-2.56,31.77-3.02,37.44-.16,2-3.22,39.92a8.694,8.694,0,0,0,5.48,8.8,8.51,8.51,0,0,0,3.2.61c.16,0,.31,0,.47-.01l159.75-8.59,1.46-.08a8.7,8.7,0,0,0,7.83-11.37Z" transform="translate(-242.352 -147.915)" fill="#3073ce"/>
  <path id="Path_527" data-name="Path 527" d="M509.343,444.463s3.568,16.017-4.435,21.238,6.763,36.558,31.292,32.906a44.063,44.063,0,0,0,33.224-24.237s-23.765-11.046-14.675-32.284Z" transform="translate(-382.426 -231.575)" fill="#ffbfa4"/>
  <path id="Path_528" data-name="Path 528" d="M509.343,444.463s3.568,16.017-4.435,21.238,6.763,36.558,31.292,32.906a45.1,45.1,0,0,0,33.588-23.985s-24.348-10.961-15.258-32.2Z" transform="translate(-382.426 -231.575)" opacity="0.1"/>
  <path id="Path_428" data-name="Path 428" d="M948.018,354.635q1.26,4.92,2.36,9.89H700.648v-9.89Z" transform="translate(-242.352 -147.915)" fill="#50a757" opacity="0.183"/>
  <path id="Path_429" data-name="Path 429" d="M940.058,328.565a305.617,305.617,0,0,0-14.04-33.26q-2.46-5-5.11-9.89c-.29-.56-.6-1.12-.91-1.68v73.6h21.58v-24.39Z" transform="translate(-242.352 -147.915)" fill="#50a757" opacity="0.183"/>
  <path id="Path_430" data-name="Path 430" d="M926.018,295.3H920v-9.89h.91Q923.563,290.3,926.018,295.3Z" transform="translate(-242.352 -147.915)" fill="#50a757" opacity="0.183"/>
  <path id="Path_431" data-name="Path 431" d="M697.706,180.65h-20.06v9.89h21.58v-5.51Z" fill="#50a757" opacity="0.183"/>
  <rect id="Rectangle_328" data-name="Rectangle 328" width="21.576" height="85.404" transform="translate(644.385 124.017)" fill="#50a757" opacity="0.183"/>
  <rect id="Rectangle_329" data-name="Rectangle 329" width="21.576" height="9.889" transform="translate(644.385 137.502)" fill="#50a757" opacity="0.183"/>
  <rect id="Rectangle_330" data-name="Rectangle 330" width="21.576" height="9.889" transform="translate(644.385 180.653)" fill="#50a757" opacity="0.183"/>
  <path id="Path_432" data-name="Path 432" d="M809.918,271.435h-77.4a4.507,4.507,0,0,0-4.5,4.5v77.4a4.655,4.655,0,0,0,.19,1.3,4.51,4.51,0,0,0,4.31,3.2h77.4a4.509,4.509,0,0,0,4.31-3.2,4.641,4.641,0,0,0,.19-1.3v-77.4A4.507,4.507,0,0,0,809.918,271.435Z" transform="translate(-242.352 -147.915)" fill="#50a757" opacity="0.183"/>
  <path id="Path_433" data-name="Path 433" d="M804.418,276.935h-66.4a4.507,4.507,0,0,0-4.5,4.5v66.4a4.507,4.507,0,0,0,4.5,4.5h66.4a4.507,4.507,0,0,0,4.5-4.5v-66.4A4.507,4.507,0,0,0,804.418,276.935Z" transform="translate(-242.352 -147.915)" fill="#fff"/>
  <path id="Path_434" data-name="Path 434" d="M792.838,288.515H749.6a4.507,4.507,0,0,0-4.5,4.5v43.24a4.507,4.507,0,0,0,4.5,4.5h43.24a4.524,4.524,0,0,0,4.5-4.5v-43.24a4.507,4.507,0,0,0-4.5-4.5Z" transform="translate(-242.352 -147.915)" fill="#50a757" opacity="0.183"/>
  <path id="Path_435" data-name="Path 435" d="M790.172,328.628l-9.133-15.819a2,2,0,0,0-3.464,0l-6.669,11.551-8.746-15.147a2,2,0,0,0-3.464,0l-9.133,15.819L738.7,343.851h20.955l-2.076,3.6h43.461Z" transform="translate(-242.352 -147.915)" fill="#fff"/>
  <circle id="Ellipse_139" data-name="Ellipse 139" cx="6.293" cy="6.293" r="6.293" transform="translate(538.304 143.795)" fill="#fff"/>
  <path id="Path_436" data-name="Path 436" d="M957.568,424.515q-.105-5.82-.46-11.58c-.1-1.84-.22-3.67-.37-5.5h-42.22a4.507,4.507,0,0,0-4.5,4.5v77.4a4.091,4.091,0,0,0,.13,1.05,4.5,4.5,0,0,0,4.37,3.45h38.92c.2-1.14.39-2.3.56-3.45.11-.68.22-1.37.32-2.05.24-1.63.47-3.26.68-4.89q.45-3.33.81-6.69,1.32-12.045,1.7-24.35v-.01q.135-4.635.14-9.31v-12C957.648,428.885,957.628,426.7,957.568,424.515Z" transform="translate(-242.352 -147.915)" fill="#50a757" opacity="0.183"/>
  <path id="Path_437" data-name="Path 437" d="M957.568,424.515q-.105-5.82-.46-11.58h-37.09a4.507,4.507,0,0,0-4.5,4.5v66.4a4.507,4.507,0,0,0,4.5,4.5h34.3c.24-1.63.47-3.26.68-4.89q.45-3.33.81-6.69,1.32-12.045,1.7-24.35v-.01q.135-4.635.14-9.31v-12C957.648,428.885,957.628,426.7,957.568,424.515Z" transform="translate(-242.352 -147.915)" fill="#fff"/>
  <path id="Path_438" data-name="Path 438" d="M957.568,424.515H931.6a4.507,4.507,0,0,0-4.5,4.5v43.24a4.507,4.507,0,0,0,4.5,4.5h24.21q1.32-12.045,1.7-24.35v-.01q.135-4.635.14-9.31v-12C957.648,428.885,957.628,426.7,957.568,424.515Z" transform="translate(-242.352 -147.915)" fill="#50a757" opacity="0.183"/>
  <path id="Path_439" data-name="Path 439" d="M957.508,452.4q-.375,12.3-1.7,24.35-.36,3.36-.81,6.69h-15.42l2.08-3.59H920.7l6.4-11.09,4.46-7.73,9.14-15.82a1.991,1.991,0,0,1,3.46,0l8.75,15.15Z" transform="translate(-242.352 -147.915)" fill="#fff"/>
  <path id="Path_440" data-name="Path 440" d="M881.738,228.785H700.648V218.9h172.11Q877.348,223.74,881.738,228.785Z" transform="translate(-242.352 -147.915)" fill="#50a757" opacity="0.183"/>
  <path id="Path_441" data-name="Path 441" d="M796.838,160.2q11.07,6.09,21.58,13.05v48.34h-21.58Z" transform="translate(-242.352 -147.915)" fill="#50a757" opacity="0.183"/>
  <rect id="Rectangle_331" data-name="Rectangle 331" width="21.576" height="9.889" transform="translate(554.486 44.906)" fill="#50a757" opacity="0.183"/>
  <path id="Path_442" data-name="Path 442" d="M851.678,198.645v22.94H830.1v-40.21q7.545,5.505,14.75,11.45Q848.3,195.675,851.678,198.645Z" transform="translate(-242.352 -147.915)" fill="#50a757" opacity="0.183"/>
  <path id="Path_443" data-name="Path 443" d="M851.678,198.645v4.06H830.1v-9.88h14.75Q848.3,195.675,851.678,198.645Z" transform="translate(-242.352 -147.915)" fill="#50a757" opacity="0.183"/>
  <path id="Path_444" data-name="Path 444" d="M774.808,149.175q8.565,3.855,16.84,8.22l-4.44,8.96-14.75,29.81-4.39,8.86L761.2,218.9l-1.51,3.05-6.15-3.05-13.18-6.53,8.37-16.92h.01l4.38-8.86,14.76-29.81,4.34-8.76.05-.1Z" transform="translate(-242.352 -147.915)" fill="#50a757" opacity="0.183"/>
  <path id="Path_445" data-name="Path 445" d="M549.246,9.57l-4.39,8.87-19.33-9.58L529.866.1l.05-.1,2.54,1.26Z" fill="#50a757" opacity="0.183"/>
  <rect id="Rectangle_332" data-name="Rectangle 332" width="9.889" height="21.576" transform="matrix(0.444, -0.896, 0.896, 0.444, 506.378, 47.535)" fill="#50a757" opacity="0.183"/>
  <path id="Path_446" data-name="Path 446" d="M954,490.385c-.17,1.15-.36,2.31-.56,3.45-.35,2.16-.73,4.3-1.14,6.44H700.648v-9.89Z" transform="translate(-242.352 -147.915)" fill="#50a757" opacity="0.183"/>
  <rect id="Rectangle_333" data-name="Rectangle 333" width="21.576" height="85.404" transform="translate(554.486 259.765)" fill="#50a757" opacity="0.183"/>
  <rect id="Rectangle_334" data-name="Rectangle 334" width="21.576" height="9.889" transform="translate(554.486 273.249)" fill="#50a757" opacity="0.183"/>
  <rect id="Rectangle_335" data-name="Rectangle 335" width="21.576" height="9.889" transform="translate(554.486 316.401)" fill="#ccc"/>
  <rect id="Rectangle_336" data-name="Rectangle 336" width="21.576" height="85.404" transform="translate(587.748 259.765)" fill="#50a757" opacity="0.183"/>
  <rect id="Rectangle_337" data-name="Rectangle 337" width="21.576" height="9.889" transform="translate(587.748 273.249)" fill="#50a757" opacity="0.183"/>
  <rect id="Rectangle_338" data-name="Rectangle 338" width="21.576" height="9.889" transform="translate(587.748 316.401)" fill="#50a757" opacity="0.183"/>
  <rect id="Rectangle_339" data-name="Rectangle 339" width="85.404" height="21.576" transform="matrix(0.444, -0.896, 0.896, 0.444, 498.002, 335.949)" fill="#50a757" opacity="0.183"/>
  <rect id="Rectangle_340" data-name="Rectangle 340" width="9.889" height="21.576" transform="matrix(0.444, -0.896, 0.896, 0.444, 525.524, 280.358)" fill="#ccc"/>
  <rect id="Rectangle_341" data-name="Rectangle 341" width="9.889" height="21.576" transform="matrix(0.444, -0.896, 0.896, 0.444, 506.378, 319.03)" fill="#ccc"/>
  <path id="Path_447" data-name="Path 447" d="M535.15,528.5a19.794,19.794,0,0,1,2.57,1.762l89.029-27.706,5.02-22.088,34.325,3.22-5.087,39.966a15.041,15.041,0,0,1-12.568,12.956L543.666,553.2a19.736,19.736,0,1,1-8.516-24.7Z" transform="translate(-242.352 -147.915)" fill="#ffbfa4"/>
  <path id="Path_448" data-name="Path 448" d="M681.958,496.935l-.59-10.08v-.01l-.16-2.76-1.74-29.68a23.473,23.473,0,0,0-21.33-25.35,23.15,23.15,0,0,0-5.34.14,23.543,23.543,0,0,0-20.15,21.18l-3.61,15.02-6.31,26.27a8.418,8.418,0,0,0,4.34,9.48,8.276,8.276,0,0,0,3.13.92l10.52.94,10.13.9,11.69,1.04.84.07,2.16.2,7.23.64h.02a8.47,8.47,0,0,0,8.21-4.48,8.246,8.246,0,0,0,.96-4.44Z" transform="translate(-242.352 -147.915)" fill="#50a757"/>
  <path id="Path_449" data-name="Path 449" d="M779.654,374.708c0,34.225-31.647,29.049-70.685,29.049s-70.685,5.177-70.685-29.049,15.459-94.892,70.685-94.892C766.1,279.815,779.654,340.482,779.654,374.708Z" transform="translate(-242.352 -147.915)" fill="#2f2e41"/>
  <path id="Path_450" data-name="Path 450" d="M775.688,423.7a29.373,29.373,0,0,0-2.91-2.46,30.92,30.92,0,0,0-22.63-5.99l-87.65,11.09a31.119,31.119,0,0,0-27.15,33.78c.25,2.8.53,5.75.84,8.82.4,3.85.85,7.89,1.37,12.07.86,7.03,1.91,14.45,3.16,22,1.09,6.5,2.33,13.09,3.75,19.6q.615,2.82,1.28,5.62a.036.036,0,0,0,.01.03c.05.23.1.46.16.68a.074.074,0,0,0,.01.05q.93,3.9,1.95,7.71c.26.94.51,1.87.77,2.79.7,2.5,1.44,4.95,2.2,7.36,5.71,17.93,13.26,33.2,23.23,41.32.13.12.26.22.4.33l.4.31.58-.18,2.46-.73,2.1-.64,27.36-8.23,6.81-2.05,21.88-6.59h.01l20.01-6.02,2.44-.74,17.19-5.17.55-6.42.74-8.52.44-5.12,3.48-40.38,2.03-23.56,2.2-25.58a31.076,31.076,0,0,0-9.47-25.18Z" transform="translate(-242.352 -147.915)" fill="#2f2e41"/>
  <path id="Path_451" data-name="Path 451" d="M824.7,619.085c-.23-.67-.45-1.34-.68-2-10.28-30-25.44-52.69-47.75-65.05-.01,0-.01-.01-.02-.01l-.38-.21-19.44,6.73-2.4.83-2.5.87-.03.01-18.2,6.3-.03.01-14.28,4.94h-.01l-13.21,4.57h-.01l-3.07,1.07-23.09,7.99-2.68.93-2.4.83-.37.13-.07,1.14-1.65,28.92-.11,2-2.06,36.09-68.41,96.91h46.8a308.4,308.4,0,0,0,46.909-3.581L739.4,701.2a2.907,2.907,0,0,1,4.94,1.44l6.45,32a309.229,309.229,0,0,0,88-48.42C835.708,661.365,831.208,638.715,824.7,619.085Z" transform="translate(-242.352 -147.915)" fill="#2f2e41"/>
  <path id="Path_453" data-name="Path 453" d="M538.061,603.472A22.788,22.788,0,0,1,507,587.464l-80.466-9.113,26.973-32.3,72.276,13.606a22.911,22.911,0,0,1,12.276,43.816Z" transform="translate(-242.352 -147.915)" fill="#a0616a"/>
  <path id="Path_458" data-name="Path 458" d="M435.386,296.62Z" transform="translate(-242.352 -147.915)" fill="#674739"/>
  <path id="Path_459" data-name="Path 459" d="M443.629,593.578a22.788,22.788,0,0,1-31.4-15.332l-80.644-7.369L357.854,538l72.554,12.038a22.911,22.911,0,0,1,13.222,43.54Z" transform="translate(-242.352 -147.915)" fill="#ffbfa4"/>
  <path id="Path_460" data-name="Path 460" d="M398.968,534.745l-18.23-2.85-18.39-2.88a14.211,14.211,0,0,1-11.5-17.84l15.96-57.5a32.469,32.469,0,0,0-16.04-37.17,32.264,32.264,0,0,0-46.56,21.54l-20.13,90.61a43.464,43.464,0,0,0,39.51,52.78l69.63,4.67a10.185,10.185,0,0,0,10.76-8.61c.03-.14.04-.28.06-.42l3.45-30.84.03-.28a10.179,10.179,0,0,0-8.55-11.21Z" transform="translate(-242.352 -147.915)" fill="#3073ce"/>
  <path id="Path_461" data-name="Path 461" d="M707.445,486.945l-4.173,2.277L651.86,517.273l-4.173,2.277a8.715,8.715,0,0,0-3.472,11.812L682.5,601.529A8.715,8.715,0,0,0,694.312,605l.011-.006L754.059,572.4l.011-.006a8.715,8.715,0,0,0,3.472-11.812l-38.285-70.168a8.715,8.715,0,0,0-11.812-3.472Z" transform="translate(-242.352 -147.915)" fill="#e6e6e6"/>
  <path id="Path_462" data-name="Path 462" d="M708.646,489.145l-4.943,2.7L653.83,519.053l-4.943,2.7a6.206,6.206,0,0,0-2.473,8.411L684.7,600.329a6.206,6.206,0,0,0,8.411,2.473l.011-.006L752.858,570.2l.011-.006a6.206,6.206,0,0,0,2.473-8.411l-38.285-70.168a6.206,6.206,0,0,0-8.411-2.473Z" transform="translate(-242.352 -147.915)" fill="#fff"/>
  <path id="Path_463" data-name="Path 463" d="M710.048,508.955a1.46,1.46,0,0,0-1.97-.58l-1.99,1.09-20.29,11.07a1.452,1.452,0,1,0,1.39,2.55l22.28-12.16a1.46,1.46,0,0,0,.58-1.97Z" transform="translate(-242.352 -147.915)" fill="#e6e6e6"/>
  <path id="Path_464" data-name="Path 464" d="M717.638,510.385a1.436,1.436,0,0,0-1.96-.57l-27.53,15.02a1.448,1.448,0,0,0,1.39,2.54l1.28-.7,8.01-4.37h.01l18.22-9.95a1.44,1.44,0,0,0,.58-1.97Z" transform="translate(-242.352 -147.915)" fill="#e6e6e6"/>
  <path id="Path_529" data-name="Path 529" d="M507.395,448.238s-.417,20.01-5.988,24.758,9.2,13.69,26.274,10.37,20.152-15.592,20.152-15.592-18.436-4.11-12.108-23.42Z" transform="translate(-56.702 -198.239)" fill="#a0616a"/>
  <path id="Path_530" data-name="Path 530" d="M496.271,444.737s-1.091,19.141-6.676,22.684l.052.1c-3.056,3.153,5.211,11.051,23.622,10.068s23.587-16.3,23.587-16.3.333.431-5.729-2.476c-2.608-1.852-7.114-4.428-7.674-12.583,0,0-7.478-.246-14.148-.577S496.271,444.737,496.271,444.737Z" transform="translate(-45.702 -191.765)" opacity="0.1"/>
  <path id="Path_465" data-name="Path 465" d="M687.718,534.325l-8.74-16.03a.7.7,0,0,0-.95-.27l-4.24,2.31-2.2,1.2-11.81,6.44-2.29,1.25a.7.7,0,0,0-.27.95l.56,1.03,8.18,15a.693.693,0,0,0,.94.27l14.1-7.69,2.2-1.2,4.24-2.31a.7.7,0,0,0,.28-.95Z" transform="translate(-242.352 -147.915)" fill="#e6e6e6"/>
  <path id="Path_466" data-name="Path 466" d="M721.1,529.295a1.447,1.447,0,0,0-1.96-.58l-30.22,16.49a1.45,1.45,0,0,0-.73,1.53,1.214,1.214,0,0,0,.151.44,1.472,1.472,0,0,0,.29.37l.01.01a1.462,1.462,0,0,0,1.67.2l30.22-16.49a1.447,1.447,0,0,0,.57-1.97Z" transform="translate(-242.352 -147.915)" fill="#e6e6e6"/>
  <path id="Path_467" data-name="Path 467" d="M728.7,530.725a1.45,1.45,0,0,0-1.97-.57l-35.47,19.35a1.415,1.415,0,0,0-.73,1.51v.01a1.21,1.21,0,0,0,.15.44,1.4,1.4,0,0,0,.3.38,1.43,1.43,0,0,0,1.67.2l35.47-19.35a1.457,1.457,0,0,0,.58-1.97Z" transform="translate(-242.352 -147.915)" fill="#e6e6e6"/>
  <circle id="Ellipse_142" data-name="Ellipse 142" cx="6.15" cy="6.15" r="6.15" transform="translate(430.294 401.04)" fill="#e6e6e6"/>
  <path id="Path_468" data-name="Path 468" d="M725.445,459.945l-4.173,2.277L669.86,490.273l-4.173,2.277a8.715,8.715,0,0,0-3.472,11.812L700.5,574.529A8.715,8.715,0,0,0,712.312,578l.011-.006L772.059,545.4l.011-.006a8.715,8.715,0,0,0,3.472-11.812l-38.285-70.168A8.715,8.715,0,0,0,725.445,459.945Z" transform="translate(-242.352 -147.915)" fill="#ccc"/>
  <path id="Path_469" data-name="Path 469" d="M726.646,462.145l-4.943,2.7L671.83,492.053l-4.943,2.7a6.206,6.206,0,0,0-2.473,8.411L702.7,573.329a6.206,6.206,0,0,0,8.411,2.473l.011-.006L770.858,543.2l.011-.006a6.206,6.206,0,0,0,2.473-8.411l-38.285-70.168a6.206,6.206,0,0,0-8.411-2.473Z" transform="translate(-242.352 -147.915)" fill="#fff"/>
  <path id="Path_470" data-name="Path 470" d="M728.048,481.955a1.459,1.459,0,0,0-1.97-.58l-10.26,5.6-2.86,1.56-9.16,5a1.452,1.452,0,1,0,1.39,2.55l10.8-5.89,2.26-1.24,9.22-5.03a1.46,1.46,0,0,0,.58-1.97Z" transform="translate(-242.352 -147.915)" fill="#ccc"/>
  <path id="Path_471" data-name="Path 471" d="M735.638,483.385a1.435,1.435,0,0,0-1.96-.57l-14.31,7.81-2.2,1.2-11.02,6.01a1.448,1.448,0,0,0,1.39,2.54l11.02-6.01,2.2-1.2,14.3-7.81a1.44,1.44,0,0,0,.58-1.97Z" transform="translate(-242.352 -147.915)" fill="#ccc"/>
  <path id="Path_472" data-name="Path 472" d="M705.718,507.325l-6.97-12.78-1.2-2.2-.57-1.05a.7.7,0,0,0-.95-.27l-14.15,7.72-6.39,3.48a.7.7,0,0,0-.27.95l.57,1.04.62,1.15.58,1.05v.01l6.97,12.78a.693.693,0,0,0,.94.27l20.54-11.2a.7.7,0,0,0,.28-.95Z" transform="translate(-242.352 -147.915)" fill="#50a757"/>
  <path id="Path_473" data-name="Path 473" d="M739.1,502.3a1.447,1.447,0,0,0-1.96-.58l-9.03,4.93-2.2,1.2-8.72,4.75-10.27,5.61a1.452,1.452,0,1,0,1.39,2.55L727.3,510.4l2.2-1.2,9.03-4.93a1.447,1.447,0,0,0,.57-1.97Z" transform="translate(-242.352 -147.915)" fill="#ccc"/>
  <path id="Path_474" data-name="Path 474" d="M746.7,503.725a1.45,1.45,0,0,0-1.97-.57l-14.27,7.79-2.2,1.2-19,10.36a1.448,1.448,0,0,0,1.39,2.54l18.99-10.36,2.2-1.2,14.28-7.79a1.456,1.456,0,0,0,.58-1.97Z" transform="translate(-242.352 -147.915)" fill="#ccc"/>
  <circle id="Ellipse_143" data-name="Ellipse 143" cx="6.15" cy="6.15" r="6.15" transform="translate(448.294 374.04)" fill="#ccc"/>
  <path id="Path_475" data-name="Path 475" d="M700.928,562.683a19.783,19.783,0,0,1,3.068.549l69.75-61.876-4.51-22.2,32.611-11.185,11.8,38.521a15.041,15.041,0,0,1-6.126,16.98l-88.674,58.219a19.736,19.736,0,1,1-17.922-19.009Z" transform="translate(-242.352 -147.915)" fill="#a0616a"/>
  <path id="Path_476" data-name="Path 476" d="M821.758,473.515,802,435.775a23.476,23.476,0,0,0-29.22-14.54c-.22.06-.43.13-.65.21a23.527,23.527,0,0,0-14.46,29.93l7.93,41.71a8.447,8.447,0,0,0,4.08,5.74,8.251,8.251,0,0,0,3.78,1.12,8.138,8.138,0,0,0,3.23-.45l4.24-1.48,27.22-9.48,8.9-3.1a8.471,8.471,0,0,0,4.71-11.92Z" transform="translate(-242.352 -147.915)" fill="#50a757"/>
  <path id="Path_477" data-name="Path 477" d="M896.352,619.085h-653a1,1,0,0,1,0-2h653a1,1,0,0,1,0,2Z" transform="translate(-242.352 -147.915)" fill="#3f3d56"/>
  <path id="Path_478" data-name="Path 478" d="M355.848,600.585v.5a17.515,17.515,0,0,0,10.43,16,17.232,17.232,0,0,0,7.07,1.5h161.5v-18Z" transform="translate(-242.352 -147.915)" fill="#3f3d56"/>
  <path id="Path_479" data-name="Path 479" d="M647.608,481.955a32.592,32.592,0,0,0-11.42-13.02,31.973,31.973,0,0,0-7.15-3.54,32.375,32.375,0,0,0-10.69-1.81h-155a32.538,32.538,0,0,0-32.5,32.5v90a31.372,31.372,0,0,0,.22,3.78,32.786,32.786,0,0,0,1.14,5.54,31.949,31.949,0,0,0,2.06,5.18,32.465,32.465,0,0,0,29.08,18h155a32.488,32.488,0,0,0,32.5-32.5v-90a32.221,32.221,0,0,0-3.24-14.13Z" transform="translate(-242.352 -147.915)" fill="#3f3d56"/>
  <circle id="Ellipse_144" data-name="Ellipse 144" cx="8" cy="8" r="8" transform="translate(298.996 385.17)" fill="#fff"/>
  <circle id="Ellipse_141" data-name="Ellipse 141" cx="47.564" cy="47.564" r="47.564" transform="translate(86.562 178.378) rotate(-45)" fill="#ffbfa4"/>
  <circle id="Ellipse_140" data-name="Ellipse 140" cx="47.564" cy="47.564" r="47.564" transform="translate(399.117 208.219) rotate(-45)" fill="#a0616a"/>
  <path id="Path_531" data-name="Path 531" d="M472.58,384.4a9.949,9.949,0,0,1,9.58,3.011c1.942,2.334,2.212,5.157,2.447,7.86,2.308.422,3.606-1.837,3.815-3.531.871-6.934.914-14,3.606-20.681a26.757,26.757,0,0,1,17.61-15.735,23.372,23.372,0,0,1,9.58-.79c1.907.279,3.71.851,5.618,1.122,6.593.941,13.778-1.762,19.971.12a15.012,15.012,0,0,1,8.152,6.655,14.662,14.662,0,0,0,3.17,3.983c2.613,2.033,6.758,2.567,10.521,3.207s7.891,1.739,9.5,4.254c1.455,2.259.383,4.894-.1,7.363A15.877,15.877,0,0,0,578.2,392.6c.7,1.144,2.108,2.439,3.771,2.07a3.275,3.275,0,0,0,1.8-1.265c4.355-5.27,4.215-12.106,9.641-16.811,1.82-1.573,4.163-2.808,5.931-4.412a9.066,9.066,0,0,0,3.074-9.034c-.975-3.621-4.355-6.64-7.028-9.787a36.473,36.473,0,0,1-7.534-13.514,2.108,2.108,0,0,1,0-1.762,5.376,5.376,0,0,1,1.925-1.363c3.058-1.753,4.129-5.2,2.5-8.041-1.515-2.733-4.921-4.758-8.657-5.978a65.485,65.485,0,0,0-11.9-2.259c-2.665.339-5.792-.979-6.619-2.823-.366-.821-.366-1.709-.74-2.53-.723-1.574-2.8-2.688-5.043-3.072a17.039,17.039,0,0,0-6.811.414c-2.508.61-5.417,1.506-7.6.467-1.15-.565-1.794-1.589-3.031-2.048-2.508-.926-5.156.941-6.967,2.484a17.529,17.529,0,0,1-6.3,3.651,10.672,10.672,0,0,1-7.786-.444c-1.742-.956-2.613-2.492-4-3.712-2.273-2.01-5.87-3.1-9.458-3.35A38.436,38.436,0,0,0,496.7,310.5a70.539,70.539,0,0,0-18.769,6.776c-2.9,1.573-5.678,3.41-7.194,5.782a11.693,11.693,0,0,0-1.62,5.963,20.262,20.262,0,0,0,8.709,17.858c-3.954,1.431-5.3,4.931-6.219,8.041-1.481,4.954-2.97,10-2.412,15.057.279,2.612,1.106,5.225.662,7.822a14.76,14.76,0,0,0-.592,3.764A3.927,3.927,0,0,0,472.58,384.4Z" transform="translate(-378.32 -209.717)" fill="#674739"/>
  <path id="Path_452" data-name="Path 452" d="M653.776,351.469h18.813l8.3-23.239,1.66,23.239h8.992l4.841-13.556.968,13.556h66.812a50.351,50.351,0,0,0-50.351-50.351h-9.683a50.351,50.351,0,0,0-50.351,50.351Z" transform="translate(-242.352 -147.915)" fill="#2f2e41"/>
  <g id="Group_44" data-name="Group 44" transform="translate(90.76 116.393)" opacity="0.1">
    <path id="Path_397" data-name="Path 397" d="M617.467,378.18a10.878,10.878,0,0,1-2.291,2.914c-1.742,1.6-4.111,2.838-5.931,4.419-5.426,4.7-5.313,11.557-9.641,16.812a3.26,3.26,0,0,1-1.8,1.257c-1.663.369-3.074-.926-3.771-2.07a16.8,16.8,0,0,1-1.89-4.4q-.14.572-.261,1.152a15.876,15.876,0,0,0,2.151,11.368c.7,1.144,2.108,2.439,3.771,2.07a3.275,3.275,0,0,0,1.8-1.265c4.355-5.27,4.215-12.106,9.641-16.812,1.82-1.573,4.163-2.808,5.931-4.412a9.067,9.067,0,0,0,3.074-9.034A9.9,9.9,0,0,0,617.467,378.18Z" transform="translate(-484.893 -343.096)"/>
    <path id="Path_398" data-name="Path 398" d="M607.4,334.58a5.269,5.269,0,0,0-1.925,1.355,2.107,2.107,0,0,0,0,1.762A33.449,33.449,0,0,0,607.4,342.7h0c3.1-1.769,4.159-5.268,2.465-8.123a8.077,8.077,0,0,0-.871-1.28,6.973,6.973,0,0,1-1.594,1.28Z" transform="translate(-486.659 -332.005)"/>
    <path id="Path_399" data-name="Path 399" d="M477.816,344.3A19.966,19.966,0,0,1,469.5,331.58a15.712,15.712,0,0,0-.383,3.012,20.609,20.609,0,0,0,4.18,13.552,8.435,8.435,0,0,1,4.52-3.84Z" transform="translate(-469.081 -331.58)"/>
    <path id="Path_400" data-name="Path 400" d="M576.091,385.241c.488-2.469,1.559-5.1.1-7.363-1.611-2.515-5.731-3.621-9.5-4.254s-7.891-1.174-10.521-3.207a14.66,14.66,0,0,1-3.17-3.983,14.888,14.888,0,0,0-8.152-6.655c-6.192-1.882-13.378.821-19.971-.12-1.907-.271-3.71-.843-5.617-1.122a23.378,23.378,0,0,0-9.58.753,26.722,26.722,0,0,0-17.61,15.735c-2.691,6.7-2.752,13.747-3.606,20.681-.209,1.694-1.507,3.953-3.815,3.531-.235-2.7-.523-5.526-2.447-7.86a9.874,9.874,0,0,0-9.58-3.012,4.731,4.731,0,0,1-2.682-1.506,10.954,10.954,0,0,1-.052,3.012,14.764,14.764,0,0,0-.592,3.764,3.924,3.924,0,0,0,3.31,2.846,9.949,9.949,0,0,1,9.58,3.012c1.942,2.334,2.212,5.157,2.447,7.86,2.308.422,3.606-1.837,3.815-3.531.871-6.934.914-14,3.606-20.681a26.758,26.758,0,0,1,17.61-15.735,23.373,23.373,0,0,1,9.58-.79c1.907.279,3.71.851,5.617,1.122,6.593.941,13.778-1.762,19.971.12a15.012,15.012,0,0,1,8.152,6.655,14.663,14.663,0,0,0,3.17,3.983c2.613,2.033,6.759,2.567,10.521,3.207s7.586,1.664,9.31,4A4.421,4.421,0,0,0,576.091,385.241Z" transform="translate(-469.106 -338.194)"/>
    <path id="Path_401" data-name="Path 401" d="M469.885,387.523a18.37,18.37,0,0,0-.418-6.113,23.6,23.6,0,0,0-.244,6.407c.052.55.139,1.092.226,1.641C469.554,388.811,469.746,388.171,469.885,387.523Z" transform="translate(-469.084 -343.895)"/>
  </g>
</svg>
