<svg id="thesis" xmlns="http://www.w3.org/2000/svg" width="1131" height="812.206" viewBox="0 0 1131 812.206">
  <rect id="Rectangle_418" data-name="Rectangle 418" width="80.802" height="30.092" transform="translate(689.328 51.267)" fill="#fff" opacity="0.3"/>
  <rect id="Rectangle_419" data-name="Rectangle 419" width="80.802" height="30.092" transform="translate(823.626)" fill="#fff" opacity="0.3"/>
  <rect id="Rectangle_420" data-name="Rectangle 420" width="80.802" height="30.092" transform="translate(829.198 93.061)" fill="#fff" opacity="0.3"/>
  <rect id="Rectangle_421" data-name="Rectangle 421" width="80.802" height="30.092" transform="translate(570.634 127.611)" fill="#fff" opacity="0.3"/>
  <rect id="Rectangle_422" data-name="Rectangle 422" width="80.802" height="30.092" transform="translate(545 251.321)" fill="#fff" opacity="0.3"/>
  <rect id="Rectangle_423" data-name="Rectangle 423" width="80.802" height="30.092" transform="translate(667.038 248.534)" fill="#fff" opacity="0.3"/>
  <path id="Path_861" data-name="Path 861" d="M823.626,14.856l-53.5,50.76L829.2,108.107" fill="none" stroke="#3f3d56" stroke-miterlimit="10" stroke-width="1"/>
  <line id="Line_8" data-name="Line 8" x1="78.294" y2="61.994" transform="translate(611.034 65.616)" fill="none" stroke="#3f3d56" stroke-miterlimit="10" stroke-width="1"/>
  <path id="Path_862" data-name="Path 862" d="M585.4,251.3l25.633-93.6,96.405,90.832" fill="none" stroke="#3f3d56" stroke-miterlimit="10" stroke-width="1"/>
  <rect id="Rectangle_424" data-name="Rectangle 424" width="80.802" height="30.092" transform="translate(144.328 82.267)" fill="#fff" opacity="0.3"/>
  <rect id="Rectangle_425" data-name="Rectangle 425" width="80.802" height="30.092" transform="translate(278.626 31)" fill="#fff" opacity="0.3"/>
  <rect id="Rectangle_426" data-name="Rectangle 426" width="80.802" height="30.092" transform="translate(284.198 124.061)" fill="#fff" opacity="0.3"/>
  <rect id="Rectangle_427" data-name="Rectangle 427" width="80.802" height="30.092" transform="translate(25.634 158.611)" fill="#fff" opacity="0.3"/>
  <rect id="Rectangle_428" data-name="Rectangle 428" width="80.802" height="30.092" transform="translate(0 282.321)" fill="#fff" opacity="0.3"/>
  <rect id="Rectangle_429" data-name="Rectangle 429" width="80.802" height="30.092" transform="translate(122.038 279.534)" fill="#fff" opacity="0.3"/>
  <path id="Path_863" data-name="Path 863" d="M278.626,45.856l-53.5,50.76L284.2,139.107" fill="none" stroke="#3f3d56" stroke-miterlimit="10" stroke-width="1"/>
  <line id="Line_9" data-name="Line 9" x1="78.294" y2="61.994" transform="translate(66.034 96.616)" fill="none" stroke="#3f3d56" stroke-miterlimit="10" stroke-width="1"/>
  <path id="Path_864" data-name="Path 864" d="M40.4,282.3l25.633-93.6,96.4,90.832" fill="none" stroke="#3f3d56" stroke-miterlimit="10" stroke-width="1"/>
  <line id="Line_10" data-name="Line 10" x2="91.634" transform="translate(365 139.107)" fill="none" stroke="#3f3d56" stroke-miterlimit="10" stroke-width="1"/>
  <rect id="Rectangle_430" data-name="Rectangle 430" width="95" height="30" transform="translate(415.5 123.706)" fill="#fff"/>
  <line id="Line_11" data-name="Line 11" x2="60.01" transform="translate(510.623 138.706)" fill="none" stroke="#3f3d56" stroke-miterlimit="10" stroke-width="1"/>
  <line id="Line_12" data-name="Line 12" x1="55.617" y1="92.85" transform="translate(359.427 45.856)" fill="none" stroke="#3f3d56" stroke-miterlimit="10" stroke-width="1"/>
  <ellipse id="Ellipse_185" data-name="Ellipse 185" cx="440" cy="98" rx="440" ry="98" transform="translate(251 616.206)" fill="#f2f2f2"/>
  <path id="Path_865" data-name="Path 865" d="M894.984,391.611,852.078,606.582H842.79l-1.022-1.588-2.959-4.6,37.155-200.818,5.64-2.362Z" fill="#47465a"/>
  <path id="Path_866" data-name="Path 866" d="M881.6,397.21,841.768,604.994l-2.959-4.6,37.155-200.818Z" opacity="0.1"/>
  <path id="Path_867" data-name="Path 867" d="M959.564,684.432l-11.031,3.556-2.681.867-3.539-7.962L881.6,403.96l6.312-1.415,13.261-2.973Z" fill="#47465a"/>
  <path id="Path_868" data-name="Path 868" d="M948.533,687.988l-2.681.867-3.539-7.962L881.6,403.96l6.312-1.415Z" opacity="0.1"/>
  <path id="Path_869" data-name="Path 869" d="M433.636,391.611,423.9,670.277l-11.152,2.477-.791.177-3.1-5.75,6.193-272.917,5.958-.849Z" fill="#47465a"/>
  <path id="Path_870" data-name="Path 870" d="M421.016,393.415l-8.263,279.339-.791.177-3.1-5.75,6.193-272.917Z" opacity="0.1"/>
  <path id="Path_871" data-name="Path 871" d="M491.581,768.917l-11.536,1.99-1.292.221-3.538-7.519L419.039,399.572l1.619-.491,8.555-2.6Z" fill="#47465a"/>
  <path id="Path_872" data-name="Path 872" d="M480.045,770.907l-1.292.221-3.538-7.519L419.039,399.572l1.619-.491Z" opacity="0.1"/>
  <path id="Path_873" data-name="Path 873" d="M770.246,412.949,813.2,467.831a13.928,13.928,0,0,0,12.588,5.249L1002.1,452.43a13.928,13.928,0,0,0,12.308-13.833V397.91Z" transform="translate(-34.5 -43.897)" fill="#7a799c"/>
  <path id="Path_874" data-name="Path 874" d="M880.388,377.9H892.33v17.236a4.438,4.438,0,0,1-4.438,4.438h-3.068a4.438,4.438,0,0,1-4.438-4.438V377.9Z" fill="#47465a"/>
  <path id="Path_875" data-name="Path 875" d="M453.539,447.893l42.951,54.882a13.928,13.928,0,0,0,12.588,5.249L685.4,487.374A13.928,13.928,0,0,0,697.7,473.541V432.853Z" transform="translate(-34.5 -43.897)" fill="#7a799c"/>
  <path id="Path_876" data-name="Path 876" d="M563.68,412.842h11.943v17.236a4.438,4.438,0,0,1-4.438,4.438h-3.068a4.438,4.438,0,0,1-4.438-4.438Z" fill="#47465a"/>
  <path id="Path_877" data-name="Path 877" d="M502.885,475.688l524.459-61.09a7.713,7.713,0,0,0,2.577-14.549L936.1,352.867a108.586,108.586,0,0,0-59.8-11.017L410.361,389.36a8.918,8.918,0,0,0-5.459,15.095l54.259,55.668a52.673,52.673,0,0,0,43.724,15.565Z" transform="translate(-34.5 -43.897)" fill="#47465a"/>
  <path id="Path_878" data-name="Path 878" d="M1085.044,406.318l-5.61-3.1s-6.056,4.458-10.99,23.24,9.221.2,9.221.2l6.193-12.828Z" transform="translate(-34.5 -43.897)" fill="#47465a"/>
  <path id="Path_879" data-name="Path 879" d="M1025.027,578.38s-5.75,26.982-8.4,34.5c-1.3,3.68-7.582,7.046-14.544,9.621a97.378,97.378,0,0,1-19.073,4.976c-7.52.885-103.947-14.154-150.834-24.328C800.585,596.3,796.5,588.438,797.2,584.041a6.38,6.38,0,0,1,1.8-3.45s46.444-31.405,62.811-46.444,48.656-3.1,84.042,3.1S1025.027,578.38,1025.027,578.38Z" transform="translate(-34.5 -43.897)" fill="#47465a"/>
  <path id="Path_880" data-name="Path 880" d="M1079.434,403.217s21.674,14.155-51.31,43.348c0,0-39.669,22.367-34.505,114.5a25.268,25.268,0,0,0,3.673,11.7c7.53,12.385,23.666,43.737-3.227,47.63v7.077s48.656-24.328,53.964-45.117,23-136.237,31.848-146.853S1094.473,408.083,1079.434,403.217Z" transform="translate(-34.5 -43.897)" fill="#47465a"/>
  <path id="Path_881" data-name="Path 881" d="M1002.079,622.5a97.371,97.371,0,0,1-19.073,4.976c-7.52.885-103.947-14.154-150.834-24.328C800.585,596.3,796.5,588.438,797.2,584.041c20.763,7.1,88.183,29.632,112.378,31.494,28.751,2.212,83.68,8.36,87.842,4.18C999.023,618.105,1000.664,619.8,1002.079,622.5Z" transform="translate(-34.5 -43.897)" opacity="0.1"/>
  <path id="Path_882" data-name="Path 882" d="M749.457,806.621,791.478,614.65s7.52-20.347,24.77-19.462l15.924,7.962s-26.54-6.193-32.29,14.154-42.464,189.316-42.464,189.316Z" transform="translate(-34.5 -43.897)" fill="#47465a"/>
  <path id="Path_883" data-name="Path 883" d="M815.808,675.143l16.808-117.217h7.52L822.885,675.143Z" fill="#47465a"/>
  <path id="Path_884" data-name="Path 884" d="M1011.315,833.6,995.391,650.479s0-15.482,7.962-23,33.665-28.97,33.665-28.97,6.587-1.551,11.895,13.489,42.021,165.431,42.021,165.431l-7.077,3.1L1038.3,607.131l-31.405,29.636s-6.193,11.058-3.1,21.232,14.6,175.6,14.6,175.6Z" transform="translate(-34.5 -43.897)" fill="#47465a"/>
  <path id="Path_885" data-name="Path 885" d="M927.717,579.158l39.809,11.5,8.847-8.4-23-3.1Z" fill="#47465a"/>
  <path id="Path_886" data-name="Path 886" d="M608.313,300.2l6.455,96.824,141.1-13.712-5.615-94.649a9.519,9.519,0,0,0-10.3-8.922L617.013,290.082a9.52,9.52,0,0,0-8.7,10.119Z" transform="translate(-34.5 -43.897)" fill="#7a799c"/>
  <path id="Path_887" data-name="Path 887" d="M768.7,367.282,628.039,382.627l-5.308.579-41.136-26.539v-5.751L721.37,338.328Z" fill="#7a799c"/>
  <path id="Path_888" data-name="Path 888" d="M628.039,382.627l-5.308.579-41.136-26.539v-5.149Z" opacity="0.1"/>
  <path id="Path_889" data-name="Path 889" d="M583.364,255.373l4.866,86.254,123.852-11.5-4.424-84.043Z" fill="#9493b6"/>
  <path id="Path_890" data-name="Path 890" d="M657.233,365.513l15.039,10.174,45.56-4.424-15.482-9.731Z" opacity="0.1"/>
  <path id="Path_891" data-name="Path 891" d="M595.749,353.128l19.02,14.154,121.641-11.5-21.674-14.155Z" fill="#9493b6"/>
  <rect id="Rectangle_431" data-name="Rectangle 431" width="89.793" height="89.793" transform="translate(811.605 222.42)" fill="#2f2e41"/>
  <rect id="Rectangle_432" data-name="Rectangle 432" width="89.793" height="89.793" transform="translate(811.605 222.42)" opacity="0.1"/>
  <path id="Path_892" data-name="Path 892" d="M877.029,307.871s12.667,34.306,0,40.639,45.389,0,45.389,0l16.361-13.195s-36.945-10.556-31.667-34.834S877.029,307.871,877.029,307.871Z" transform="translate(-34.5 -43.897)" fill="#d09780"/>
  <path id="Path_893" data-name="Path 893" d="M877.029,307.871s12.667,34.306,0,40.639,45.389,0,45.389,0l16.361-13.195s-36.945-10.556-31.667-34.834S877.029,307.871,877.029,307.871Z" transform="translate(-34.5 -43.897)" opacity="0.1"/>
  <path id="Path_894" data-name="Path 894" d="M773.056,651.986s47.5,67.029,39.584,85.5-3.694,30.084-19.528,36.417-20.056,17.945-6.333,17.417,31.667-4.222,34.306-8.972,8.972-27.445,17.945-30.611,25.861-15.306,13.722-30.084-42.725-69.21-40.363-74.717S773.056,651.986,773.056,651.986Z" transform="translate(-34.5 -43.897)" fill="#d09780"/>
  <path id="Path_895" data-name="Path 895" d="M872.279,519.512s-98.168,6.333-123.5,30.084,22.167,112.418,27.445,113.474,46.445-3.167,44.862-14.778-29.556-59.112-29.556-59.112S827.945,575.985,848,572.818s42.223-17.945,42.223-17.945Z" transform="translate(-34.5 -43.897)" fill="#9493b6"/>
  <path id="Path_896" data-name="Path 896" d="M827.417,504.734s1.583,58.584,16.361,60.7,0-44.862,0-44.862l-.528-17.945Z" transform="translate(-34.5 -43.897)" fill="#d09780"/>
  <path id="Path_897" data-name="Path 897" d="M872.279,351.149s-27.445-7.917-32.723,13.195-6.861,93.946-6.861,93.946l-9.5,58.056s17.417-5.278,21.111-2.639l22.167-27.973Z" transform="translate(-34.5 -43.897)" fill="#6c63ff"/>
  <path id="Path_898" data-name="Path 898" d="M872.279,351.149s-27.445-7.917-32.723,13.195-6.861,93.946-6.861,93.946l-9.5,58.056s17.417-5.278,21.111-2.639l22.167-27.973Z" transform="translate(-34.5 -43.897)" opacity="0.1"/>
  <path id="Path_899" data-name="Path 899" d="M909.779,663.225s18.445,36.261,29.528,35.733,21.639-7.389,26.917,14.25-1.056,15.833,5.278,28.5,7.389,34.834-4.75,40.112-23.222,5.806-23.75,0,10.556-5.806-2.111-26.389-39.584-58.056-50.667-61.751S909.779,663.225,909.779,663.225Z" transform="translate(-34.5 -43.897)" fill="#d09780"/>
  <path id="Path_900" data-name="Path 900" d="M957.78,497.873s38,63.334,13.195,81.806-98.7,53.834-98.7,53.834,39.584,26.917,41.695,35.889-19,33.25-26.389,33.778-29.028-24.278-52.251-30.611-37.473-51.723-12.139-68.612S872.279,559.1,872.279,559.1l-7.385-40.634Z" transform="translate(-34.5 -43.897)" fill="#9493b6"/>
  <path id="Path_901" data-name="Path 901" d="M924.84,286.664c0,22.444-22.991,41-45.436,41a40.639,40.639,0,0,1,0-81.279C901.849,246.384,924.84,264.219,924.84,286.664Z" transform="translate(-34.5 -43.897)" fill="#d09780"/>
  <path id="Path_902" data-name="Path 902" d="M889.7,345.343s36.417-15.833,36.417-17.945,21.111,4.75,25.861,8.972,7.389,3.694,10.556,12.139S946.7,435.594,946.7,435.594s10.556,60.7,16.361,66.5-46.973,14.25-46.973,14.25-34.834,6.333-40.639,8.972-16.361,6.333-14.25,0,11.083-11.083-4.222-19c0,0,5.278-25.861,0-37.473s-29.556-53.834-10.028-84.445,28.5-41.695,28.5-41.695S882.307,348.51,889.7,345.343Z" transform="translate(-34.5 -43.897)" fill="#6c63ff"/>
  <path id="Path_903" data-name="Path 903" d="M901.307,489.428s-41.167,18.259-53.57,19.949-49.876,11.19-29.292,19.635,51.723-4.222,51.723-4.222l43.806-18.472Z" transform="translate(-34.5 -43.897)" fill="#d09780"/>
  <path id="Path_904" data-name="Path 904" d="M945.629,343.724s15.2-7.353,19.424,18.508,19,107.668,0,119.807-62.806,31.667-62.806,31.667-25.861-17.417-13.722-23.75,41.167-24.278,45.389-30.611,8.488-77.027,1.1-88.638S945.629,343.724,945.629,343.724Z" transform="translate(-34.5 -43.897)" opacity="0.1"/>
  <path id="Path_905" data-name="Path 905" d="M944.585,337.427s21.111-1.056,25.334,24.806,19,107.668,0,119.807-62.806,31.667-62.806,31.667-25.861-17.417-13.722-23.75,41.167-24.278,45.389-30.611-3.167-72.306-10.556-83.918S944.585,337.427,944.585,337.427Z" transform="translate(-34.5 -43.897)" fill="#6c63ff"/>
  <path id="Path_906" data-name="Path 906" d="M869.394,218.612c-6.479.882-13.429,3.252-16.689,8.92-1.6,2.774-2.111,6.027-3.34,8.982-3.391,8.153-11.628,13.021-17.574,19.548-7.75,8.507-11.6,21.326-7.028,31.887,1.77,4.09,4.644,7.593,6.824,11.48,6.081,10.843,6.405,23.865,6.578,36.3l.34,24.441c.052,3.732.093,7.54-1.03,11.1s-3.633,6.893-7.192,8.017a18.64,18.64,0,0,0,21.708-7.413,19.049,19.049,0,0,1-5.822,16.9c9.676-2.279,17.79-9.316,22.9-17.842s7.482-18.442,8.545-28.326c.562-5.228.76-10.633-.892-15.625-1.163-3.516-3.192-6.668-5.118-9.83-4.966-8.154-9.437-16.826-11.037-26.238s.006-19.738,6.118-27.072A24.454,24.454,0,0,1,886,254.979a21.5,21.5,0,0,1,17.928,10.975c1.412,2.658,3.422,6.26,6.282,5.326a15.52,15.52,0,0,0,1.549-.761c3.19-1.452,6.814,1.413,8.221,4.623,4.437,10.127-3.738,21.181-4.583,32.205-.786,10.255,4.931,19.926,11.765,27.612a90.718,90.718,0,0,0,44.353,27.25,12.449,12.449,0,0,1-6.434-4,84.469,84.469,0,0,0,20.757-1.74c-7.426-5.6-14.9-11.24-21.1-18.171s-11.11-15.316-12.447-24.518c-1.794-12.35,2.805-25.723-2.454-37.041-4.808-10.347-16.732-16.129-21.087-26.674-4.423-10.712-7.291-20.017-19-24.68C896.962,220.3,883.2,216.732,869.394,218.612Z" transform="translate(-34.5 -43.897)" fill="#36261e"/>
</svg>
