<svg xmlns="http://www.w3.org/2000/svg" width="804.82" height="440.106" viewBox="0 0 804.82 440.106">
  <g id="Group_59" data-name="Group 59" transform="translate(-854.701 -376.201)">
    <path id="Path_353" data-name="Path 353" d="M1005.422,631.77h9.219a19,19,0,0,1,19.032,18.968v26.5l-47.282.076V650.738A19,19,0,0,1,1005.422,631.77Z" transform="translate(619.196 134.297)" fill="#3f3d56"/>
    <path id="Path_354" data-name="Path 354" d="M1005.421,631.77h9.219a19.031,19.031,0,0,1,19.031,19.031v26.735l-47.281-.685V650.8A19.031,19.031,0,0,1,1005.421,631.77Z" transform="translate(619.197 134.297)" opacity="0.1"/>
    <circle id="Ellipse_88" data-name="Ellipse 88" cx="3.783" cy="3.783" r="3.783" transform="translate(1623.561 768.907)" fill="#3f3d56"/>
    <circle id="Ellipse_89" data-name="Ellipse 89" cx="3.783" cy="3.783" r="3.783" transform="translate(1623.561 764.179)" fill="#674739"/>
    <circle id="Ellipse_90" data-name="Ellipse 90" cx="3.783" cy="3.783" r="3.783" transform="translate(1623.561 759.444)" fill="#674739"/>
    <circle id="Ellipse_91" data-name="Ellipse 91" cx="3.783" cy="3.783" r="3.783" transform="translate(1623.561 754.717)" fill="#674739"/>
    <circle id="Ellipse_92" data-name="Ellipse 92" cx="3.783" cy="3.783" r="3.783" transform="translate(1623.561 749.99)" fill="#674739"/>
    <circle id="Ellipse_93" data-name="Ellipse 93" cx="3.783" cy="3.783" r="3.783" transform="translate(1623.561 745.262)" fill="#674739"/>
    <circle id="Ellipse_94" data-name="Ellipse 94" cx="3.783" cy="3.783" r="3.783" transform="translate(1623.561 740.535)" fill="#674739"/>
    <circle id="Ellipse_95" data-name="Ellipse 95" cx="3.783" cy="3.783" r="3.783" transform="translate(1629.231 742.423)" fill="#674739"/>
    <circle id="Ellipse_96" data-name="Ellipse 96" cx="3.783" cy="3.783" r="3.783" transform="translate(1633.016 740.535)" fill="#674739"/>
    <circle id="Ellipse_97" data-name="Ellipse 97" cx="3.783" cy="3.783" r="3.783" transform="translate(1636.799 738.64)" fill="#674739"/>
    <circle id="Ellipse_98" data-name="Ellipse 98" cx="3.783" cy="3.783" r="3.783" transform="translate(1623.561 735.808)" fill="#674739"/>
    <circle id="Ellipse_99" data-name="Ellipse 99" cx="3.783" cy="3.783" r="3.783" transform="translate(1623.561 731.08)" fill="#674739"/>
    <circle id="Ellipse_100" data-name="Ellipse 100" cx="3.783" cy="3.783" r="3.783" transform="translate(1623.561 726.346)" fill="#674739"/>
    <circle id="Ellipse_101" data-name="Ellipse 101" cx="3.783" cy="3.783" r="3.783" transform="translate(1623.561 721.618)" fill="#3f3d56"/>
    <path id="Path_355" data-name="Path 355" d="M1047.8,659.336q-1.408.206-2.832.3a21.744,21.744,0,0,0,2.436-2.5,15.981,15.981,0,0,0-2.284-4.438,7.871,7.871,0,0,1-3.045.967c-.937.137-1.88.236-2.824.3a50.607,50.607,0,0,0,3.616-3.806,16.062,16.062,0,1,0,5.275,11.883,15.7,15.7,0,0,0-.244-2.763Z" transform="translate(595.224 53.871)" fill="#50a757"/>
    <path id="Path_356" data-name="Path 356" d="M1069.63,687.625a7.446,7.446,0,0,1-3.182,1.066c-.936.137-1.88.236-2.824.3a27.7,27.7,0,0,0,2.8-2.908,9.767,9.767,0,0,0-2.421-.32,9.47,9.47,0,1,0,5.625,1.865Z" transform="translate(586.032 44.376)" fill="#50a757"/>
    <circle id="Ellipse_102" data-name="Ellipse 102" cx="3.783" cy="3.783" r="3.783" transform="translate(1617.882 742.423)" fill="#674739"/>
    <circle id="Ellipse_103" data-name="Ellipse 103" cx="3.783" cy="3.783" r="3.783" transform="translate(1614.098 740.535)" fill="#674739"/>
    <circle id="Ellipse_104" data-name="Ellipse 104" cx="3.783" cy="3.783" r="3.783" transform="translate(1610.322 738.64)" fill="#674739"/>
    <path id="Path_357" data-name="Path 357" d="M998.8,687.625a7.447,7.447,0,0,0,3.182,1.066c.936.137,1.88.236,2.824.3a27.7,27.7,0,0,1-2.8-2.908,9.765,9.765,0,0,1,2.421-.32,9.47,9.47,0,1,1-5.626,1.865Z" transform="translate(600.249 44.376)" fill="#50a757"/>
    <g id="Group_8" data-name="Group 8" transform="translate(1611.486 700.078)" opacity="0.1">
      <path id="Path_359" data-name="Path 359" d="M1057.766,664.88a12.311,12.311,0,0,1-1.226,1.157,12.117,12.117,0,0,0,1.294-.114C1057.819,665.573,1057.8,665.223,1057.766,664.88Z" transform="translate(-1025.938 -650.717)"/>
      <path id="Path_360" data-name="Path 360" d="M1049.09,657.952c.944-.061,1.888-.16,2.824-.3a8.863,8.863,0,0,0,2.459-.67,17.2,17.2,0,0,0-1.324-2.185,5.73,5.73,0,0,1-1.523.647A22.521,22.521,0,0,1,1049.09,657.952Z" transform="translate(-1024.159 -648.31)"/>
      <path id="Path_361" data-name="Path 361" d="M1018.007,664.039a16.047,16.047,0,0,1,24.741-13.52l.243-.259a16.062,16.062,0,1,0-21.178,24.155A15.987,15.987,0,0,1,1018.007,664.039Z" transform="translate(-1016.34 -646.275)"/>
    </g>
    <g id="Group_9" data-name="Group 9" transform="translate(1640.597 730.136)" opacity="0.1">
      <path id="Path_362" data-name="Path 362" d="M1066.48,691.461c.944-.069,1.888-.167,2.824-.3a7.436,7.436,0,0,0,3.182-1.058,9.432,9.432,0,0,1,3.806,6.7,8.828,8.828,0,0,0,.053-1,9.432,9.432,0,0,0-3.806-7.612,7.446,7.446,0,0,1-3.182,1.066l-.761.091A18.759,18.759,0,0,1,1066.48,691.461Z" transform="translate(-1057.421 -686.338)"/>
      <path id="Path_363" data-name="Path 363" d="M1064.034,687.648a4.351,4.351,0,0,1,.944.068c.495-.525.982-1.089,1.477-1.637a9.767,9.767,0,0,0-2.421-.32,9.455,9.455,0,0,0-9.455,9.455,6.518,6.518,0,0,0,.046.944A9.462,9.462,0,0,1,1064.034,687.648Z" transform="translate(-1054.58 -685.76)"/>
    </g>
    <g id="Group_10" data-name="Group 10" transform="translate(1595.158 730.136)" opacity="0.1">
      <path id="Path_364" data-name="Path 364" d="M1004.756,691.461c-.944-.069-1.888-.167-2.824-.3a7.436,7.436,0,0,1-3.182-1.058,9.432,9.432,0,0,0-3.806,6.7,8.8,8.8,0,0,1-.053-1,9.431,9.431,0,0,1,3.806-7.612,7.445,7.445,0,0,0,3.182,1.066l.761.091a19.43,19.43,0,0,0,2.116,2.124Z" transform="translate(-994.89 -686.338)"/>
      <path id="Path_365" data-name="Path 365" d="M1006.591,687.648a4.35,4.35,0,0,0-.944.068c-.495-.525-.982-1.089-1.477-1.637a9.766,9.766,0,0,1,2.421-.32,9.455,9.455,0,0,1,9.455,9.455,6.434,6.434,0,0,1-.046.944A9.462,9.462,0,0,0,1006.591,687.648Z" transform="translate(-997.106 -685.76)"/>
    </g>
    <path id="Path_358" data-name="Path 358" d="M1005.421,635.5h9.219a19.031,19.031,0,0,1,19.031,19.031V678.42c0,1.782-.2,2.445-1.135,3.063s-10.792,1.565-22.075,1.4-21.507-1.374-22.817-2.059a2.766,2.766,0,0,1-1.254-2.4V654.531A19.031,19.031,0,0,1,1005.421,635.5Z" transform="translate(619.197 133.407)" fill="#3f3d56"/>
    <g id="Group_58" data-name="Group 58">
      <ellipse id="Ellipse_81" data-name="Ellipse 81" cx="10.696" cy="8.168" rx="10.696" ry="8.168" transform="matrix(0.488, -0.873, 0.873, 0.488, 1525.695, 497.378)" fill="#3f3d56"/>
      <ellipse id="Ellipse_82" data-name="Ellipse 82" cx="10.696" cy="8.168" rx="10.696" ry="8.168" transform="matrix(0.488, -0.873, 0.873, 0.488, 1532.071, 485.968)" fill="#3f3d56"/>
      <ellipse id="Ellipse_83" data-name="Ellipse 83" cx="10.696" cy="8.168" rx="10.696" ry="8.168" transform="matrix(0.488, -0.873, 0.873, 0.488, 1538.454, 474.56)" fill="#3f3d56"/>
      <ellipse id="Ellipse_84" data-name="Ellipse 84" cx="10.696" cy="8.168" rx="10.696" ry="8.168" transform="matrix(0.488, -0.873, 0.873, 0.488, 1544.83, 463.142)" fill="#3f3d56"/>
      <ellipse id="Ellipse_85" data-name="Ellipse 85" cx="10.696" cy="8.168" rx="10.696" ry="8.168" transform="matrix(0.488, -0.873, 0.873, 0.488, 1551.202, 451.738)" fill="#3f3d56"/>
      <ellipse id="Ellipse_86" data-name="Ellipse 86" cx="10.696" cy="8.168" rx="10.696" ry="8.168" transform="matrix(0.488, -0.873, 0.873, 0.488, 1557.586, 440.327)" fill="#3f3d56"/>
      <path id="Path_366" data-name="Path 366" d="M51.031,539h72.73a19.031,19.031,0,0,1,19.031,19.031v91.723H32V558.031A19.031,19.031,0,0,1,51.031,539Z" transform="translate(847.061 156.446)" fill="#3f3d56"/>
      <path id="Path_367" data-name="Path 367" d="M51.031,539h72.73a19.031,19.031,0,0,1,19.031,19.031v91.723H32V558.031A19.031,19.031,0,0,1,51.031,539Z" transform="translate(847.061 156.446)" opacity="0.1"/>
      <circle id="Ellipse_105" data-name="Ellipse 105" cx="8.861" cy="8.861" r="8.861" transform="translate(921.181 702.062)" fill="#3f3d56"/>
      <circle id="Ellipse_106" data-name="Ellipse 106" cx="8.861" cy="8.861" r="8.861" transform="translate(921.181 690.986)" fill="#674739"/>
      <circle id="Ellipse_107" data-name="Ellipse 107" cx="8.861" cy="8.861" r="8.861" transform="translate(921.181 679.902)" fill="#674739"/>
      <circle id="Ellipse_108" data-name="Ellipse 108" cx="8.861" cy="8.861" r="8.861" transform="translate(921.181 668.826)" fill="#674739"/>
      <circle id="Ellipse_109" data-name="Ellipse 109" cx="8.861" cy="8.861" r="8.861" transform="translate(921.181 657.742)" fill="#674739"/>
      <circle id="Ellipse_110" data-name="Ellipse 110" cx="8.861" cy="8.861" r="8.861" transform="translate(921.181 646.666)" fill="#674739"/>
      <circle id="Ellipse_111" data-name="Ellipse 111" cx="8.861" cy="8.861" r="8.861" transform="translate(921.181 635.59)" fill="#674739"/>
      <circle id="Ellipse_112" data-name="Ellipse 112" cx="8.861" cy="8.861" r="8.861" transform="translate(934.473 640.02)" fill="#674739"/>
      <circle id="Ellipse_113" data-name="Ellipse 113" cx="8.861" cy="8.861" r="8.861" transform="translate(943.333 635.59)" fill="#674739"/>
      <circle id="Ellipse_114" data-name="Ellipse 114" cx="8.861" cy="8.861" r="8.861" transform="translate(952.201 631.152)" fill="#674739"/>
      <circle id="Ellipse_115" data-name="Ellipse 115" cx="8.861" cy="8.861" r="8.861" transform="translate(921.181 624.506)" fill="#674739"/>
      <circle id="Ellipse_116" data-name="Ellipse 116" cx="8.861" cy="8.861" r="8.861" transform="translate(921.181 613.43)" fill="#674739"/>
      <circle id="Ellipse_117" data-name="Ellipse 117" cx="8.861" cy="8.861" r="8.861" transform="translate(921.181 602.346)" fill="#674739"/>
      <circle id="Ellipse_118" data-name="Ellipse 118" cx="8.861" cy="8.861" r="8.861" transform="translate(921.181 591.27)" fill="#3f3d56"/>
      <path id="Path_368" data-name="Path 368" d="M146.049,467.646q-3.3.48-6.623.7a51.585,51.585,0,0,0,5.7-5.854,37.566,37.566,0,0,0-5.283-10.4,18.072,18.072,0,0,1-7.095,2.284c-2.192.32-4.408.556-6.623.708,2.916-2.36,5.618-5.93,8.473-8.83a37.75,37.75,0,1,0,11.792,21.361Z" transform="translate(820.738 103.9)" fill="#50a757"/>
      <path id="Path_369" data-name="Path 369" d="M197.243,533.922a17.447,17.447,0,0,1-7.453,2.482c-2.2.327-4.408.556-6.623.708a62.327,62.327,0,0,0,6.562-6.806,22.175,22.175,0,1,0,7.514,3.616Z" transform="translate(799.156 81.67)" fill="#50a757"/>
      <circle id="Ellipse_119" data-name="Ellipse 119" cx="8.861" cy="8.861" r="8.861" transform="translate(907.882 640.02)" fill="#674739"/>
      <circle id="Ellipse_120" data-name="Ellipse 120" cx="8.861" cy="8.861" r="8.861" transform="translate(899.021 635.59)" fill="#674739"/>
      <circle id="Ellipse_121" data-name="Ellipse 121" cx="8.861" cy="8.861" r="8.861" transform="translate(890.16 631.152)" fill="#674739"/>
      <path id="Path_370" data-name="Path 370" d="M31.185,533.922a17.445,17.445,0,0,0,7.46,2.482c2.192.327,4.4.556,6.615.708a62.33,62.33,0,0,1-6.562-6.806,22.175,22.175,0,1,1-7.514,3.616Z" transform="translate(832.499 81.67)" fill="#50a757"/>
      <path id="Path_371" data-name="Path 371" d="M51.031,547.69h72.73a19.031,19.031,0,0,1,19.031,19.031v88.54a3.228,3.228,0,0,1-3.228,3.228H35.243A3.228,3.228,0,0,1,32,655.262v-88.54A19.031,19.031,0,0,1,51.031,547.69Z" transform="translate(847.061 154.372)" fill="#3f3d56"/>
      <g id="Group_11" data-name="Group 11" transform="translate(892.896 540.788)" opacity="0.1">
        <path id="Path_372" data-name="Path 372" d="M169.422,480.61a28.633,28.633,0,0,1-2.862,2.71c1.012-.068,2.033-.16,3.045-.259C169.567,482.239,169.514,481.417,169.422,480.61Z" transform="translate(-94.861 -447.431)"/>
        <path id="Path_373" data-name="Path 373" d="M149.1,464.4c2.215-.152,4.423-.381,6.615-.708a21.1,21.1,0,0,0,5.77-1.522,38.487,38.487,0,0,0-3.106-5.131,13.076,13.076,0,0,1-3.547,1.522A52.686,52.686,0,0,1,149.1,464.4Z" transform="translate(-90.693 -441.804)"/>
        <path id="Path_374" data-name="Path 374" d="M76.276,478.646a37.6,37.6,0,0,1,57.969-31.675c.19-.2.381-.419.571-.609a37.634,37.634,0,1,0-49.613,56.6A37.461,37.461,0,0,1,76.276,478.646Z" transform="translate(-72.374 -437.025)"/>
      </g>
      <g id="Group_12" data-name="Group 12" transform="translate(961.047 611.229)" opacity="0.1">
        <path id="Path_375" data-name="Path 375" d="M189.85,542.91q3.319-.213,6.623-.708a17.411,17.411,0,0,0,7.453-2.482A22.122,22.122,0,0,1,212.8,555.41a23.174,23.174,0,0,0,.122-2.337,22.076,22.076,0,0,0-8.975-17.783,17.447,17.447,0,0,1-7.453,2.482c-.586.084-1.165.152-1.743.221A43.87,43.87,0,0,1,189.85,542.91Z" transform="translate(-168.573 -530.928)"/>
        <path id="Path_376" data-name="Path 376" d="M184.052,533.975a21.379,21.379,0,0,1,2.223.152c1.157-1.233,2.284-2.543,3.448-3.806a22.076,22.076,0,0,0-27.824,21.4c0,.761.038,1.523.107,2.215a22.16,22.16,0,0,1,22.046-19.96Z" transform="translate(-161.9 -529.56)"/>
      </g>
      <g id="Group_13" data-name="Group 13" transform="translate(854.701 611.229)" opacity="0.1">
        <path id="Path_377" data-name="Path 377" d="M45.251,542.91q-3.319-.213-6.615-.708a17.24,17.24,0,0,1-7.46-2.482,22.122,22.122,0,0,0-8.853,15.689,23.174,23.174,0,0,1-.122-2.337,22.076,22.076,0,0,1,8.983-17.783,17.444,17.444,0,0,0,7.46,2.482c.579.084,1.157.152,1.736.221a44.522,44.522,0,0,0,4.872,4.918Z" transform="translate(-22.2 -530.928)"/>
        <path id="Path_378" data-name="Path 378" d="M49.531,533.975a21.379,21.379,0,0,0-2.223.152c-1.157-1.233-2.284-2.543-3.448-3.806a22.076,22.076,0,0,1,27.824,21.4,14.954,14.954,0,0,1-.107,2.215A22.16,22.16,0,0,0,49.531,533.975Z" transform="translate(-27.371 -529.56)"/>
      </g>
      <path id="Path_379" data-name="Path 379" d="M633.423,674.652l-148.443-1.9.434-3.806,7.179-62.8H622.956l9.592,62.8.731,4.758Z" transform="translate(738.91 140.417)" fill="#d0d2d5"/>
      <path id="Path_380" data-name="Path 380" d="M633.279,693.4H559.2l-74.222-.952.434-3.806H632.548Z" transform="translate(738.91 120.719)" opacity="0.1"/>
      <rect id="Rectangle_251" data-name="Rectangle 251" width="196.973" height="4.758" transform="translate(1199.15 810.311)" fill="#d0d2d5"/>
      <path id="Path_381" data-name="Path 381" d="M800.041,240.944c-.3-12.044-9.812-18.847-20.982-19.79s-538.106.4-538.106.4c-9.242.089-15.687,9.91-15.653,16.755V547.387H800.041Z" transform="translate(784.011 155.383)" fill="#444053"/>
      <path id="Path_382" data-name="Path 382" d="M225.3,645.45v39.06a12.325,12.325,0,0,0,12.332,12.363H787.717a12.325,12.325,0,0,0,12.325-12.325v-39.1Z" transform="translate(784.011 54.001)" fill="#d0d2d5"/>
      <path id="Path_383" data-name="Path 383" d="M602.492,685.385a12.857,12.857,0,0,0,10.109-4.9h0a13.823,13.823,0,0,0,1-1.469l-7.049-1.157,7.612.053a12.812,12.812,0,0,0,.244-10.178l-10.224,5.329,9.432-6.927A12.842,12.842,0,1,0,592.4,680.444h0a12.842,12.842,0,0,0,10.094,4.94Z" transform="translate(697.044 50.636)" fill="#50a757"/>
      <path id="Path_384" data-name="Path 384" d="M601.23,611.76l59.217,59.476-9.082-59.476Z" transform="translate(711.155 139.075)" opacity="0.1"/>
      <g id="Man" transform="translate(1033.1 395.56)">
        <rect id="Rectangle_253" data-name="Rectangle 253" width="530.018" height="281.437" fill="#fff"/>
        <path id="Path_392" data-name="Path 392" d="M512.512,445.429s5.275,28.764-6.557,38.142,10,65.653,46.267,59.1,50.961-53.781,50.961-53.781-36.268-7.494-22.828-45.636Z" transform="translate(-279.087 -278.89)" fill="#ffbfa4"/>
        <path id="Path_393" data-name="Path 393" d="M512.512,445.429s5.275,28.764-6.557,38.142,10,65.653,46.267,59.1,50.961-53.781,50.961-53.781-36.268-7.494-22.828-45.636Z" transform="translate(-279.087 -278.89)" opacity="0.1"/>
        <rect id="Rectangle_254" data-name="Rectangle 254" width="147.833" height="7.662" transform="translate(29.563 73.364)" fill="#50a757" opacity="0.1"/>
        <rect id="Rectangle_255" data-name="Rectangle 255" width="14.239" height="40.518" transform="translate(42.707 32.846)" fill="#50a757" opacity="0.1"/>
        <rect id="Rectangle_256" data-name="Rectangle 256" width="14.239" height="40.518" transform="translate(63.513 32.846)" fill="#50a757" opacity="0.1"/>
        <rect id="Rectangle_257" data-name="Rectangle 257" width="14.239" height="40.518" transform="translate(84.32 32.846)" fill="#50a757" opacity="0.1"/>
        <rect id="Rectangle_258" data-name="Rectangle 258" width="14.239" height="40.518" transform="translate(105.126 32.846)" fill="#50a757" opacity="0.1"/>
        <rect id="Rectangle_259" data-name="Rectangle 259" width="14.239" height="40.518" transform="translate(125.932 32.846)" fill="#50a757" opacity="0.1"/>
        <rect id="Rectangle_260" data-name="Rectangle 260" width="14.239" height="40.518" transform="translate(146.739 32.846)" fill="#50a757" opacity="0.1"/>
        <rect id="Rectangle_261" data-name="Rectangle 261" width="14.239" height="4.378" transform="translate(42.707 40.518)" fill="#50a757" opacity="0.1"/>
        <rect id="Rectangle_262" data-name="Rectangle 262" width="14.239" height="4.378" transform="translate(63.513 40.518)" fill="#50a757" opacity="0.1"/>
        <rect id="Rectangle_263" data-name="Rectangle 263" width="14.239" height="4.378" transform="translate(84.32 40.518)" fill="#50a757" opacity="0.1"/>
        <rect id="Rectangle_264" data-name="Rectangle 264" width="14.239" height="4.378" transform="translate(105.126 40.518)" fill="#50a757" opacity="0.1"/>
        <rect id="Rectangle_265" data-name="Rectangle 265" width="14.239" height="4.378" transform="translate(125.932 40.518)" fill="#50a757" opacity="0.1"/>
        <rect id="Rectangle_266" data-name="Rectangle 266" width="14.239" height="4.378" transform="translate(146.739 40.518)" fill="#50a757" opacity="0.1"/>
        <rect id="Rectangle_267" data-name="Rectangle 267" width="14.239" height="4.378" transform="translate(42.707 60.23)" fill="#50a757" opacity="0.1"/>
        <rect id="Rectangle_268" data-name="Rectangle 268" width="14.239" height="4.378" transform="translate(63.513 60.23)" fill="#50a757" opacity="0.1"/>
        <rect id="Rectangle_269" data-name="Rectangle 269" width="14.239" height="4.378" transform="translate(84.32 60.23)" fill="#50a757" opacity="0.1"/>
        <rect id="Rectangle_270" data-name="Rectangle 270" width="14.239" height="4.378" transform="translate(105.126 60.23)" fill="#50a757" opacity="0.1"/>
        <rect id="Rectangle_271" data-name="Rectangle 271" width="14.239" height="4.378" transform="translate(125.932 60.23)" fill="#50a757" opacity="0.1"/>
        <rect id="Rectangle_272" data-name="Rectangle 272" width="14.239" height="4.378" transform="translate(146.739 60.23)" fill="#50a757" opacity="0.1"/>
        <rect id="Rectangle_273" data-name="Rectangle 273" width="147.833" height="7.662" transform="translate(353.707 93.076)" fill="#50a757" opacity="0.1"/>
        <rect id="Rectangle_274" data-name="Rectangle 274" width="14.239" height="40.518" transform="translate(366.852 52.558)" fill="#50a757" opacity="0.1"/>
        <rect id="Rectangle_275" data-name="Rectangle 275" width="14.239" height="40.518" transform="translate(387.658 52.558)" fill="#50a757" opacity="0.1"/>
        <rect id="Rectangle_276" data-name="Rectangle 276" width="14.239" height="40.518" transform="translate(408.464 52.558)" fill="#50a757" opacity="0.1"/>
        <rect id="Rectangle_277" data-name="Rectangle 277" width="14.239" height="40.518" transform="translate(429.27 52.558)" fill="#50a757" opacity="0.1"/>
        <rect id="Rectangle_278" data-name="Rectangle 278" width="14.239" height="40.518" transform="translate(450.077 52.558)" fill="#50a757" opacity="0.1"/>
        <rect id="Rectangle_279" data-name="Rectangle 279" width="14.239" height="40.518" transform="translate(470.883 52.558)" fill="#50a757" opacity="0.1"/>
        <rect id="Rectangle_280" data-name="Rectangle 280" width="14.239" height="4.378" transform="translate(366.852 60.23)" fill="#50a757" opacity="0.1"/>
        <rect id="Rectangle_281" data-name="Rectangle 281" width="14.239" height="4.378" transform="translate(387.658 60.23)" fill="#50a757" opacity="0.1"/>
        <rect id="Rectangle_282" data-name="Rectangle 282" width="14.239" height="4.378" transform="translate(408.464 60.23)" fill="#50a757" opacity="0.1"/>
        <rect id="Rectangle_283" data-name="Rectangle 283" width="14.239" height="4.378" transform="translate(429.27 60.23)" fill="#50a757" opacity="0.1"/>
        <rect id="Rectangle_284" data-name="Rectangle 284" width="14.239" height="4.378" transform="translate(450.077 60.23)" fill="#50a757" opacity="0.1"/>
        <rect id="Rectangle_285" data-name="Rectangle 285" width="14.239" height="4.378" transform="translate(470.883 60.23)" fill="#50a757" opacity="0.1"/>
        <rect id="Rectangle_286" data-name="Rectangle 286" width="14.239" height="4.378" transform="translate(366.852 79.942)" fill="#50a757" opacity="0.1"/>
        <rect id="Rectangle_287" data-name="Rectangle 287" width="14.239" height="4.378" transform="translate(387.658 79.942)" fill="#50a757" opacity="0.1"/>
        <rect id="Rectangle_288" data-name="Rectangle 288" width="14.239" height="4.378" transform="translate(408.464 79.942)" fill="#50a757" opacity="0.1"/>
        <rect id="Rectangle_289" data-name="Rectangle 289" width="14.239" height="4.378" transform="translate(429.27 79.942)" fill="#50a757" opacity="0.1"/>
        <rect id="Rectangle_290" data-name="Rectangle 290" width="14.239" height="4.378" transform="translate(450.077 79.942)" fill="#50a757" opacity="0.1"/>
        <rect id="Rectangle_291" data-name="Rectangle 291" width="14.239" height="4.378" transform="translate(470.883 79.942)" fill="#50a757" opacity="0.1"/>
        <rect id="Rectangle_292" data-name="Rectangle 292" width="147.833" height="7.662" transform="translate(353.707 148.928)" fill="#50a757" opacity="0.1"/>
        <rect id="Rectangle_293" data-name="Rectangle 293" width="14.239" height="40.518" transform="translate(366.852 108.41)" fill="#50a757" opacity="0.1"/>
        <rect id="Rectangle_294" data-name="Rectangle 294" width="14.239" height="40.518" transform="translate(387.658 108.41)" fill="#50a757" opacity="0.1"/>
        <rect id="Rectangle_295" data-name="Rectangle 295" width="14.239" height="40.518" transform="translate(408.464 108.41)" fill="#50a757" opacity="0.1"/>
        <rect id="Rectangle_296" data-name="Rectangle 296" width="14.239" height="40.518" transform="translate(429.27 108.41)" fill="#50a757" opacity="0.1"/>
        <rect id="Rectangle_297" data-name="Rectangle 297" width="14.239" height="40.518" transform="translate(450.077 108.41)" fill="#50a757" opacity="0.1"/>
        <rect id="Rectangle_298" data-name="Rectangle 298" width="14.239" height="40.518" transform="translate(470.883 108.41)" fill="#50a757" opacity="0.1"/>
        <rect id="Rectangle_299" data-name="Rectangle 299" width="14.239" height="4.378" transform="translate(366.852 116.071)" fill="#50a757" opacity="0.1"/>
        <rect id="Rectangle_300" data-name="Rectangle 300" width="14.239" height="4.378" transform="translate(387.658 116.071)" fill="#50a757" opacity="0.1"/>
        <rect id="Rectangle_301" data-name="Rectangle 301" width="14.239" height="4.378" transform="translate(408.464 116.071)" fill="#50a757" opacity="0.1"/>
        <rect id="Rectangle_302" data-name="Rectangle 302" width="14.239" height="4.378" transform="translate(429.27 116.071)" fill="#50a757" opacity="0.1"/>
        <rect id="Rectangle_303" data-name="Rectangle 303" width="14.239" height="4.378" transform="translate(450.077 116.071)" fill="#50a757" opacity="0.1"/>
        <rect id="Rectangle_304" data-name="Rectangle 304" width="14.239" height="4.378" transform="translate(470.883 116.071)" fill="#50a757" opacity="0.1"/>
        <rect id="Rectangle_305" data-name="Rectangle 305" width="14.239" height="4.378" transform="translate(366.852 135.783)" fill="#50a757" opacity="0.1"/>
        <rect id="Rectangle_306" data-name="Rectangle 306" width="14.239" height="4.378" transform="translate(387.658 135.783)" fill="#50a757" opacity="0.1"/>
        <rect id="Rectangle_307" data-name="Rectangle 307" width="14.239" height="4.378" transform="translate(408.464 135.783)" fill="#50a757" opacity="0.1"/>
        <rect id="Rectangle_308" data-name="Rectangle 308" width="14.239" height="4.378" transform="translate(429.27 135.783)" fill="#50a757" opacity="0.1"/>
        <rect id="Rectangle_309" data-name="Rectangle 309" width="14.239" height="4.378" transform="translate(450.077 135.783)" fill="#50a757" opacity="0.1"/>
        <rect id="Rectangle_310" data-name="Rectangle 310" width="14.239" height="4.378" transform="translate(470.883 135.783)" fill="#50a757" opacity="0.1"/>
        <path id="Path_385" data-name="Path 385" d="M397.742,437.963a39.015,39.015,0,0,1-3.017-4.437l21.289-3.491-23.064.187a38.881,38.881,0,0,1-.74-30.746L423.094,415.5l-28.478-20.935a38.8,38.8,0,1,1,64.1,43.388,38.785,38.785,0,0,1,4.447,7.06l-27.61,14.347L465,449.5a38.782,38.782,0,0,1-6.252,36.426,38.8,38.8,0,1,1-60.989,0,38.8,38.8,0,0,1,0-47.973Z" transform="translate(-277.509 -277.942)" fill="#50a757" opacity="0.1"/>
        <path id="Path_386" data-name="Path 386" d="M467.035,463.172a38.635,38.635,0,0,1-8.3,23.981,38.8,38.8,0,1,1-60.989,0C392.546,480.557,467.035,458.813,467.035,463.172Z" transform="translate(-277.51 -279.159)" fill="#50a757" opacity="0.1"/>
        <path id="Path_387" data-name="Path 387" d="M434.9,561.494c.069.108.118.217.187.325H421.909c.069-.109.118-.217.187-.325a12.82,12.82,0,0,1-1.7-6.488,13.359,13.359,0,0,1,.8-4.566h0c.73.118,1.637.247,2.682.355a46.223,46.223,0,0,0,9.19,0c.868-.089,1.785-.217,2.712-.355a.634.634,0,0,1,0,.069,13.16,13.16,0,0,1,.779,4.5A12.82,12.82,0,0,1,434.9,561.494Z" transform="translate(-277.941 -280.382)" fill="#3f3d56" opacity="0.2"/>
        <path id="Path_388" data-name="Path 388" d="M385.625,559.977H312.359c-.168-.424-.316-.868-.444-1.3a38.566,38.566,0,0,1,.858-25.362,38.792,38.792,0,0,1-14.16-45.843,40.116,40.116,0,0,1-4.2-3.353l19.307-9.624-21.94,6.962A38.842,38.842,0,0,1,282,452.287l34.237,6.183-33.389-11.6a38.8,38.8,0,1,1,74.035,22.571A39.527,39.527,0,0,1,363.2,474.9l-22.167,21.871,25.234-18.144a38.812,38.812,0,0,1,4.773,36.663A38.812,38.812,0,0,1,385.625,559.977Z" transform="translate(-276.013 -278.52)" fill="#50a757" opacity="0.1"/>
        <path id="Path_389" data-name="Path 389" d="M386.025,561.007H312.759c-.168-.424-.315-.868-.444-1.3a38.565,38.565,0,0,1,.858-25.362c-6.9-4.783,57.843-47.539,59.165-43.388a38.724,38.724,0,0,1-.858,25.372A38.812,38.812,0,0,1,386.025,561.007Z" transform="translate(-276.412 -279.55)" fill="#50a757" opacity="0.1"/>
        <path id="Path_390" data-name="Path 390" d="M721.841,507.862a38.616,38.616,0,0,1-19.426,16.329,40.026,40.026,0,0,1,.168,8.352L671.5,530.68l30.352,6.636a38.891,38.891,0,0,1-14.978,23.114h-42.3v1.095H601.51c.089-.375.177-.74.276-1.095a38.941,38.941,0,0,1,23.666-26.338A38.832,38.832,0,0,1,650.1,492.913a38.834,38.834,0,0,1-.325-5.354l20.067,7.888-19.84-11.655a38.891,38.891,0,0,1,15.1-26.762l18.282,29.582-13.7-32.541a38.792,38.792,0,0,1,52.144,53.82Z" transform="translate(-280.462 -278.973)" fill="#50a757" opacity="0.1"/>
        <path id="Path_391" data-name="Path 391" d="M697.219,550.21A38.25,38.25,0,0,1,686.875,561.6h-42.3v1.095H601.51c.089-.375.177-.74.276-1.095a38.941,38.941,0,0,1,23.666-26.338c-.365-2.83,8-2.445,19.13-.572C666.345,538.338,698.7,547.735,697.219,550.21Z" transform="translate(-280.462 -280.142)" fill="#50a757" opacity="0.1"/>
        <circle id="Ellipse_122" data-name="Ellipse 122" cx="60.023" cy="60.023" r="60.023" transform="translate(205.45 67.596)" fill="#ffbfa4"/>
        <path id="Path_394" data-name="Path 394" d="M642.382,521.1v40.8H444.18v-38.94a25.154,25.154,0,0,1,15.343-23.153l5.69-2.416c14.377-6.124,31.841-13.726,37.55-16.892a9.4,9.4,0,0,0,1.755-1.134c3.126-3.126,2.5.937,2.5.937s-.089.769-.148,2.11c-.335,9.18.986,45.291,43.289,42.283,41.277-2.958,43.092-30.805,42.717-39a20.377,20.377,0,0,0-.2-2.268c0-.217,3.55.986,8.362,2.722,8.648,3.185,21.358,8.313,24.78,10.729,1.065.74,2.357,1.528,3.757,2.307A25.007,25.007,0,0,1,642.4,521.1Z" transform="translate(-278.272 -279.376)" fill="#3073ce"/>
        <path id="Path_395" data-name="Path 395" d="M601.862,486.158c-3.491,16.191-14.456,46.523-54.008,47.332-42.115.828-44.541-41.06-44.285-52.943a9.117,9.117,0,0,0,1.765-1.144c3.126-3.126,2.5.937,2.5.937s-5.315,47.835,43.141,44.374,42.52-41.267,42.52-41.267C593.5,483.219,597.05,484.383,601.862,486.158Z" transform="translate(-279.098 -279.377)" opacity="0.1"/>
        <path id="Path_396" data-name="Path 396" d="M473.044,407.614c3.944-1.282,8.648.887,10.847,3.944s2.5,6.755,2.771,10.295c2.613.552,4.083-2.406,4.319-4.625.986-9.082,1.035-18.331,4.082-27.088s9.7-17.237,19.939-20.609a23.035,23.035,0,0,1,10.847-1.035c2.16.365,4.2,1.114,6.36,1.469,7.465,1.233,15.6-2.307,22.611.158,4.388,1.548,7.218,5.128,9.23,8.717a19.021,19.021,0,0,0,3.589,5.216c2.958,2.662,7.652,3.363,11.912,4.2s8.934,2.278,10.758,5.571c1.647,2.958.434,6.41-.118,9.644a23.548,23.548,0,0,0,2.436,14.89c.789,1.5,2.386,3.195,4.27,2.712a3.767,3.767,0,0,0,2.041-1.657c4.93-6.9,4.773-15.856,10.916-22.019,2.061-2.061,4.714-3.678,6.715-5.778a13,13,0,0,0,3.481-11.833c-1.1-4.743-4.93-8.7-7.958-12.819a50.29,50.29,0,0,1-8.53-17.7,3.156,3.156,0,0,1,0-2.307,6.185,6.185,0,0,1,2.179-1.785,8.243,8.243,0,0,0,2.83-10.531c-1.716-3.579-5.571-6.232-9.8-7.829s-8.875-2.278-13.47-2.958c-3.017.444-6.557-1.282-7.494-3.7-.414-1.075-.414-2.238-.838-3.313-.818-2.061-3.175-3.52-5.709-4.023a16.764,16.764,0,0,0-7.711.542c-2.84.8-6.133,1.972-8.608.611-1.3-.74-2.031-2.081-3.432-2.682-2.84-1.213-5.838,1.233-7.889,3.254a19.425,19.425,0,0,1-7.129,4.782c-2.85.986-6.36.986-8.816-.582-1.972-1.252-2.958-3.264-4.526-4.861-2.574-2.633-6.646-4.063-10.709-4.388a37.846,37.846,0,0,0-12.089,1.321A73.207,73.207,0,0,0,479.1,319.7c-3.284,2.061-6.429,4.467-8.145,7.573a17.189,17.189,0,0,0-1.834,7.81c-.306,8.49,2.514,17.444,9.861,23.39-4.477,1.874-6,6.459-7.041,10.531-1.676,6.488-3.363,13.1-2.731,19.722.316,3.422,1.252,6.843.749,10.245-.237,1.647-.809,3.264-.67,4.93A4.713,4.713,0,0,0,473.044,407.614Z" transform="translate(-278.618 -277.028)" fill="#674739"/>
        <g id="Group_14" data-name="Group 14" transform="translate(190.463 54.244)" opacity="0.1">
          <path id="Path_397" data-name="Path 397" d="M620.887,378.18A14.147,14.147,0,0,1,618.293,382c-1.972,2.1-4.654,3.718-6.715,5.788-6.143,6.153-6.015,15.136-10.916,22.019a3.747,3.747,0,0,1-2.041,1.647c-1.883.483-3.481-1.213-4.27-2.712a23.957,23.957,0,0,1-2.14-5.769q-.158.749-.3,1.509a23.547,23.547,0,0,0,2.436,14.89c.789,1.5,2.386,3.195,4.27,2.712a3.768,3.768,0,0,0,2.041-1.657c4.93-6.9,4.773-15.856,10.916-22.019,2.061-2.061,4.713-3.678,6.715-5.778a13,13,0,0,0,3.481-11.833A14.238,14.238,0,0,0,620.887,378.18Z" transform="translate(-470.787 -332.229)"/>
          <path id="Path_398" data-name="Path 398" d="M607.676,334.976a6.055,6.055,0,0,0-2.179,1.775,3.155,3.155,0,0,0,0,2.307,48.2,48.2,0,0,0,2.179,6.557h0a8.244,8.244,0,0,0,2.791-10.64,10.8,10.8,0,0,0-.986-1.676,8.229,8.229,0,0,1-1.8,1.676Z" transform="translate(-470.977 -331.604)"/>
          <path id="Path_399" data-name="Path 399" d="M478.97,348.245a26.772,26.772,0,0,1-9.417-16.665,23.651,23.651,0,0,0-.434,3.944,30.006,30.006,0,0,0,4.733,17.749,10.087,10.087,0,0,1,5.118-5.029Z" transform="translate(-469.081 -331.58)"/>
          <path id="Path_400" data-name="Path 400" d="M590.213,393.573c.552-3.234,1.765-6.676.118-9.644-1.824-3.293-6.488-4.743-10.758-5.571s-8.934-1.538-11.912-4.2a19.018,19.018,0,0,1-3.589-5.216c-1.972-3.589-4.842-7.169-9.23-8.717-7.011-2.465-15.146,1.075-22.611-.158-2.159-.355-4.2-1.1-6.36-1.469a23.033,23.033,0,0,0-10.847.986c-10.235,3.372-16.892,11.833-19.939,20.609S491.97,398.2,491,407.279c-.237,2.219-1.706,5.177-4.319,4.625-.266-3.54-.592-7.238-2.771-10.295s-6.834-5.236-10.847-3.944a5.226,5.226,0,0,1-3.037-1.972,16.576,16.576,0,0,1-.059,3.944c-.237,1.647-.809,3.264-.67,4.93a4.713,4.713,0,0,0,3.747,3.727c3.944-1.282,8.648.887,10.847,3.944s2.5,6.755,2.771,10.295c2.613.552,4.082-2.406,4.319-4.625.986-9.082,1.035-18.331,4.082-27.088s9.7-17.237,19.939-20.609a23.035,23.035,0,0,1,10.847-1.035c2.159.365,4.2,1.114,6.36,1.469,7.465,1.233,15.6-2.307,22.611.158,4.388,1.548,7.218,5.128,9.23,8.717a19.022,19.022,0,0,0,3.589,5.216c2.958,2.662,7.652,3.363,11.912,4.2s8.589,2.179,10.541,5.236C590.144,394.007,590.173,393.79,590.213,393.573Z" transform="translate(-469.084 -331.953)"/>
          <path id="Path_401" data-name="Path 401" d="M469.988,389.417a27.737,27.737,0,0,0-.473-8.007,35.7,35.7,0,0,0-.276,8.392c.059.72.158,1.43.256,2.15C469.613,391.1,469.83,390.265,469.988,389.417Z" transform="translate(-469.082 -332.274)"/>
        </g>
      </g>
    </g>
  </g>
</svg>
